<svg width="140" height="45" viewBox="0 0 140 45" fill="none" xmlns="http://www.w3.org/2000/svg">
<path d="M15 1.5H125C132.456 1.5 138.5 7.54416 138.5 15V30C138.5 37.4558 132.456 43.5 125 43.5H15C7.54416 43.5 1.5 37.4558 1.5 30V15C1.5 7.54416 7.54416 1.5 15 1.5Z" stroke="#5b2600" stroke-width="3"/>
<path d="M18.1426 29V16.2031H22.625C24.1777 16.2031 25.3555 16.502 26.1582 17.0996C26.9609 17.6914 27.3623 18.5615 27.3623 19.71C27.3623 20.3369 27.2012 20.8906 26.8789 21.3711C26.5566 21.8457 26.1084 22.1943 25.5342 22.417C26.1904 22.5811 26.7061 22.9121 27.0811 23.4102C27.4619 23.9082 27.6523 24.5176 27.6523 25.2383C27.6523 26.4688 27.2598 27.4004 26.4746 28.0332C25.6895 28.666 24.5703 28.9883 23.1172 29H18.1426ZM20.7793 23.4277V26.8818H23.0381C23.6592 26.8818 24.1426 26.7354 24.4883 26.4424C24.8398 26.1436 25.0156 25.7334 25.0156 25.2119C25.0156 24.04 24.4092 23.4453 23.1963 23.4277H20.7793ZM20.7793 21.5645H22.7305C24.0605 21.541 24.7256 21.0107 24.7256 19.9736C24.7256 19.3936 24.5557 18.9775 24.2158 18.7256C23.8818 18.4678 23.3516 18.3389 22.625 18.3389H20.7793V21.5645Z" fill="#5b2600"/>
<path d="M38.2959 23.7705H36.7754V29H34.1387V16.2031H36.7754V21.3271H37.9795L41.1084 16.2031H44.3252L40.3789 22.2588L44.7383 29H41.5918L38.2959 23.7705Z" fill="#5b2600"/>
<path d="M55.9883 22.8916C55.9883 24.1514 55.7656 25.2559 55.3203 26.2051C54.875 27.1543 54.2363 27.8867 53.4043 28.4023C52.5781 28.918 51.6289 29.1758 50.5566 29.1758C49.4961 29.1758 48.5498 28.9209 47.7178 28.4111C46.8857 27.9014 46.2412 27.1748 45.7842 26.2314C45.3271 25.2822 45.0957 24.1924 45.0898 22.9619V22.3291C45.0898 21.0693 45.3154 19.9619 45.7666 19.0068C46.2236 18.0459 46.8652 17.3105 47.6914 16.8008C48.5234 16.2852 49.4727 16.0273 50.5391 16.0273C51.6055 16.0273 52.5518 16.2852 53.3779 16.8008C54.21 17.3105 54.8516 18.0459 55.3027 19.0068C55.7598 19.9619 55.9883 21.0664 55.9883 22.3203V22.8916ZM53.3164 22.3115C53.3164 20.9697 53.0762 19.9502 52.5957 19.2529C52.1152 18.5557 51.4297 18.207 50.5391 18.207C49.6543 18.207 48.9717 18.5527 48.4912 19.2441C48.0107 19.9297 47.7676 20.9375 47.7617 22.2676V22.8916C47.7617 24.1982 48.002 25.2119 48.4824 25.9326C48.9629 26.6533 49.6543 27.0137 50.5566 27.0137C51.4414 27.0137 52.1211 26.668 52.5957 25.9766C53.0703 25.2793 53.3105 24.2656 53.3164 22.9355V22.3115Z" fill="#5b2600"/>
<path d="M60.541 24.4912V29H57.9043V16.2031H62.8965C63.8574 16.2031 64.7012 16.3789 65.4277 16.7305C66.1602 17.082 66.7227 17.583 67.1152 18.2334C67.5078 18.8779 67.7041 19.6133 67.7041 20.4395C67.7041 21.6934 67.2734 22.6836 66.4121 23.4102C65.5566 24.1309 64.3701 24.4912 62.8525 24.4912H60.541ZM60.541 22.3555H62.8965C63.5938 22.3555 64.124 22.1914 64.4873 21.8633C64.8564 21.5352 65.041 21.0664 65.041 20.457C65.041 19.8301 64.8564 19.3232 64.4873 18.9365C64.1182 18.5498 63.6084 18.3506 62.958 18.3389H60.541V22.3555Z" fill="#5b2600"/>
<path d="M75.834 19.7275C75.834 19.2412 75.6436 18.8604 75.2627 18.585C74.8818 18.3037 74.3779 18.1631 73.751 18.1631C73.1885 18.1631 72.7197 18.3037 72.3447 18.585C71.9756 18.8604 71.791 19.2207 71.791 19.666H69.1543C69.1543 18.9746 69.3477 18.3535 69.7344 17.8027C70.127 17.2461 70.6807 16.8125 71.3955 16.502C72.1162 16.1914 72.9014 16.0361 73.751 16.0361C75.2275 16.0361 76.3848 16.3525 77.2227 16.9854C78.0605 17.6182 78.4795 18.5146 78.4795 19.6748C78.4795 20.2432 78.3066 20.7705 77.9609 21.2568C77.6211 21.7432 77.1348 22.1328 76.502 22.4258C77.2051 22.6719 77.7441 23.0469 78.1191 23.5508C78.4941 24.0488 78.6816 24.6699 78.6816 25.4141C78.6816 26.5625 78.2305 27.4766 77.3281 28.1562C76.4316 28.8301 75.2393 29.167 73.751 29.167C72.8193 29.167 71.9814 29.0088 71.2373 28.6924C70.4932 28.3701 69.9277 27.9336 69.541 27.3828C69.1602 26.8262 68.9697 26.1816 68.9697 25.4492H71.624C71.624 25.9062 71.8232 26.29 72.2217 26.6006C72.6201 26.9053 73.1299 27.0576 73.751 27.0576C74.4541 27.0576 75.0078 26.8994 75.4121 26.583C75.8223 26.2666 76.0273 25.8652 76.0273 25.3789C76.0273 24.7109 75.8457 24.2334 75.4824 23.9463C75.1191 23.6533 74.5889 23.5068 73.8916 23.5068H72.3184V21.4414H73.9443C75.2041 21.4238 75.834 20.8525 75.834 19.7275Z" fill="#5b2600"/>
<path d="M88.3057 16.2031H90.9512V29H88.3057V20.501L83.1816 29H80.5449V16.2031H83.1816V24.7197L88.3057 16.2031Z" fill="#5b2600"/>
<path d="M103.651 29H101.015V23.5156H95.873V29H93.2363V16.2031H95.873V21.3887H101.015V16.2031H103.651V29Z" fill="#5b2600"/>
<path d="M110.762 22.25L113.091 16.2031H115.938L111.465 26.7588L111.104 27.4531C110.442 28.6074 109.429 29.1846 108.063 29.1846L107.141 29.1494L107.114 27.0312C107.255 27.0547 107.483 27.0664 107.8 27.0664C108.169 27.0664 108.465 27.002 108.688 26.873C108.916 26.7441 109.106 26.5068 109.259 26.1611L109.584 25.3262L105.093 16.2031H107.932L110.762 22.25Z" fill="#5b2600"/>
<path d="M126.775 21.8369H129.948V24.1309H126.775V27.7168H124.358V24.1309H121.177V21.8369H124.358V18.4004H126.775V21.8369Z" fill="#5b2600"/>
</svg>
