<svg width="50" height="52" viewBox="0 0 50 52" fill="none" xmlns="http://www.w3.org/2000/svg">
<g opacity="0.5">
<path d="M35.4167 38.2687C34.8705 38.2687 34.3297 38.3789 33.8253 38.5929C33.321 38.8068 32.863 39.1204 32.4778 39.5156C32.0925 39.9107 31.7876 40.3797 31.5805 40.8955C31.3733 41.4113 31.2681 41.9639 31.2709 42.5213C31.2709 44.8708 33.1125 46.7739 35.4167 46.7739C36.5218 46.7739 37.5816 46.3258 38.363 45.5283C39.1444 44.7308 39.5834 43.6492 39.5834 42.5213C39.5834 41.3935 39.1444 40.3118 38.363 39.5143C37.5816 38.7168 36.5218 38.2687 35.4167 38.2687ZM2.08337 4.24829V8.50085H6.25004L13.7417 24.6329L10.925 29.8466C10.5772 30.4945 10.4008 31.2237 10.4131 31.9623C10.4254 32.701 10.6261 33.4237 10.9953 34.0591C11.3646 34.6945 11.8896 35.2208 12.5188 35.5862C13.148 35.9515 13.8595 36.1432 14.5834 36.1425H39.5834V31.8899H15.4625C15.3724 31.8894 15.2838 31.8651 15.2057 31.8192C15.1275 31.7733 15.0623 31.7075 15.0165 31.6282C14.9708 31.5489 14.9459 31.4588 14.9445 31.3668C14.9431 31.2748 14.9651 31.1839 15.0084 31.1032L16.8771 27.6374H32.398C33.141 27.6372 33.8704 27.4342 34.5107 27.0495C35.151 26.6648 35.6789 26.1124 36.0396 25.4494L43.4896 11.652C43.664 11.3284 43.7529 10.9641 43.7474 10.5948C43.7419 10.2255 43.6422 9.8641 43.4582 9.54609C43.2743 9.22808 43.0123 8.96445 42.6982 8.78117C42.384 8.59789 42.0285 8.50128 41.6667 8.50085H10.8584L8.88546 4.24829H2.08337ZM14.5813 38.2687C14.0351 38.2687 13.4943 38.3789 12.9899 38.5929C12.4856 38.8068 12.0276 39.1204 11.6424 39.5156C11.2571 39.9107 10.9522 40.3797 10.745 40.8955C10.5379 41.4113 10.4327 41.9639 10.4355 42.5213C10.4355 44.8708 12.2792 46.7739 14.5813 46.7739C15.6864 46.7739 16.7462 46.3258 17.5276 45.5283C18.309 44.7308 18.748 43.6492 18.748 42.5213C18.748 41.3935 18.309 40.3118 17.5276 39.5143C16.7462 38.7168 15.6864 38.2687 14.5813 38.2687Z" fill="#E4BFA0"/>
</g>
</svg>
