<svg fill="none" xmlns="http://www.w3.org/2000/svg" viewBox="0 0 50 50"><path fill-rule="evenodd" clip-rule="evenodd" d="M25 8.9a51 51 0 013.5-4.6A15 15 0 0133 .5a5 5 0 013-.4C37.3.3 38.3 1 39 2c.7 1 1 2 .8 3.2-.1 1.1-.7 2-1.3 2.8-1 1.2-2.7 2.2-4.2 3H50v10.4h-3.8V50H3.8V21.4H0V10.9h15.8c-1.5-.7-3.1-1.7-4.2-3a5.2 5.2 0 01-1.3-2.7C10 4.1 10.4 3 11 2c.7-1 1.7-1.7 2.8-2a5 5 0 013 .5 15 15 0 014.6 3.8A44.3 44.3 0 0125 8.9zm-21 6v2.5h42v-2.5H4zm26.4-6.7l1.5-.6c1.6-.8 2.9-1.6 3.5-2.3l.4-.6-.2-.4a1 1 0 00-.2-.3l-.7.2c-.9.4-2 1.3-3.2 2.7l-1 1.3zm11.8 13.2H7.8V46h34.4V21.4zM19.6 8.2l-1.1-1.3a11.3 11.3 0 00-3.2-2.7l-.6-.2-.3.3-.2.4s0 .3.4.6c.6.7 1.9 1.5 3.5 2.3l1.5.6z" fill="#833904" fill-opacity=".8"/></svg>