<svg viewBox="0 0 56 52" preserveAspectRatio="none" fill="none" xmlns="http://www.w3.org/2000/svg"><path fill-rule="evenodd" clip-rule="evenodd" d="M28 48h-1c-9-5-15-11-20-18L3 19A13 13 0 0117 4c3 0 6 1 8 3l2 2h1a69 69 0 003-2c2-2 5-3 8-3 4 0 7 1 9 3 4 3 5 7 5 12l-4 11c-5 7-11 13-20 18h-1z" fill="#FC676D"/><path d="M39 4l9 3c4 3 5 8 4 12 0 4-2 8-4 11-4 8-11 13-19 18h-1-1c-8-5-15-10-19-18-2-3-4-7-4-11A13 13 0 0117 4c3 0 6 1 8 3l3 3 3-3c2-2 5-3 8-3zm0-1c-3 0-6 1-8 4l-3 1v0l-3-1c-2-3-5-4-8-4-4 0-7 2-9 4-4 3-6 7-5 12l4 11c2 4 5 8 9 11l11 7 1 1 1-1 11-7c4-3 7-7 9-11l4-11c1-5-1-9-5-12-2-2-5-4-9-4z" fill="#EF4136"/><path d="M48 7c-5-4-12-4-17 0l-3 3-3-3A13 13 0 004 19c0 4 2 8 4 11 4 8 11 13 19 18v0h2v0c8-5 15-10 19-18 2-3 4-7 4-11 1-4 0-9-4-12z" stroke="#CE3F3C" stroke-width="7" stroke-miterlimit="10"/><path fill-rule="evenodd" clip-rule="evenodd" d="M28 45c-8-4-14-9-17-16l-4-9c0-5 1-8 4-11 2-2 4-3 7-3s5 1 7 3l2 2h1v1-1a54 54 0 003-2c2-2 4-3 7-3s5 1 7 3c3 3 4 6 4 11l-4 9c-3 7-9 12-17 16z" fill="#6B2B2B"/><path fill-rule="evenodd" clip-rule="evenodd" d="M7 18c0-3 1-7 4-9 2-2 4-3 7-3s5 1 7 3l2 2h1v1-1h1l2-2c2-2 4-3 7-3s5 1 7 3c3 2 4 6 4 9l-4-5c-2-2-4-3-7-3s-6 1-8 3l-2 2h-1l-1-2c-3-2-5-3-8-3s-5 1-8 3l-3 5z" fill="#AF2B34"/><g opacity=".3" fill-rule="evenodd" clip-rule="evenodd" fill="#42271F"><path opacity=".3" d="M45 9l-1-1v4l1 1c2 2 4 4 4 7 1-5 0-8-4-11zM28 11l-3-2c-1-2-3-3-5-3v4c2 1 4 1 5 3l3 2v-4z"/></g></svg>