<svg viewBox="0 0 43 40" preserveAspectRatio="none" fill="none" xmlns="http://www.w3.org/2000/svg"><g opacity=".4" fill="#47392E"><path opacity=".3" d="M5 6v1h1V6 5h1V4h2V3l1 1V3h1a10 10 0 010 1V3l1 1a7 7 0 011 0v1a223 223 0 001 0v1a7 7 0 011 0 24 24 0 000 1V6a9 9 0 010-1V4 3a4 4 0 01-1 0V2h-1V1h-1-2-1-1v1H7 6v1a6 6 0 000 1H5v1h0v1z"/><path opacity=".4" d="M5 7a21 21 0 001 0H5zM15 7z"/></g><path d="M24 9a3 3 0 010 1V9zM15 9z" fill="#47392E"/><path opacity=".2" d="M4 23v1a4 4 0 000-1h1v-1h1l1-1v-1h1a9 9 0 011 0h1a3 3 0 000 1 4 4 0 001 0h1v2a55 55 0 001 0h0v-1h1-1a2 2 0 001-1h-1v-1h-1v-1h-1v-1h-1v-1a2 2 0 00-1 0 2 2 0 00-1 0v1H7l-1 1v1H5 4v1a1 1 0 000 1 21 21 0 000 1z" fill="#47392E"/><g opacity=".2" fill="#47392E"><path opacity=".2" d="M15 8v1h0V8h1V7h1V6a5 5 0 001 0 138 138 0 001 0h3v1a12 12 0 001 0v1h1a4 4 0 00-1 0v1h1V8 7 6h-1a5 5 0 001 0l-1-1h-1a3 3 0 000-1h-1V3h-3v1l-1-1v2h-1-1a23 23 0 010 1h0v1a7 7 0 000 1zM15 9zM24 9a3 3 0 010 1V9z"/></g><path opacity=".2" d="M10 16v1h1v-1h1v-1-1h1v-1h2a27 27 0 001 0v1h1a302 302 0 000 1h2a51 51 0 000 1h2v-1-1h-1v-1h-2v-1h-1v-1h-1-1a8 8 0 000-1h-1a1 1 0 000 1 3 3 0 00-1 0v1h-1v1h-1v1h-1v2z" fill="#47392E"/><g opacity=".2" fill="#47392E"><path opacity=".2" d="M1 13a5 5 0 000 1v-1h1v-1a3 3 0 001 0 3 3 0 001 0 2 2 0 001 0 2 2 0 000 1 2 2 0 001 0h1a3 3 0 011 0h1a3 3 0 000 1 3 3 0 001 0v-1-1a3 3 0 000-1H9a3 3 0 000-1H8a3 3 0 00-1 0H6 5V9H4a2 2 0 000 1L3 9v1H2 1v1a4 4 0 000 1v1zM1 14z"/></g><g opacity=".2" fill="#47392E"><path opacity=".2" d="M22 13h0v1h1v-1h2v-1 1h1v-1 1h2v1a4 4 0 001 0h3v-1a2 2 0 000-1h-1a5 5 0 000-1l-1 1v-1h-1a4 4 0 01-1 0h-1v-1h-1-2v1h-1l-1 1h1-1v1zM23 15h-1 1z"/></g><g opacity=".2" fill="#47392E"><path opacity=".2" d="M24 6v1a2 2 0 011 0l-1-1h1V5a3 3 0 011 0V4h3a5 5 0 011 0h1v1h1v1h1v0h1-1a10 10 0 001-1 7 7 0 00-1 0 6 6 0 000-1 5 5 0 000-1h-1V2h-1V1h-1v0a3 3 0 00-1 0h-2v1h-1v1a3 3 0 00-1 0h-1v1h0v2zM33 7v0z"/></g><g opacity=".2" fill="#47392E"><path opacity=".2" d="M33 6h1-1zM33 7zM33 9a3 3 0 000 1V9h1-1V8h0v1z"/></g><g opacity=".2" fill="#47392E"><path opacity=".2" d="M33 16v-1h-1l1 1zM42 17zM33 16h-1l1 1v-1zM42 16zM32 13a15 15 0 001 1h-1l1 1v-1h1a6 6 0 000-1h6a5 5 0 011 0v1h1v-1-1h-1v-1h-1a2 2 0 000-1v0h-1v1l-1-1v1l-1-1v1l-1-1v1l-1-1v1h-1-1a1 1 0 000 1h-1a84 84 0 001 1h-1zM42 15z"/></g><g opacity=".2" fill="#47392E"><path opacity=".2" d="M17 22v1a6 6 0 000 1 3 3 0 011-1h-1 1v-1h1v-1h2v-1h1v0l1 1v-1 1h2v1a6 6 0 001 0v1a12 12 0 011 0h-1a25 25 0 001 1v-1-1a3 3 0 000-1h-1l1-1h-1v-1h-1-1v-1h-1-1v-1 1h-1-1v1h-1v-1 1a3 3 0 00-1 0v1a23 23 0 01-1 0h1a9 9 0 000 1h-1a3 3 0 000 1zM17 24zM27 24v0z"/></g><g opacity=".2" fill="#47392E"><path opacity=".2" d="M28 22v1h0v-1h1v-1h1l1-1h2v1h1v-1 1a27 27 0 011 0h1a8 8 0 000 1h2a48 48 0 000 1v-1-1-1h-1v-1h-1-1v-1h-2-1v-1 1h-2v1h-1a5 5 0 000 1h-1 1l-1 1v1zM38 24z"/></g><path opacity=".2" d="M9 29v0h2v-1a3 3 0 001 0 2 2 0 001 0h1l1-1h1a2 2 0 011 0 2 2 0 000 1 7 7 0 001 0 405 405 0 000 1v1h1v-1-1-1h-1v-1a4 4 0 010-1 16 16 0 00-1 0 2 2 0 00-1 0 1 1 0 000-1l-1 1v-1 1h-1v1h-1v-1 1a2 2 0 00-1-1v1l-1-1v1h-1v1H9v2z" fill="#47392E"/><g opacity=".2" fill="#47392E"><path opacity=".2" d="M26 36zM17 34v1h1-1v-1h1v-1a7 7 0 011 0l1-1a9 9 0 011 0 3 3 0 011 0 2 2 0 011 0 2 2 0 011 0v2a5 5 0 001 0v1a1104 1104 0 001 0 3 3 0 000-1h0v-1-1h-1v-1h-1v-1h-1v-1a2 2 0 00-1 0h-2v1h-1v1h-1v1h-1 0v2z"/></g><path opacity=".2" d="M23 30a5 5 0 001 0 3 3 0 000 1 7 7 0 010-1v-1h2v-1-1h3v1h1l1 1h1v1h1v1a2 2 0 000-1h1v-1h-1a3 3 0 001-1h-1v-1h-1l-1-1h-1v-1h-1v-1a2 2 0 00-1 1v-1h-1v0l-1 1v1h-1v1h-1v1h-1v1h1a3 3 0 00-1 1z" fill="#47392E"/><path d="M42 16v-1-1-1-1h-1v-1l-1-1h1V9 8h1l-1-1h1l-1-1V5l-1-1h-1V3h-1V2h-1-1c0-1 0-1 0 0h-1-1v1h-1v0h-1V2h-1V1h-1c0 1 0 0 0 0h-1-1-1c0 1 0 0 0 0v1h-1l-1 1-1 1v2h-1s1 0 0 0h1l-1-1h-1V4h-1c0-1 0 0 0 0l-1-1h-1-1v0l-1 1v1h-1-1V4 3h-1V2h-1l-1-1h-1-1-1-1v1H7 6v2H5v1h1-1v3l1 2H5L4 9H3v1H2 1v5l1 1v1l1 1v1h1v1h0v4l1 1v1h1v1h1v1h1l1 1v1l1 2v1h1l1 1 1 1h2v1h1v-1s0 1 0 0h1v2h1v1h1v1h1v1l1-1v1h1l1-1v0h2v-1-1h1v-1-1-1l1 1h1v1l1-1v1l1-1h1v-1h1v-1-1h1v-1-1h1v-1h-1 1l1-1h1v-1h1v-1l1-1v-1-1-1-1h1v-1h1l1-1 1-2v-1zm-18-6zm-5 20v-1-1 1h2s0 1 0 0l-1 1h-1zm-5-8v1h1v1l1-1 1 1v-1 2l-1-1h-1v1h-1v-1-1-1zm18-11v0zm-9 18v0zm9-13v1l-1 1v-1h1v-1zm-10-2v3l1 1h-1c0-1 0 0 0 0h-1v-1-1-1h1v-1zm-8 12v-1 1zm14-6zm4-7zm-5 11v-1-1-1h1v-1 4s-1 0 0 0c-1 0-1 0 0 0h-1v0zm5-11zm0 0zm0 0zm0 0zm0 0zm0 0zm0 0zm0 0zm0 0zm-21 0v0zm21 0zm0 0zM22 29zM15 6zm0 0zm0 0zm0 0zm2 28zm0 0v0zm9 0z" fill="#42271F"/><path d="M40 15l-1-2h-4c-2 0-2 1-2 2v3h1v0h1v1l1-1v1l1-1h4v-1l-1-2z" fill="#682E21"/><path d="M33 18c-2 0-4 2-4 5a16 16 0 000 1 6 6 0 001 1v1h1a9 9 0 011 0 75 75 0 000 1 4 4 0 001 0h1v0a9 9 0 001 0h1v-1h1l1-3c0-4-2-5-5-5zM19 29l-2-2h-3v1h-4v2a5 5 0 001 2v1h2v1a7 7 0 001 0h1a132 132 0 000 1v-1h1v-1h1l1-2 1-2z" fill="#682E21"/><path d="M29 3a4 4 0 00-4 6h1v1h2v0h1v0h2V9a4 4 0 00-2-6z" fill="url(#paint0_radial)"/><path d="M20 15l-4-1h-2l-3 2v2h1v1h1l1 1h1v1a4 4 0 001-1l1 1a2 2 0 000-1h1v-1h1l1-1v-3zM10 2C8 2 6 4 6 6a5 5 0 000 2v1h1-1a2 2 0 001 0 5 5 0 001 1 8 8 0 001 0 8 8 0 001 0 6 6 0 001 1v-1a10 10 0 001 0 1 1 0 001 0V9h1V8l1-2c0-2-2-4-5-4zM32 32v-3l-3-2h-3l-1 3v2h1v1h1v1h1a3 3 0 001 0 6 6 0 010 1v-1h1v0a6 6 0 001 0l1-2zM11 19H8l-3 3v3h1a2 2 0 000 1h1a1 1 0 000 1v-1h1v1l1-1h1v-1h1v-1h1v-1-2l-1-2z" fill="#682E21"/><path d="M26 35a4 4 0 10-8 2h1v1a3 3 0 001 0 5 5 0 001 0v0h1v1l1-1h1l2-3z" fill="url(#paint1_radial)"/><path d="M31 14h-3-1l-2-1-1 2v2a16 16 0 001 0 7 7 0 000 1h1a5 5 0 001 0v0a8 8 0 001 0h1v-1l1 1v-1h1v-1-2zM40 7h-2-1V6l-2-1h-2v3 3h1a6 6 0 000 1l1-1a14 14 0 000 1l1-1h1a11 11 0 001 0h1c2-2 2-3 1-4zM11 15v-1a3 3 0 00-1 0h1l-1-1-3-1-1 1v-1H3l-1 2v1l2 3h1v0a14 14 0 001 0h1v-1h2v-1h1v-1h1z" fill="#682E21"/><path d="M22 19a5 5 0 00-4 5 3 3 0 000 1h1v1a10 10 0 000 1h3v0h1v0h1a10 10 0 001 0v-1h1v-1l1-2c0-2-2-4-5-4z" fill="url(#paint2_radial)"/><path d="M20 6c-2 1-4 0-3 3a4 4 0 000 2h1v1h1a4 4 0 000 1v-1a2 2 0 001 0v0h2v-1h1v-1h1V9c0-2-2-4-4-3z" fill="#682E21"/><path d="M17 8a3 3 0 117 0 3 3 0 01-7 0z" fill="url(#paint3_radial)"/><path d="M16 19h-1l-4-2v-2l3-3h1l4 2v2l-3 3z" fill="url(#paint4_radial)"/><path d="M41 7l-2-2h-1V4l-2-1-2 1v1a7 7 0 000 4h4l2-1 1-1z" fill="url(#paint5_radial)"/><path d="M12 20v3l-3 2H7l-2-2v-3l3-2h3l1 2z" fill="url(#paint6_radial)"/><path d="M17 26h-3v1h-4v2l1 2 4 3v-1l3-3 1-2-2-2z" fill="url(#paint7_radial)"/><path d="M30 32h-1l-3-2v-2l1-2h2l2 2v2l-1 2z" fill="url(#paint8_radial)"/><path d="M30 22c0-3 1-4 3-4s4 1 4 4c0 2-2 4-4 4s-3-2-3-4z" fill="url(#paint9_radial)"/><path d="M31 13l-3-1v1l-1-1h-2l-1 1v2a6 6 0 003 3l3-2 1-2v-1z" fill="url(#paint10_radial)"/><path d="M41 15l-2 1-4 1-1-2v-2l1-1h4l1 1 1 2z" fill="url(#paint11_radial)"/><path d="M9 12l-3-1v1l-1-1H3l-1 2v1a7 7 0 003 4l3-3 1-1v-2z" fill="url(#paint12_radial)"/><path d="M15 5c-1-2-3-3-5-3a5 5 0 00-4 5 3 3 0 000 1h1a6 6 0 000 1h3l1 1V9a16 16 0 001 0 1 1 0 001 0V8l1-1V6l1-1z" fill="url(#paint13_radial)"/><g opacity=".4" fill-rule="evenodd" clip-rule="evenodd" fill="#682E21"><path opacity=".4" d="M12 3l-2 1-2 4v1L7 8l1-2 1-3 1-1h2-1L9 5l1-2 2-1h1v1l-1 1 1-1h1v1h-1l-1 1-2 4v1H9V9l1-2 1-2 1-2z"/><path opacity=".4" d="M10 2L9 3 8 5 7 7H6V6l2-3 1-1h1zM14 4l-1 2-1 1v1s-1 0 0 0V7l2-3 1 1-1-1z"/></g><path fill-rule="evenodd" clip-rule="evenodd" d="M9 9l1-2V6a15 15 0 012-3l-2 1-2 4v1H7V8l1-2 1-3 1-1h1L8 5h1l1-2 2-1h1v1h-1v1-1h1l-1 1-2 5H9z" fill="#F83D9A"/><path fill-rule="evenodd" clip-rule="evenodd" d="M10 2H9L7 4 6 6v0l2-3 1-1 1-1v1zM14 4l-1 2-1 1v1l-1-1 3-3h0z" fill="#F83D9A"/><path fill-rule="evenodd" clip-rule="evenodd" d="M21 7l-1 1v1l-1-1h-1l1-1 1-1v1h1z" fill="#682E21"/><path fill-rule="evenodd" clip-rule="evenodd" d="M20 7v1h-2V7h1V6h1v1z" fill="#E65A59"/><g opacity=".4" fill-rule="evenodd" clip-rule="evenodd" fill="#682E21"><path opacity=".4" d="M4 10l1 1h3l1 1v3l-2 2-2 1H4v-1l-1-1-1-2v-2l1-2h1zm-2 3l1 2a5 5 0 002 2h1l1-1 2-2v-1-1H7 5l-1-1-2 1v1z"/><path opacity=".4" d="M8 13v1a6 6 0 01-3 2l-1-1-1-1v-1-1h4l1 1zm-5 0l1 2 1 1 2-1v-2H4 3z"/><path opacity=".4" d="M4 14h2l-1 1-1-1z"/></g><path fill-rule="evenodd" clip-rule="evenodd" d="M4 10l1 1h3l1 1v3l-2 1-2 2-1-1H3v-1l-1-2v-2l1-2h1zm-2 3l1 2a5 5 0 001 2h1l1-1h1l2-3v-1H8l-1-1-1 1H5l-1-1H2v2z" fill="#EADCB9"/><path fill-rule="evenodd" clip-rule="evenodd" d="M8 13l-1 1a6 6 0 01-2 2l-1-1-1-1v-1-1h4l1 1zm-5 0l1 2h1l2-1v-1-1l-2 1-1-1-1 1z" fill="#FF9E3D"/><path fill-rule="evenodd" clip-rule="evenodd" d="M4 14l1-1h1v1H5 4z" fill="#E65A59"/><path opacity=".3" fill-rule="evenodd" clip-rule="evenodd" d="M31 9h-3l-1-1c-2 0-2-2-2-3l3-2h2l1 1v2l-1 1-3-1V5l1-1V3l-2 2v1l1 2 3 1h1zm-2-6h1v2l-2 1V4l-1 1 1 1h3V4h-1l-1-1zm0 1v1h1V4h-1z" fill="#682E21"/><path fill-rule="evenodd" clip-rule="evenodd" d="M29 9h-1l-2-1-1-3c1-1 1-2 3-2l1-1 1 1 1 1v2l-1 1a3 3 0 01-3-1V4l1-1-2 2v2a5 5 0 004 2h-1zm-1-5h-1v2h2l2-1V4l-1-1a2 2 0 00-1 0l1 2-1 1-1-1V4zm1 0v1l1-1h-1z" fill="#EADCB9"/><path fill-rule="evenodd" clip-rule="evenodd" d="M37 10l-1-1h-1-1V8a11 11 0 010-3l1-2h3v2h2v1h1v1l-1 1v1h-1-1l-1 1zm1-2h-3l-1 1h2l3-1h-1zm0-1a227 227 0 00-4 1l4-1zm0 1a6 6 0 011 0h1V7l-3 1h-1 2zm1-2a17 17 0 00-4 1h-1 6V6h-1zm0-1h-1a55 55 0 00-3 1h-1v1h1a20 20 0 015-1l-1-1zm-2 0h-2v1l2-1zm0 0h1-1zm0-1h-2v1l3-1h-1zm0-1l-2 1h3l-1-1z" fill="#FF9E3D"/><g opacity=".4" fill-rule="evenodd" clip-rule="evenodd" fill="#60281F"><path opacity=".4" d="M28 14l-2 1-1 1h-1l1-1 3-2 2-1v1l-2 2 2-1-2 1-2 2h-1l3-3zM24 15v-1l1-1 2-1h1l-1 1-2 1-1 1zM30 16l-1 1-3 1a13 13 0 014-2z"/><path opacity=".4" d="M24 14v-1h1l1-1h1l-2 1-1 1z"/></g><path fill-rule="evenodd" clip-rule="evenodd" d="M28 13l-2 2-1 1h-1l1-1 3-2 2-1-2 2h2c0-1 0 0 0 0l-2 1-2 2h-1v-1l3-3zM24 15v-1l1-1 2-1h1l-1 1-2 1-1 1zM30 15v1h-1l-3 2v-1a13 13 0 014-2z" fill="#F83D9A"/><path fill-rule="evenodd" clip-rule="evenodd" d="M24 14v-1l1-1h2-2l-1 2z" fill="#F83D9A"/><path fill-rule="evenodd" clip-rule="evenodd" d="M41 16v1h-1v1l-1-1a16 16 0 00-4 0l-1 1v-1-1-2-1-1h7v1h-1l1 2v1zm-6 0h5l-1-3h-4v3zm0 0l1 1h4v-1h-5zm0-3h-1v3h1v-1-2zm5 4v-1 1zm-4-5h-1 1zm-1 5s-1 0 0 0zm5-1v-1 1z" fill="#42271F"/><path opacity=".4" fill-rule="evenodd" clip-rule="evenodd" d="M19 16v1l-1 1-1 1v1h-2-1l-1-1-1-1-1-1v-1-1l1-1 1-1v-1h1v-1h1l1 1h1l1 1v1h1l1 1h-1l1 1h-1zm-7 1l2-1a161 161 0 014-1h1l-7 2zm0 0l1 1 1-1 4-1h1-1l-5 1h-1zm0-2l6-1-6 1zm2 4l3-1 1-1h-1l-3 1v1zm3-6l-4 1h-1l5-1zm-1-1l-2 1h-1v1l3-1v-1zm2 5h-1-2l-2 1h1l3-1h1zm-4 2h1v1h1l1-1h-3zm4-5l-2 1h-1-1 4v-1zm-5 1l-2 1h1l1-1zm2-3h-1 1z" fill="#682E21"/><path fill-rule="evenodd" clip-rule="evenodd" d="M15 20l-1-1h-1v-1h-1v-1h-1v-2l1-1v-1h1v-1h1v-1h2a2 2 0 010 1 10 10 0 011 0v1h1l1 1a1 1 0 010 1v1l-1 1v1h-1v1h-1v1h-1zm0-1v0h2v-1h-1l-2 1h1zm3-2h-1a625 625 0 01-3 1v1l2-1h1v-1h1zm-5 1h2l2-1h1l-1-1a145 145 0 01-4 1v1zm6-3h-1-1a307 307 0 00-5 2h2l3-1h2v-1zm0 0l-7 1h-1 1v1l1-1a160 160 0 015-1h1zm-6 0l-2 1h1l1-1h1-1zm5-1a15 15 0 00-3 1h-1a85 85 0 004-1zm0-1l-6 2 6-1v-1zm-1 0l-4 1h-1l4-1h1zm-1-1l-3 1h-1 5l-1-1zm-2 0h1v-1l-1 1v-1 1z" fill="#FF9E3D"/><path opacity=".4" fill-rule="evenodd" clip-rule="evenodd" d="M21 21l-1 1 1 2h3l1-2c0-1-1-2-3-2l-2 1-1 2 3 3h0c-2 0-3-1-3-3v-3l3-1c2 0 3 2 3 4l-1 1c-2 1-3 0-4-1s0-2 1-3h1l2 2v1l-1 1-2-1v-2zm0 0v1l1 1 1-1c1 0 1 0 0 0v1h-1l-1-2z" fill="#60281F"/><path fill-rule="evenodd" clip-rule="evenodd" d="M21 20l-1 1 1 2h3l1-1-3-3-2 2-1 2 3 2 1 1h-1l-3-3v-3l3-1c2 0 3 2 3 3l-1 2c-2 1-3 0-4-1s0-3 1-3h1l2 1v1l-1 1-2-1v-1-1zm0 1v1l1 1 1-1v-1 1h-1l-1-1z" fill="#E65A59"/><path opacity=".4" fill-rule="evenodd" clip-rule="evenodd" d="M14 27v-1h3l1 1v3l-1 1v1h-1v1l-1 1h-1v-1h-1-1v-1l-1-1h-1v-1-1-1-1h1l1-1h1v1h1zm3 0l-1-1h-1l-1 1h-2-1v1h-1v1l1 1c-1 0 0 0 0 0v1h1v1h1v1h2l1-1v-1h1v-1-1l1-1h-1v-1z" fill="#60281F"/><g opacity=".3" fill-rule="evenodd" clip-rule="evenodd" fill="#60281F"><path opacity=".3" d="M29 31l1-1 1-2h1l-2 2-2 3v-1l1-1v-1 1l-2 1a16 16 0 014-5v1l-2 3zM28 27h-1a10 10 0 00-2 3v0l1-2 2-2h1v1l-1 2a24 24 0 00-2 3v-1l1-1 1-3zM32 30l-1 1v1l-1 1v-1l1-1 1-2h1v1h-1z"/></g><path fill-rule="evenodd" clip-rule="evenodd" d="M14 26l1-1h1l1 1 1 1v2l-1 2v1h-1v1h-1v1l-1-1-1-1h-1l-1-1-1-1v-1-1-1l1-1h3zm3 0h-1-1l-1 1h-1-1-1v1h-1v1s1 0 0 0l1 1 1 1v1h2v1h1l1-1v-1h1v-1-1l1-1h-1v-1-1z" fill="#F83D9A"/><path fill-rule="evenodd" clip-rule="evenodd" d="M8 19l1-1h1v2l-1 4v-2-3l-1 3-1 3v-1-4l1-1v-1h1l-1 1zM11 19v5h-1l1-4v-1zM5 24v-1l1-3 1-1-1 3v2H5zM12 21v-1 1z" fill="#42271F"/><g opacity=".4" fill-rule="evenodd" clip-rule="evenodd" fill="#60281F"><path opacity=".4" d="M21 31v1h-1 0v-1h2v1h-1v-1zM18 33s1 0 0 0l1-1v-1 1l-1 1zM20 32h-1 1v-1 1zM23 32v0l1 1h-1v-1h-1 1zM21 33l-1 1v-1h1zM22 31s0 1 0 0zM21 34l1-1v1h-1zM23 32h-1 1v-1 1zM22 33h-1 1v-1 1zM20 33v-1h1l-1 1zM23 32zM23 33v0c0 1 0 0 0 0zM22 34v1l-1-1h1zM23 34h-1v-1l1 1zM20 33v0zM23 31h1v1h-1v-1zM19 32l1 1h-1v-1zM19 33zM23 33h-1 1zM23 31zM24 32h-1 1zM22 34s1 0 0 0zM24 32v-1 1zM19 34c1 0 0 0 0 0zM25 32v1l-1-1h1zM18 34zM21 33zM25 33h-1 1zM22 33zM21 35h-1l1-1v1zM23 31h-1 1zM23 35v-1 1zM25 33v0zM24 34h-1 1zM20 35v0zM22 36zM19 34v0zM24 32v0zM21 35h1-1zM24 34zM23 36v-1 1zM25 34zM22 35c0-1 0 0 0 0zM24 35v-1 1zM20 35v-1 1zM23 36h-1 1zM21 36zM23 35h0zM22 35h0zM20 36h-1v-1h1v1zM19 33zM25 35h-1 1zM18 35v-1 1zM24 33v0zM21 34h-1 1zM22 36v-1 1zM20 32s0 1 0 0zM21 35zM21 33zM21 35v-1 1zM19 34zM20 34z"/></g><path fill-rule="evenodd" clip-rule="evenodd" d="M21 31v1h1-1-1v-1h1v-1 1h1v1l-1-1zM18 32v0h1v-1 1h-1zM20 31v1h-1 1l-1-1h1zM23 32h1-1c0 1 0 1 0 0h-1 1zM21 33h-1 1zM22 31v-1 1zM21 34v-1h1l-1 1zM23 32l-1-1v0h1v1zM22 32v1l-1-1h1c0 1 0 0 0 0zM20 33v-1h1l-1 1zM23 32zM23 33zM22 34h-1 1zM23 33l-1 1v-1h1zM19 33h0zM23 31h1-1zM19 32h1l-1 1v-1zM19 33v-1 1z" fill="#ECF6F5"/><path fill-rule="evenodd" clip-rule="evenodd" d="M23 33h-1l1-1v1zM23 31zM23 32l1-1v1h-1zM22 34zM24 32v-1 1zM19 34v-1 1zM25 32h-1 1zM18 34v-1 1zM21 33v-1 1zM24 33v-1 1zM21 33h0zM21 34l-1 1v-1h1zM23 31h-1l1-1v1zM23 34zM25 33zM24 34h-1 1zM20 35zM21 36h0zM19 34zM24 32zM21 35h1c0-1 0 0 0 0h-1zM24 34v-1 1zM23 35v0zM25 34zM22 34v0zM24 34v0zM20 34zM23 36h-1 1zM21 36v-1 1zM23 35h0zM22 35l1-1v1h-1zM19 35zM19 33zM25 35h-1 1zM18 35v-1 1zM24 33zM21 34h-1 1zM22 35zM20 32zM21 35zM21 33l-1-1h1v1zM21 34zM19 34v-1 1zM20 33v0z" fill="#ECF6F5"/><g opacity=".2" fill-rule="evenodd" clip-rule="evenodd" fill="#60281F"><path opacity=".2" d="M35 19l-4 4 4-2 1-1h1l-1 1-2 2 2-1h1l-1 1-1 1h-1l1-1-2 1v1-1l1-2h-1l-3 2 2-4-2 2v1h-1l2-3 3-1h1z"/><path opacity=".2" d="M32 19l-2 1c0 1 0 1 0 0l2-1zM36 19l-1 1h-1l2-1z"/></g><path fill-rule="evenodd" clip-rule="evenodd" d="M33 24a9 9 0 011-2v-1l-1 1-3 2 2-4h-1l-1 2v1h-1v-1l2-2 3-1a2 2 0 011 0c-2 0-3 1-4 3v1h-1 1a8 8 0 015-3h0l-2 3h-1 2l1-1h1l-1 1-1 1h-1 1v-1l-2 1zM32 19l-2 1 2-1z" fill="#EADCB9"/><path fill-rule="evenodd" clip-rule="evenodd" d="M36 19l-1 1h-1v-1h2z" fill="#EADCB9"/><path fill-rule="evenodd" clip-rule="evenodd" d="M29 31l1-2 1-1h1l-2 2-2 3h-1l1-1v-2s1 0 0 0l-1 2v-1a16 16 0 014-4v1l-2 2v1zM28 27h-1a10 10 0 00-2 3l1-2 2-2h1v1l-1 1a24 24 0 00-2 4v-1l1-2 1-2zM32 29l-1 2-1 1 1-2 1-1h0z" fill="#FF9E3D"/><defs><radialGradient id="paint0_radial" cx="0" cy="0" r="1" gradientUnits="userSpaceOnUse" gradientTransform="matrix(5.08833 0 0 5.13919 28 6)"><stop stop-color="#9E4E35"/><stop offset=".3" stop-color="#984B33"/><stop offset=".7" stop-color="#88432E"/><stop offset="1" stop-color="#783B29"/></radialGradient><radialGradient id="paint1_radial" cx="0" cy="0" r="1" gradientUnits="userSpaceOnUse" gradientTransform="matrix(6.27553 0 0 6.27897 21 34)"><stop stop-color="#9E4E35"/><stop offset=".3" stop-color="#984B33"/><stop offset=".7" stop-color="#88432E"/><stop offset="1" stop-color="#783B29"/></radialGradient><radialGradient id="paint2_radial" cx="0" cy="0" r="1" gradientUnits="userSpaceOnUse" gradientTransform="matrix(6.12227 0 0 6.25458 22 22)"><stop stop-color="#9E4E35"/><stop offset=".3" stop-color="#984B33"/><stop offset=".7" stop-color="#88432E"/><stop offset="1" stop-color="#783B29"/></radialGradient><radialGradient id="paint3_radial" cx="0" cy="0" r="1" gradientUnits="userSpaceOnUse" gradientTransform="translate(20 7) scale(4.88444)"><stop stop-color="#9E4E35"/><stop offset=".3" stop-color="#984B33"/><stop offset=".7" stop-color="#88432E"/><stop offset="1" stop-color="#783B29"/></radialGradient><radialGradient id="paint4_radial" cx="0" cy="0" r="1" gradientUnits="userSpaceOnUse" gradientTransform="matrix(5.83344 0 0 5.18427 15 14)"><stop stop-color="#914930"/><stop offset=".3" stop-color="#8B462E"/><stop offset=".7" stop-color="#7B3E29"/><stop offset="1" stop-color="#6B3624"/></radialGradient><radialGradient id="paint5_radial" cx="0" cy="0" r="1" gradientUnits="userSpaceOnUse" gradientTransform="matrix(5.93796 0 0 5.94214 36 5)"><stop stop-color="#914930"/><stop offset=".3" stop-color="#8B462E"/><stop offset=".7" stop-color="#7B3E29"/><stop offset="1" stop-color="#6B3624"/></radialGradient><radialGradient id="paint6_radial" cx="0" cy="0" r="1" gradientUnits="userSpaceOnUse" gradientTransform="matrix(6.16201 0 0 6.26511 8 21)"><stop stop-color="#9E4E35"/><stop offset=".3" stop-color="#984B33"/><stop offset=".7" stop-color="#88432E"/><stop offset="1" stop-color="#783B29"/></radialGradient><radialGradient id="paint7_radial" cx="0" cy="0" r="1" gradientUnits="userSpaceOnUse" gradientTransform="matrix(6.84909 0 0 6.2213 14 28)"><stop stop-color="#9E4E35"/><stop offset=".3" stop-color="#984B33"/><stop offset=".7" stop-color="#88432E"/><stop offset="1" stop-color="#783B29"/></radialGradient><radialGradient id="paint8_radial" cx="0" cy="0" r="1" gradientUnits="userSpaceOnUse" gradientTransform="matrix(4.55115 0 0 5.59841 28 28)"><stop stop-color="#9E4E35"/><stop offset=".3" stop-color="#984B33"/><stop offset=".7" stop-color="#88432E"/><stop offset="1" stop-color="#783B29"/></radialGradient><radialGradient id="paint9_radial" cx="0" cy="0" r="1" gradientUnits="userSpaceOnUse" gradientTransform="matrix(5.94903 0 0 6.79889 33 21)"><stop stop-color="#9E4E35"/><stop offset=".3" stop-color="#984B33"/><stop offset=".7" stop-color="#88432E"/><stop offset="1" stop-color="#783B29"/></radialGradient><radialGradient id="paint10_radial" cx="0" cy="0" r="1" gradientUnits="userSpaceOnUse" gradientTransform="matrix(5.73997 0 0 4.40018 27 14)"><stop stop-color="#9E4E35"/><stop offset=".3" stop-color="#984B33"/><stop offset=".7" stop-color="#88432E"/><stop offset="1" stop-color="#783B29"/></radialGradient><radialGradient id="paint11_radial" cx="0" cy="0" r="1" gradientUnits="userSpaceOnUse" gradientTransform="matrix(5.24796 0 0 4.52932 37 13)"><stop stop-color="#9E4E35"/><stop offset=".3" stop-color="#984B33"/><stop offset=".7" stop-color="#88432E"/><stop offset="1" stop-color="#783B29"/></radialGradient><radialGradient id="paint12_radial" cx="0" cy="0" r="1" gradientUnits="userSpaceOnUse" gradientTransform="matrix(6.70537 0 0 6.01641 5 13)"><stop stop-color="#9E4E35"/><stop offset=".3" stop-color="#984B33"/><stop offset=".7" stop-color="#88432E"/><stop offset="1" stop-color="#783B29"/></radialGradient><radialGradient id="paint13_radial" cx="0" cy="0" r="1" gradientUnits="userSpaceOnUse" gradientTransform="matrix(7.88188 0 0 8.16443 10 3)"><stop stop-color="#9E4E35"/><stop offset=".3" stop-color="#984B33"/><stop offset=".7" stop-color="#88432E"/><stop offset="1" stop-color="#783B29"/></radialGradient></defs></svg>