<svg viewBox="0 0 1920 84" preserveAspectRatio="none" fill="none" xmlns="http://www.w3.org/2000/svg">
<g filter="url(#filter0_d)">
<path d="M1920 56.7565V0H0V67.5C2.14 70.68 5.55 73.7101 11 75.1401C19.53 77.3801 29.78 73.4701 32.74 65.1601C35.48 57.4601 33.51 47.4101 32.37 39.3101C30.32 24.7501 36.98 18.2601 45.14 18.7501C55.42 19.3701 57.41 25.9101 57.49 40.6601C57.6 62.0401 69.14 65.5801 77.22 59.8601C84.69 54.5701 83.95 44.3301 83.9 39.3701C83.76 25.4701 82.99 18.3801 90.27 12.0001C97.22 5.92011 110.82 7.04012 114.68 15.7901C116.91 20.8301 117.894 24.5172 122.41 27.7801C130.542 33.6564 137.97 30.09 148 25.5C157.832 21.0005 230.137 8.52599 411.173 1.89292C414.813 1.75953 418.498 1.62851 422.226 1.49997C448.771 0.584855 474.451 0.50106 498.5 1.49992L498.501 1.49997C501.218 1.61283 503.916 1.73565 506.595 1.86807C669.22 9.90611 762.443 53.3463 927.5 56.7565C1122.33 60.7819 1225.99 6.81321 1419.16 1.6304C1420.93 1.58281 1422.71 1.53933 1424.5 1.50004L1424.5 1.49997C1438.04 1.20274 1452.11 1.21676 1466.56 1.49997C1468.34 1.53482 1470.12 1.57374 1471.91 1.61666C1549.65 3.4809 1621.83 42.0602 1715.5 23.4158C1738.38 18.8621 1750.61 1.70336 1773.14 7.75011C1783.64 10.5692 1785 26.5 1797.59 21.0801C1802.71 18.8772 1803.09 14.1301 1805.32 9.09011C1809.18 0.340105 1822.55 3.01011 1829.5 9.09011C1836.78 15.4701 1836.24 18.7701 1836.1 32.6701C1836.05 37.6301 1835.31 47.8701 1842.78 53.1601C1850.86 58.8801 1862.4 55.3401 1862.51 33.9601C1862.59 19.2101 1864.58 12.6701 1874.86 12.0501C1883.02 11.5601 1889.68 18.0501 1887.63 32.6101C1886.49 40.7101 1884.52 50.7601 1887.26 58.4601C1890.22 66.7701 1900.47 70.6801 1909 68.4401C1914.45 67.0101 1917.86 64.4601 1920 61.2801V56.7565Z" fill="url(#paint0_linear)"/>
</g>
<defs>
<filter id="filter0_d" x="-3" y="0" width="1928" height="83.763" filterUnits="userSpaceOnUse" color-interpolation-filters="sRGB">
<feFlood flood-opacity="0" result="BackgroundImageFix"/>
<feColorMatrix in="SourceAlpha" type="matrix" values="0 0 0 0 0 0 0 0 0 0 0 0 0 0 0 0 0 0 127 0"/>
<feOffset dx="1" dy="4"/>
<feGaussianBlur stdDeviation="2"/>
<feColorMatrix type="matrix" values="0 0 0 0 0 0 0 0 0 0 0 0 0 0 0 0 0 0 0.09 0"/>
<feBlend mode="normal" in2="BackgroundImageFix" result="effect1_dropShadow"/>
<feBlend mode="normal" in="SourceGraphic" in2="effect1_dropShadow" result="shape"/>
</filter>
<linearGradient id="paint0_linear" x1="2017.5" y1="14.9064" x2="21.5008" y2="16.4833" gradientUnits="userSpaceOnUse">
<stop stop-color="#F9F3EE"/>
<stop offset="0.907011" stop-color="#F2EBE4"/>
</linearGradient>
</defs>
</svg>
