<svg viewBox="0 0 34 30" fill="none" xmlns="http://www.w3.org/2000/svg">
<path d="M32.6776 6.1479C32.158 4.94483 31.4088 3.85462 30.4719 2.93829C29.5344 2.01924 28.4289 1.28887 27.2158 0.786925C25.9578 0.264367 24.6086 -0.003108 23.2464 2.72463e-05C21.3354 2.72463e-05 19.4709 0.523333 17.8506 1.5118C17.4629 1.74826 17.0947 2.00797 16.7458 2.29095C16.3969 2.00797 16.0287 1.74826 15.641 1.5118C14.0207 0.523333 12.1562 2.72463e-05 10.2452 2.72463e-05C8.86907 2.72463e-05 7.53561 0.263619 6.2758 0.786925C5.05862 1.29085 3.96162 2.01572 3.01967 2.93829C2.08158 3.85358 1.33221 4.94406 0.814032 6.1479C0.27522 7.39996 0 8.72955 0 10.0979C0 11.3887 0.263591 12.7338 0.786897 14.1022C1.22492 15.2457 1.85289 16.4318 2.65529 17.6296C3.92673 19.5252 5.67496 21.5021 7.84571 23.5062C11.443 26.8282 15.0053 29.123 15.1565 29.216L16.0752 29.8052C16.4822 30.0649 17.0055 30.0649 17.4125 29.8052L18.3312 29.216C18.4824 29.1191 22.0409 26.8282 25.642 23.5062C27.8127 21.5021 29.561 19.5252 30.8324 17.6296C31.6348 16.4318 32.2667 15.2457 32.7008 14.1022C33.2241 12.7338 33.4877 11.3887 33.4877 10.0979C33.4916 8.72955 33.2164 7.39996 32.6776 6.1479V6.1479ZM16.7458 26.739C16.7458 26.739 2.94602 17.8971 2.94602 10.0979C2.94602 6.1479 6.21377 2.94605 10.2452 2.94605C13.0788 2.94605 15.5364 4.52759 16.7458 6.83789C17.9552 4.52759 20.4128 2.94605 23.2464 2.94605C27.2778 2.94605 30.5456 6.1479 30.5456 10.0979C30.5456 17.8971 16.7458 26.739 16.7458 26.739Z" fill="#877f7d7d"/>
</svg>
