<svg width="500" height="500" viewBox="0 0 500 500" fill="none" xmlns="http://www.w3.org/2000/svg">
<path d="M25.1031 0L0 25.1364L44.222 101.714L72.9004 97.5018L247.953 272.806L233.021 287.164C225.374 294.822 225.374 306.423 233.021 314.081L240.783 321.873C248.431 329.53 260.132 329.53 265.868 321.873L288.581 344.597C286.669 356.083 288.581 369.733 298.14 379.305L401.497 482.206C422.528 503.265 456.942 503.265 477.973 482.206C502.827 459.233 502.598 424.888 481.567 403.829L378.803 300.316C369.243 290.744 355.612 286.915 344.14 290.744L319.037 268.02C324.773 260.362 324.773 248.646 319.037 242.883L311.868 235.723C310.13 233.909 308.043 232.464 305.733 231.478C303.423 230.491 300.938 229.983 298.427 229.983C295.916 229.983 293.431 230.491 291.121 231.478C288.811 232.464 286.724 233.909 284.986 235.723L272.444 248.282L97.3917 72.9971L101.56 44.2807L25.084 0L25.1031 0ZM397.922 0.593472C360.2 -2.54619 310.185 22.4945 286.784 44.2616C257.991 73.0928 262.694 110.788 285.579 147.181L244.971 187.863L273.649 220.159C288.944 206.758 311.504 206.758 326.799 220.159L334.581 227.932L336.378 229.731L353.107 212.98C387.674 233.33 423.656 236.259 451.091 208.787C477.858 183.9 506.88 122.523 493.497 86.1492L439.735 141.782C432.087 149.44 420.501 149.44 412.854 141.782L357.275 86.1492C355.463 84.4089 354.02 82.3195 353.035 80.0066C352.05 77.6938 351.542 75.2053 351.542 72.6908C351.542 70.1763 352.05 67.6879 353.035 65.375C354.02 63.0622 355.463 60.9727 357.275 59.2324L412.873 3.59912C408.093 1.91443 403.313 1.05294 397.922 0.593472ZM187.614 239.303L118.289 308.701C110.839 307.044 103.225 306.241 95.5945 306.308C42.0616 306.308 0 348.426 0 402.03C0 455.634 42.0616 497.751 95.5945 497.751C149.127 497.751 191.189 455.634 191.189 402.03C191.189 392.209 189.64 382.771 187.002 373.907L227.63 333.225L221.665 325.453C206.369 310.137 206.484 286.934 219.867 271.6L187.595 239.303H187.614ZM335.785 326.659C338.175 326.659 340.431 327.118 342.343 329.052L455.279 442.118C459.102 445.947 459.102 452.035 455.279 455.863C451.455 459.692 445.337 459.692 441.513 455.863L328.616 342.797C324.792 338.969 324.792 332.881 328.616 329.052C330.528 327.137 333.395 326.659 335.785 326.659ZM108.748 352.35L145.189 388.858L132.035 438.5L82.4598 451.671L46.0001 415.163L59.1539 365.522L108.748 352.35V352.35Z" fill="url(#paint0_linear)"/>
<defs>
<linearGradient id="paint0_linear" x1="248.5" y1="0" x2="248.5" y2="500" gradientUnits="userSpaceOnUse">
<stop stop-color="#FFC2A8"/>
<stop offset="1" stop-color="#FFC2A8" stop-opacity="0.49"/>
</linearGradient>
</defs>
</svg>
