<svg width="310" height="188" viewBox="0 0 310 188" fill="none" xmlns="http://www.w3.org/2000/svg">
<path d="M246.425 4.36412C244.663 2.12125 241.671 0.930496 238.886 2.5078C237.186 3.47447 236.327 5.68295 236.616 7.61021C234.523 6.25061 231.308 6.83214 230.658 9.86864C229.501 15.2902 236.261 19.4143 240.748 21.0605C238.153 22.6359 236.657 25.1207 236.491 28.5925C236.142 35.8562 237.829 43.7101 238.829 50.8807C240.077 59.7989 241.603 68.6743 243.41 77.4871C244.576 83.216 245.092 90.9913 249.961 94.9639C247.897 99.7143 241.514 106.567 246.611 111.387C248.388 113.06 252.104 112.674 253.155 110.713C253.389 111.101 253.652 111.449 253.935 111.736C255.117 112.964 256.884 113.637 258.57 113.261C260.795 112.769 262.353 110.434 262.331 108.214C264.288 109.955 267.121 110.247 269.023 107.408C272.512 102.174 266.423 96.143 262.846 92.3378C266.354 90.1334 268.519 86.482 268.222 80.7247C267.841 73.418 266.119 66.0446 264.998 58.8152C264.55 55.9694 264.112 53.1335 263.665 50.2878C263.683 50.1476 263.662 49.9978 263.601 49.8784C262.8 44.746 262 39.6136 261.2 34.4812C260.698 31.2459 260.379 27.2888 258.898 24.0831C258.886 23.9232 258.815 23.764 258.694 23.6551C258.113 22.5108 257.373 21.478 256.394 20.6275C254.982 19.4012 253.237 18.8482 251.385 18.6963C254.612 14.2546 258.507 5.55612 253.394 1.19591C250.106 -1.64207 246.962 1.03871 246.425 4.36412ZM266.09 98.8864C267.43 100.923 269.922 105.199 266.841 107.159C263.988 108.977 262.598 105.891 261.424 104.422C261.069 103.976 260.223 104.304 260.368 104.893C260.41 105.062 260.472 105.232 260.523 105.391C260.474 105.482 260.455 105.592 260.516 105.721C261.456 107.772 260.888 110.988 258.344 111.643C257.087 111.965 255.781 111.338 254.932 110.426C254.033 109.465 254.063 108.464 253.741 107.288C253.638 106.909 253.105 106.674 252.849 107.076C252.485 107.64 252.411 108.291 252.508 108.95C251.497 110.98 249.016 111.914 247.256 109.841C245.526 107.808 246.436 104.759 247.466 102.689C248.673 100.267 250.322 98.1705 251.308 95.6708C251.597 95.6279 251.855 95.4354 252.003 95.194C254.372 95.0908 256.639 94.7686 258.693 94.1685C258.59 96.8496 260.086 100.535 262.812 101.169C263.313 101.284 263.547 100.621 263.293 100.284C262.533 99.2512 261.457 98.5817 260.785 97.4382C260.124 96.3046 259.843 95.1173 259.72 93.8484C260.567 93.5501 261.374 93.2022 262.12 92.7949C263.39 94.8426 264.74 96.8495 266.09 98.8864ZM266.993 79.7767C266.942 79.6372 266.821 79.5283 266.611 79.5304C259.299 79.3719 252.683 84.9368 249.403 91.0592C249.157 91.5216 249.941 91.9439 250.207 91.5013C254.023 84.9937 259.668 82.3884 266.64 80.5002C266.84 80.4482 266.968 80.2669 267.016 80.0765C267.079 81.4559 267.053 82.8262 266.896 84.1578C266.462 87.8322 264.624 90.0903 262.128 91.5448C261.886 91.3371 261.448 91.5614 261.561 91.8703C258.745 93.308 255.2 93.8126 251.882 94.1151C251.842 94.0855 251.822 94.0456 251.782 94.016C248.026 91.4726 246.543 86.0269 245.632 80.7655C245.711 80.7248 245.781 80.6641 245.81 80.5538C247.048 76.2315 249.321 72.5291 252.813 69.6348C256.484 66.5988 260.178 65.9626 264.546 64.6999C265.312 69.4826 266.724 74.7391 266.993 79.7767ZM264.345 63.6318C255.624 62.517 247.487 71.0969 245.325 79.0085C244.962 76.6919 244.68 74.4746 244.322 72.638C243.869 70.2923 243.436 67.9464 243.023 65.6003C243.193 65.5987 243.353 65.5171 243.451 65.3161C247.159 56.9195 253.739 52.8249 262.312 51.011C262.993 55.2146 263.674 59.4181 264.345 63.6318ZM261.14 43.7322C261.459 45.6891 261.769 47.6462 262.088 49.6032C253.549 49.7767 245.615 56.5146 242.811 64.3624C242.122 60.3989 241.484 56.425 240.915 52.4404C240.797 51.6215 240.679 50.8026 240.561 49.9837C242.362 46.0159 245.154 43.2084 249.066 41.2801C252.569 39.5557 256.465 39.1476 260.01 37.6229C260.409 37.449 260.352 36.7195 259.872 36.7242C252.492 36.8164 243.333 41.0062 240.293 48.1662C239.714 44.2217 239.175 40.2468 238.786 36.2704C242.725 28.9415 249.482 25.6053 257.386 24.858C260.079 30.3619 260.182 37.7513 261.14 43.7322ZM256.491 23.3867C249.071 23.3693 242.197 28.1767 238.63 34.5519C238.517 33.2629 238.424 31.9737 238.362 30.6943C238.109 25.2665 240.889 22.1991 245.979 21.1293C249.921 20.2807 253.979 20.0711 256.491 23.3867ZM253.543 4.10454C254.228 5.70792 254.215 7.41815 254.031 9.11003C253.693 12.3335 252.447 15.8458 250.755 18.6525C249.704 18.6228 248.645 18.7231 247.597 18.8834C247.447 16.8648 248.42 15.1552 249.867 13.741C250.144 13.4682 249.878 12.9008 249.48 13.1147C247.391 14.2352 246.536 16.7437 246.848 19.0107C246.509 19.0741 246.169 19.1373 245.84 19.2206C245.955 16.6593 244.115 13.5772 241.306 13.6947C240.886 13.7088 240.922 14.2885 241.223 14.4355C243.353 15.4348 245.157 16.8871 245.012 19.4187C244.543 19.5433 244.074 19.6679 243.636 19.8022C243.267 19.9158 242.918 20.0492 242.579 20.1925C242.498 20.0833 242.397 19.9843 242.227 19.926C239.156 18.856 235.921 17.3175 233.796 14.7682C232.804 13.5778 231.959 12.046 232.164 10.4639C232.563 7.32986 236.566 7.62071 237.433 10.3124C237.556 10.7112 238.116 10.6257 238.283 10.3241C238.484 10.4521 238.695 10.5601 238.926 10.6578C239.649 10.9408 240.229 9.905 239.584 9.45128C237.449 7.95209 237.556 4.52092 240.197 3.56505C243.376 2.4239 246.232 5.12607 246.861 8.07005C246.914 8.32956 247.095 8.46779 247.295 8.49583C247.397 8.64485 247.498 8.78389 247.619 8.92271C248.075 9.46829 249.039 8.91881 248.703 8.25206C248.235 7.4366 247.896 6.55986 247.677 5.64195C250.57 1.83348 252.525 1.32436 253.543 4.10454Z" fill="#643205" fill-opacity="0.09"/>
<path d="M142.683 111.59C144.191 108.295 144.41 104.153 140.623 102.41C136.705 100.618 133.089 103.003 130.96 106.224C128.781 101.205 123.179 99.04 119.183 104.509C114.041 111.56 119.134 119.971 124.039 125.603C115.427 124.367 106.306 128.486 102.145 136.518C97.9536 144.609 100.185 153.958 106.43 159.577C102.54 160.595 99.0586 162.499 96.0859 165.308C93.9061 167.38 91.145 170.357 91.2169 173.616C91.3839 180.475 97.4014 178.136 101.494 175.306C99.9047 178.461 99.0464 182.73 102.504 184.516C105.881 186.253 109.065 183.582 110.766 180.605C110.918 182.824 111.529 184.968 113.334 186.491C115.29 188.142 117.912 188.286 120.017 186.815C126.662 182.19 121.413 170.981 118.645 165.128C126.617 166.31 136.301 161.575 139.887 154.969C144.583 146.333 141.31 135.785 133.992 129.916C138.206 128.325 142.577 126.262 146.384 123.944C149.367 122.135 152.219 119.287 151.902 115.49C151.523 110.474 146.344 109.614 142.683 111.59ZM121.343 178.222C121.539 179.82 121.542 181.14 120.937 182.656C119.873 185.327 118.81 186.117 116.012 185.284C113.445 184.529 113.181 184.192 112.438 181.789C112.045 180.513 111.924 179.324 111.831 178.025C111.831 178.005 111.831 177.985 111.83 177.965C111.819 177.805 111.807 177.655 111.796 177.495C111.76 176.915 110.8 176.925 110.776 177.505C110.777 177.585 110.767 177.665 110.768 177.745C109.142 180.141 107.316 184.669 103.553 183.366C99.7599 182.063 101.878 176.762 103.221 173.999C103.717 173.584 104.153 173.19 104.48 172.836C104.995 172.291 104.138 171.62 103.592 171.985C101.664 173.284 99.4843 175.355 97.2409 176.037C90.8296 177.99 93.589 170.753 95.4178 168.575C98.6306 164.753 102.836 162.192 107.449 160.427C108.346 161.128 109.322 161.739 110.357 162.279C109.764 163.034 109.272 163.839 108.428 164.447C107.207 165.329 105.791 165.763 104.291 165.788C103.811 165.793 103.819 166.593 104.299 166.628C106.811 166.833 110.649 165.536 111.593 162.866C111.944 163.023 112.286 163.17 112.647 163.306C111.711 165.785 112.251 168.86 113.732 170.976C114.016 171.383 114.682 170.977 114.478 170.529C113.334 168.07 113.374 166.039 114 163.593C114.895 164.084 115.849 164.465 116.841 164.735C116.852 164.785 116.852 164.825 116.873 164.865C118.724 169.057 120.779 173.677 121.343 178.222ZM113.759 161.465C113.387 161.239 113.018 161.302 112.75 161.515C112.257 161.24 111.734 160.985 111.252 160.73C110.347 160.259 109.443 159.797 108.548 159.326C108.508 159.286 108.477 159.247 108.437 159.227C107.136 158.12 106.004 156.861 105.05 155.49C109.31 153.358 114.032 152.532 118.733 153.626C123.684 154.778 126.813 157.697 130.158 161.205C124.833 163.807 118.388 164.36 113.759 161.465ZM131.352 160.603C126.238 151.063 113.173 149.59 104.431 154.546C103.202 152.558 102.36 150.366 101.978 148.09C101.988 148.08 101.998 148.08 102.008 148.079C108.18 144.209 115.414 142.568 122.544 144.558C129.113 146.394 132.994 150.627 137.105 155.747C135.613 157.671 133.619 159.331 131.352 160.603ZM139.91 142.989C136.96 137.847 131.802 134.047 125.998 132.654C117.939 130.723 109.773 134.253 103.46 139.105C103.123 139.358 103.458 139.945 103.846 139.751C110.663 136.314 117.556 132.447 125.464 134.279C132.38 135.882 137.398 140.743 140.111 147.167C140.131 147.207 140.151 147.226 140.172 147.256C140.06 149.137 139.639 151.032 138.836 152.86C138.592 153.422 138.287 153.965 137.952 154.498C131.722 141.229 112.918 138.872 101.786 146.842C101.451 143.325 102.205 139.647 104.332 136.216C109.54 127.805 120.821 124.824 129.565 129.289C134.943 132.037 138.824 137.239 139.91 142.989ZM150.183 116.697C150.13 120.488 145.35 122.474 142.683 123.811C139.319 125.504 135.823 126.948 132.592 128.89C131.917 128.436 131.223 128.003 130.489 127.63C130.097 127.434 129.705 127.248 129.314 127.081C129.443 127.02 129.552 126.919 129.591 126.749C130.476 123.23 130.022 118.694 127.564 115.858C127.18 115.412 126.404 115.839 126.649 116.407C128.183 119.892 129.191 122.732 128.649 126.628C128.64 126.698 128.641 126.768 128.661 126.828C127.698 126.457 126.725 126.157 125.732 125.926C125.722 125.917 125.722 125.896 125.712 125.887C122.903 121.914 119.513 117.827 118.994 112.802C118.707 110.034 119.258 106.139 121.721 104.365C126.835 100.674 128.469 105.069 129.947 108.014C129.908 108.095 129.869 108.165 129.84 108.245C129.595 108.818 130.36 109.34 130.787 108.996C131.228 109.092 131.726 108.837 131.6 108.278C131.569 108.158 131.538 108.039 131.517 107.919C133.241 105.312 135.757 102.787 139.157 103.804C143.891 105.218 141.218 110.034 139.957 112.977C139.595 113.81 140.741 114.469 141.325 113.843C141.455 113.862 141.605 113.831 141.754 113.709C144.393 111.623 150.271 110.326 150.183 116.697Z" fill="#643205" fill-opacity="0.09"/>
<path d="M136.39 120.542C134.901 120.637 133.477 122.241 132.628 123.369C131.759 124.537 130.824 126.107 130.999 127.615C131.021 127.805 131.282 127.862 131.39 127.711C132.239 126.573 132.666 125.189 133.615 124.089C134.554 123 135.998 122.396 136.848 121.298C137.114 120.965 136.78 120.518 136.39 120.542Z" fill="#643205" fill-opacity="0.09"/>
<path d="M95.0964 21.7889C92.6402 19.1228 88.9025 17.3292 85.8299 20.1494C82.6583 23.0706 83.47 27.3329 85.6214 30.532C80.1519 30.6055 75.984 34.9364 79.4909 40.7324C84.0041 48.1986 93.7304 46.7534 100.828 44.3939C96.3605 51.8679 96.6383 61.8657 102.446 68.7992C108.295 75.7824 117.781 77.3497 125.376 73.7553C124.815 77.731 125.223 81.6772 126.671 85.5132C127.739 88.3229 129.415 92.0167 132.457 93.207C138.841 95.7047 139.008 89.2427 137.991 84.3824C140.287 87.0701 143.891 89.505 146.877 87.0057C149.783 84.5672 148.554 80.599 146.457 77.8694C148.564 78.5788 150.777 78.8472 152.887 77.7665C155.165 76.6042 156.302 74.243 155.768 71.7181C154.06 63.8044 141.705 64.3152 135.237 64.6084C139.4 57.7074 138.785 46.9529 134.067 41.0888C127.912 33.4286 116.921 32.366 108.684 36.8567C108.84 32.355 108.623 27.5269 107.96 23.1232C107.446 19.678 105.92 15.9428 102.298 14.7682C97.4726 13.2053 94.6858 17.6427 95.0964 21.7889ZM148.323 67.2007C149.878 67.6355 151.093 68.1436 152.264 69.2922C154.324 71.3021 154.626 72.5893 152.788 74.8473C151.098 76.924 150.69 77.0379 148.187 76.7924C146.866 76.6653 145.712 76.3166 144.488 75.8985C144.468 75.8887 144.458 75.8888 144.438 75.879C144.287 75.8305 144.147 75.7819 143.986 75.7234C143.444 75.5287 143.073 76.4224 143.596 76.6673C143.666 76.6966 143.736 76.7359 143.817 76.7651C145.39 79.1898 148.874 82.6159 146.213 85.6021C143.542 88.5984 139.473 84.588 137.45 82.2876C137.254 81.6695 137.059 81.1114 136.864 80.6733C136.568 79.9862 135.603 80.5256 135.729 81.1644C136.181 83.4401 137.259 86.2497 137.022 88.5821C136.347 95.2491 130.734 89.9137 129.429 87.3763C127.146 82.9384 126.398 78.0655 126.56 73.1337C127.555 72.574 128.488 71.9148 129.391 71.1659C129.869 72.0013 130.407 72.766 130.647 73.7837C130.991 75.2504 130.845 76.722 130.289 78.1175C130.113 78.5692 130.846 78.862 131.072 78.4398C132.24 76.1983 132.511 72.1655 130.422 70.2658C130.7 70.0031 130.977 69.7403 131.234 69.4578C133.152 71.2791 136.199 71.9694 138.724 71.4147C139.213 71.3099 139.095 70.531 138.596 70.5559C135.886 70.6624 134.028 69.8405 132.013 68.3201C132.817 67.6822 133.53 66.9452 134.162 66.139C134.212 66.1485 134.242 66.1682 134.292 66.1677C138.862 66.073 143.911 65.9638 148.323 67.2007ZM129.937 67.7204C129.58 67.9739 129.503 68.3447 129.597 68.6738C129.15 69.0182 128.714 69.4025 128.297 69.7466C127.513 70.3943 126.74 71.0518 125.966 71.6994C125.916 71.7199 125.866 71.7304 125.837 71.7707C124.314 72.5456 122.709 73.1013 121.083 73.4473C120.756 68.6902 121.821 64.0196 124.652 60.1017C127.632 55.9824 131.526 54.2243 136.059 52.4899C136.377 58.417 134.397 64.5766 129.937 67.7204ZM135.936 51.1709C125.155 52.2064 118.757 63.6896 119.955 73.6683C117.648 74.0309 115.308 73.9638 113.052 73.4458C113.052 73.4358 113.052 73.4258 113.052 73.4158C111.872 66.227 113.14 58.9242 117.734 53.1091C121.962 47.7575 127.363 45.8145 133.676 43.9927C134.876 46.1011 135.64 48.5737 135.936 51.1709ZM122.991 36.4668C117.108 37.2044 111.61 40.4983 108.087 45.313C103.192 52.0012 103.299 60.8905 105.334 68.591C105.438 69 106.118 68.9134 106.083 68.4837C105.549 60.8686 104.642 53.017 109.378 46.4304C113.522 40.6696 119.955 37.9166 126.925 37.8884C126.965 37.888 126.995 37.8677 127.025 37.8674C128.713 38.7009 130.305 39.8155 131.679 41.2621C132.103 41.708 132.488 42.1943 132.853 42.7107C118.208 43.334 108.778 59.7669 111.829 73.1177C108.449 72.0707 105.358 69.9508 103.006 66.6637C97.2565 58.6095 98.8637 47.0633 106.352 40.7198C110.964 36.8245 117.269 35.2527 122.991 36.4668ZM102.698 16.8443C106.173 18.3504 106.164 23.5307 106.373 26.5088C106.64 30.2664 106.617 34.0468 107.163 37.7717C106.488 38.2183 105.822 38.6948 105.197 39.2209C104.86 39.5042 104.543 39.7974 104.236 40.0904C104.234 39.9504 104.173 39.8109 104.032 39.7023C101.13 37.5206 96.7673 36.1932 93.2086 37.368C92.6504 37.5535 92.739 38.4327 93.3589 38.4167C97.1683 38.3394 100.18 38.52 103.56 40.517C103.62 40.5564 103.68 40.5758 103.741 40.5853C103.028 41.3323 102.375 42.1087 101.783 42.9345C101.773 42.9346 101.753 42.9348 101.743 42.9349C96.9936 43.9914 91.9185 45.5411 87.0839 44.0783C84.4259 43.2742 81.0361 41.2573 80.3471 38.3039C78.917 32.1576 83.5991 32.3518 86.887 32.1196C86.9476 32.179 86.9983 32.2486 87.0588 32.308C87.4932 32.7537 88.2684 32.2562 88.1232 31.7276C88.3796 31.3551 88.3342 30.8054 87.7732 30.7009C87.653 30.6821 87.5328 30.6632 87.4026 30.6445C85.6671 28.0414 84.3048 24.7445 86.5581 22.0024C89.6908 18.1815 93.1033 22.5084 95.3259 24.8067C95.9623 25.4606 97.0045 24.6604 96.6468 23.8738C96.7157 23.7531 96.7443 23.6128 96.6925 23.4333C95.7911 20.222 96.8634 14.3112 102.698 16.8443Z" fill="#643205" fill-opacity="0.09"/>
<path d="M100.927 31.0523C100.441 32.4671 101.37 34.3981 102.082 35.6112C102.824 36.864 103.919 38.3334 105.373 38.7492C105.553 38.7974 105.711 38.5859 105.62 38.4268C104.898 37.2038 103.789 36.2846 103.136 34.9809C102.493 33.6971 102.488 32.1271 101.806 30.9237C101.592 30.5458 101.054 30.681 100.927 31.0523Z" fill="#643205" fill-opacity="0.09"/>
<path d="M253.283 128.375C253.164 128.406 253.074 128.477 253.005 128.547C247.607 128.74 242.143 130.434 237.945 133.765C232.2 138.331 230.369 145.379 230.538 152.448C230.696 159.397 232.268 166.842 237.269 171.973C241.865 176.678 248.52 179.164 255.042 179.33C270.866 179.735 284.893 167.087 284.175 150.894C283.472 135.29 268.451 124.006 253.283 128.375ZM279.593 140.478C284.724 149.788 282.794 162.078 275.367 169.581C268.207 176.811 256.854 179.512 247.24 176.156C236.272 172.323 232.1 161.923 232.263 150.961C232.458 138.149 242.088 129.984 254.732 130.28C266.335 130.557 275.422 139.419 275.327 151.2C275.244 162.111 267.383 172.229 256.025 172.52C244.097 172.826 234.215 160.393 237.971 148.705C242.416 134.881 262.202 136.348 265.754 149.894C267.686 157.265 262.307 166.608 253.722 164.082C249.811 162.93 246.992 158.908 247.232 154.825C247.378 152.383 248.438 150.353 250.314 148.885C253.658 146.282 259.079 147.399 259.852 151.781C259.798 152.402 259.914 153.011 259.89 153.621C259.881 153.671 259.891 153.711 259.882 153.751C259.864 153.961 259.836 154.162 259.768 154.382C259.467 155.335 258.775 156.092 257.797 156.352C255.942 156.85 254.191 154.787 255.455 153.135C255.88 152.58 255.224 151.927 254.678 152.372C253.626 153.222 253.401 154.695 253.883 155.92C254.436 157.325 255.824 158.111 257.314 158.047C258.853 157.972 260.264 157.088 260.981 155.711C261.56 154.585 261.843 152.862 261.221 151.678C260.695 147.933 257.216 144.987 253.082 145.687C248.15 146.516 245.181 151.655 245.687 156.37C246.315 162.284 251.667 166.642 257.581 166.004C263.655 165.345 267.512 159.917 267.815 154.064C268.461 141.377 254.218 132.966 243.472 139.581C231.584 146.908 234.242 165.112 245.646 171.641C257.724 178.544 272.159 170.812 275.976 158.224C279.997 144.964 272.06 131.021 258.318 128.845C266.835 128.482 275.357 132.809 279.593 140.478Z" fill="#643205" fill-opacity="0.09"/>
<path d="M201.95 4.06523C196.917 6.84457 199.332 14.4713 200.236 18.9327C198.362 18.581 196.441 18.4598 194.492 18.6188C185.019 19.3915 176.531 26.7849 174.703 36.1532C173.455 42.5257 174.273 49.468 177.407 54.9977C171.635 55.8641 163.8 58.3909 164.399 65.5054C164.671 68.7029 168.741 69.7631 171.581 68.7052C171.172 71.8594 173.406 75.3178 176.359 76.639C178.187 77.4611 180.852 77.9751 182.722 76.9867C182.981 76.8542 183.219 76.6718 183.447 76.4596C184.234 79.212 187.442 80.9908 190.537 79.4704C196.22 76.6747 194.926 70.1071 192.709 65.3685C199.242 66.6347 206.463 65.674 210.889 61.1205C211.069 61.1688 211.269 61.1669 211.488 61.0447C221.355 55.588 221.912 43.0419 218.069 33.549C217.628 32.4532 217.098 31.4084 216.498 30.4042C221.124 29.899 225.78 27.4533 226.4 22.347C226.808 19.0329 223.886 14.7613 220.428 15.0051C221.03 12.1291 219.689 8.93202 216.807 7.73015C214.939 6.94838 211.513 7.3419 209.678 8.92992C208.873 5.36761 205.909 1.88641 201.95 4.06523ZM181.739 26.5739C183.947 24.3122 186.522 22.7169 189.272 21.71C190.514 21.9079 191.762 22.7158 191.696 24.1665C191.606 26.2075 188.981 26.6731 187.505 26.0475C186.771 25.7347 185.96 26.5926 186.606 27.2363C188.616 29.2068 186.313 31.9894 183.853 31.0134C182.046 30.2811 181.577 28.3256 181.739 26.5739ZM192.319 75.5528C191.562 76.9202 189.897 78.4666 188.227 78.423C185.616 78.3585 184.481 75.8194 185.129 73.523C185.351 72.7308 184.136 72.1926 183.773 72.9662L183.773 72.9762C183.491 72.779 183.103 72.9528 183.087 73.313C182.917 77.4748 177.18 75.7308 175.193 73.9602C172.791 71.8136 172.822 68.7731 174.386 66.1777C174.79 65.5037 173.863 64.8527 173.318 65.3681C172.764 65.8935 172.359 66.4775 172.075 67.0903C170.751 67.6433 169.112 67.7594 167.837 67.3218C164.797 66.2815 166.12 62.5084 167.702 60.6628C170.342 57.5969 174.517 57.0059 178.321 56.4387C178.961 57.3925 179.689 58.2855 180.488 59.1177C180.262 59.55 180.036 59.9822 179.66 60.3459C178.926 61.0531 177.941 61.5127 176.942 61.6525C176.423 61.7275 176.39 62.488 176.95 62.4925C178.191 62.5203 179.327 62.1292 180.31 61.3696C180.707 61.0657 181.172 60.6311 181.528 60.1376C182.476 60.9984 183.534 61.778 184.68 62.4468C184.103 64.7326 184.747 67.2264 186.424 68.9301C186.818 69.3263 187.562 68.779 187.208 68.3124C186.012 66.694 185.645 64.9876 185.997 63.154C187.696 63.9875 189.572 64.6491 191.537 65.1199C192.559 68.3801 194.078 72.3854 192.319 75.5528ZM218.304 48.3574C218.103 48.2594 217.834 48.312 217.737 48.613C216.941 51.1209 212.888 52.8806 210.858 50.8504C208.596 48.5924 211.669 46.8522 213.065 45.3785C213.312 45.1161 213.178 44.6474 212.876 44.5203C212.846 44.4806 212.805 44.431 212.755 44.4015C211.547 43.5733 210.436 42.4041 210.52 40.8332C210.639 38.6719 212.676 38.3219 214.325 39.2759C215.894 40.1806 216.888 41.6609 218.506 42.4252C218.706 44.4333 218.645 46.434 218.304 48.3574ZM214.459 30.5142C214.479 30.514 214.489 30.5139 214.509 30.5137C216.398 33.4754 217.713 36.9826 218.288 40.5572C215.861 38.8308 212.888 35.4998 210.234 38.2059C208.016 40.4677 209.735 43.401 211.949 44.7894C209.252 46.1758 207.307 49.755 210.1 52.0878C212.359 53.9758 216.01 53.0701 217.688 50.8136C216.844 53.482 215.408 55.9061 213.246 57.8074C213.325 57.6566 213.403 57.5158 213.472 57.3551C213.678 56.923 213.064 56.5491 212.818 56.9815C212.307 57.8865 211.705 58.7025 211.032 59.4191C210.903 59.5004 210.783 59.5815 210.644 59.6529C210.405 59.7852 210.297 59.9763 210.259 60.1767C203.32 66.4348 190.112 64.6539 183.331 59.4299C182.867 59.0744 182.433 58.6886 182.02 58.2926C181.948 58.1533 181.827 58.0346 181.687 57.9759C174.121 50.3395 174.038 35.7096 180.859 27.5726C180.376 30.3174 182.373 33.098 185.51 32.7473C188.077 32.4622 189.462 29.8985 188.731 27.7456C190.662 27.8167 192.623 26.9175 193.093 24.8128C193.409 23.4096 192.724 21.8263 191.585 20.9974C198.3 19.4116 205.689 21.2595 211.098 26.3268C212.178 27.3363 213.16 28.5068 214.042 29.7882C213.885 30.0997 214.009 30.5086 214.459 30.5142ZM206.017 5.72551C207.725 6.54884 208.452 8.3318 208.769 10.0888C208.573 10.5007 208.448 10.952 208.443 11.4521C208.437 11.8922 209.011 12.2866 209.398 11.9928C210.272 11.3342 210.722 10.3798 211.687 9.78032C212.85 9.06891 214.337 8.77431 215.671 9.15129C218.308 9.90553 219.527 12.9038 218.882 15.4202C218.753 15.4815 218.633 15.5226 218.504 15.5939C218.036 15.8585 218.133 16.5276 218.545 16.7436C218.68 17.2223 219.362 17.4656 219.687 16.9124C219.706 16.8822 219.716 16.8521 219.736 16.8219C221.086 16.8487 222.318 17.0667 223.379 18.1363C224.975 19.7508 225.018 22.1705 224.077 24.1198C222.509 27.3753 219.152 28.7282 215.788 29.3111C214.955 28.0692 214.014 26.9083 212.974 25.8484C213.679 25.3915 214.446 25.024 215.253 24.7761C216.26 24.4662 217.371 24.5554 218.328 24.1661C218.826 23.9612 218.819 23.3412 218.318 23.1461C217.153 22.6975 215.608 23.2326 214.503 23.6835C213.636 24.032 212.86 24.4995 212.146 25.0565C210.612 23.6314 208.9 22.3882 207.06 21.3961C208.358 20.1734 209.117 17.9758 208.111 16.4156C207.847 15.9981 207.079 16.1457 207.124 16.6952C207.181 17.4547 207.339 18.2132 207.186 18.9747C207.034 19.7162 206.65 20.3501 206.155 20.905C204.819 20.258 203.433 19.7214 202 19.3354C202.058 19.1849 202.096 19.0145 202.065 18.8248C201.566 15.9095 200.494 12.6199 200.745 9.65727C200.959 7.04504 202.761 4.14726 206.017 5.72551Z" fill="#643205" fill-opacity="0.09"/>
<path d="M194.463 48.3405C193.108 48.8838 192.494 50.4999 192.697 51.868C192.965 53.7154 194.486 54.7806 196.112 55.4147C193.983 57.5256 194.632 61.5495 198.318 62.1035C202.714 62.7505 205.191 56.276 205.007 52.7776C204.908 50.8885 203.854 49.4388 202.009 48.9368C200.595 48.5506 199.078 48.8854 197.646 48.6294C196.554 48.44 195.579 47.8896 194.463 48.3405ZM198 50.1161C200.213 50.4144 203.116 49.626 203.547 52.7919C203.762 54.3699 202.844 56.5889 202.117 57.9761C201.558 59.0516 200.82 60.279 199.523 60.5917C196.41 61.3421 195.374 57.6021 197.206 55.7841C197.296 55.8132 197.376 55.8424 197.467 55.8616C198.028 56.0061 198.363 55.5027 198.299 55.0633C198.616 54.8002 198.43 54.212 197.952 54.3467C197.842 54.3778 197.743 54.4288 197.633 54.4698C196.329 54.0926 194.553 53.5099 194.139 52.0139C193.434 49.4707 196.478 49.9109 198 50.1161Z" fill="#643205" fill-opacity="0.09"/>
<path d="M177.223 38.1786C174.775 41.4427 177.465 48.6167 180.168 51.0204C181.732 52.4152 183.281 51.22 184.791 50.2452C186.769 48.9758 188.542 47.2883 189.009 44.8937C189.637 41.6374 186.566 38.4773 183.632 40.076C182.606 37.4159 179.444 35.2168 177.223 38.1786ZM182.506 41.5171C182.585 42.4464 184.025 42.4523 183.966 41.5029C183.954 41.3829 183.933 41.2631 183.912 41.1333C185.823 40.2146 187.351 41.9997 187.399 43.9194C187.444 45.409 186.725 46.5161 185.685 47.5364C184.07 49.1222 181.798 50.9945 180.175 48.5903C179.17 47.11 178.483 45.4066 178.166 43.6396C178.018 42.821 177.796 41.5432 177.977 40.6714C178.876 36.4824 182.259 38.7894 182.506 41.5171Z" fill="#643205" fill-opacity="0.09"/>
<path d="M195.088 29.3935C193.848 30.4157 193.175 32.2123 193.76 33.7567C194.212 34.9523 195.249 35.6622 196.413 36.0409C195.529 36.6595 194.927 37.5255 195.01 38.8347C195.127 40.5836 196.502 42.0703 198.185 42.4438C200.39 42.9323 202.579 41.7808 203.983 40.147C205.19 38.7452 207.033 35.987 206.563 33.9915C206.104 32.0559 203.386 30.2524 201.758 29.3583C199.757 28.2378 197.002 27.8247 195.088 29.3935ZM204.175 33.2148C205.898 35.5381 203.355 39.3132 201.146 40.4448C199.683 41.1891 197.623 41.1893 196.747 39.5278C195.962 38.0453 196.803 37.0471 197.906 36.3363C198.216 36.3633 198.526 36.3802 198.836 36.3772C199.406 36.3616 199.6 35.7097 199.316 35.3425C199.294 35.1227 199.082 34.9047 198.832 34.9772C198.763 34.9978 198.693 35.0185 198.633 35.0391C197.851 34.8667 197 34.775 196.297 34.3919C193.673 32.9675 195.704 29.9875 198.002 29.855C200.171 29.7338 202.909 31.4971 204.175 33.2148Z" fill="#643205" fill-opacity="0.09"/>
<path d="M0.0833362 118.365C-0.871274 124.035 6.60691 126.882 10.6674 128.952C9.22954 130.206 7.94341 131.629 6.85931 133.26C1.57622 141.152 2.0963 152.407 8.29748 159.657C12.516 164.596 18.4722 168.268 24.742 169.246C21.8314 174.305 18.9466 182.014 24.8955 185.966C27.563 187.74 30.9284 185.207 31.8703 182.327C34.0926 184.606 38.1867 185.006 41.0523 183.518C42.8234 182.6 44.8863 180.83 45.2759 178.746C45.3332 178.466 45.3401 178.155 45.3172 177.856C47.958 178.95 51.3544 177.547 52.0814 174.169C53.421 167.976 47.4708 164.914 42.3788 163.714C47.4267 159.384 51.1656 153.127 50.3441 146.835C50.493 146.723 50.6114 146.562 50.6591 146.322C52.5205 135.203 43.0395 126.965 33.2007 124.072C32.0674 123.743 30.9151 123.504 29.7635 123.345C32.2451 119.411 33.2146 114.241 29.5986 110.576C27.2552 108.199 22.0915 107.839 20.1392 110.689C18.257 108.427 14.9177 107.489 12.1923 108.996C10.4218 109.974 8.60031 112.902 8.70406 115.331C5.39838 113.743 0.82969 113.898 0.0833362 118.365ZM5.15508 148.177C4.7545 145.051 5.10492 142.027 6.02779 139.248C6.95954 138.399 8.36487 137.915 9.45431 138.874C10.9975 140.219 9.73037 142.562 8.31777 143.326C7.61152 143.713 7.78298 144.881 8.69186 144.762C11.4886 144.415 12.2331 147.948 9.93597 149.27C8.24543 150.247 6.42705 149.394 5.15508 148.177ZM50.1037 170.318C50.7079 171.763 50.8799 174.021 49.8025 175.312C48.132 177.318 45.4352 176.624 44.0362 174.698C43.5597 174.033 42.3757 174.654 42.7532 175.421C42.7532 175.421 42.7532 175.421 42.7533 175.431C42.4243 175.534 42.3184 175.945 42.5906 176.172C45.7473 178.891 40.8104 182.3 38.1847 182.756C35.01 183.307 32.6411 181.39 31.5833 178.55C31.3061 177.813 30.2192 178.133 30.2865 178.883C30.3539 179.642 30.5606 180.32 30.8665 180.927C30.47 182.311 29.5532 183.66 28.4203 184.391C25.7171 186.128 23.5839 182.738 23.1206 180.363C22.3517 176.39 24.4963 172.749 26.4038 169.42C27.5447 169.509 28.7047 169.498 29.8537 169.396C30.0481 169.845 30.2524 170.283 30.3075 170.802C30.4074 171.811 30.1578 172.874 29.6363 173.749C29.3707 174.201 29.9455 174.696 30.3013 174.262C31.092 173.304 31.4909 172.171 31.5088 170.93C31.5139 170.43 31.4678 169.801 31.302 169.212C32.57 169 33.8267 168.658 35.072 168.175C36.5105 170.051 38.8608 171.098 41.2383 170.835C41.7978 170.78 41.8287 169.849 41.2385 169.835C39.2278 169.765 37.6601 168.99 36.4463 167.582C38.1485 166.775 39.8382 165.719 41.426 164.463C44.6281 165.682 48.711 166.982 50.1037 170.318ZM44.9492 133.067C44.7502 133.169 44.6226 133.41 44.7951 133.669C46.2665 135.854 45.1282 140.116 42.2712 140.444C39.0946 140.805 39.6507 137.329 39.3509 135.312C39.2974 134.952 38.8456 134.767 38.5671 134.93C38.517 134.92 38.4571 134.931 38.3973 134.951C37.0015 135.385 35.3927 135.521 34.2225 134.482C32.6084 133.048 33.6008 131.238 35.374 130.531C37.0575 129.864 38.839 130.007 40.4413 129.211C42.1223 130.325 43.6549 131.61 44.9492 133.067ZM28.5695 124.997C28.5794 124.987 28.5892 124.967 28.5991 124.957C32.0929 125.322 35.6543 126.468 38.8217 128.237C35.9597 129.065 31.502 129.328 31.9788 133.084C32.3796 136.23 35.7343 136.697 38.2059 135.833C37.615 138.809 39.2117 142.554 42.7747 141.819C45.659 141.22 47.2056 137.795 46.499 135.082C48.0618 137.407 49.0676 140.037 49.2157 142.916C49.1443 142.767 49.0827 142.607 49.0113 142.458C48.7971 142.03 48.1295 142.286 48.3139 142.735C48.7034 143.701 48.963 144.678 49.1125 145.657C49.094 145.807 49.0854 145.957 49.0569 146.108C49.0095 146.368 49.0915 146.577 49.223 146.726C49.8142 156.051 40.2141 165.295 31.9039 167.356C31.3353 167.502 30.7662 167.597 30.1969 167.673C30.0366 167.645 29.8768 167.666 29.7375 167.737C19.0486 168.922 7.53976 159.894 5.39797 149.495C7.24852 151.587 10.6702 151.743 12.3442 149.077C13.7229 146.893 12.5667 144.214 10.4291 143.445C11.6847 141.973 12.1942 139.878 10.8379 138.211C9.92688 137.09 8.26248 136.646 6.91616 137.029C9.8552 130.78 15.8801 126.141 23.2098 125.049C24.6778 124.835 26.2074 124.79 27.7585 124.895C27.8913 125.183 28.2928 125.34 28.5695 124.997ZM3.91244 116.208C5.62444 115.381 7.46981 115.923 9.03805 116.757C9.23205 117.166 9.51573 117.543 9.90884 117.859C10.2616 118.135 10.9096 117.929 10.9248 117.439C10.954 116.339 10.4848 115.393 10.6138 114.272C10.7806 112.92 11.4775 111.573 12.5996 110.762C14.834 109.16 17.9331 110.07 19.5033 112.135C19.4747 112.275 19.4259 112.396 19.4074 112.546C19.3326 113.077 19.9058 113.411 20.334 113.227C20.7959 113.412 21.4022 113.036 21.1764 112.439C21.1661 112.409 21.1458 112.379 21.1354 112.339C21.9952 111.29 22.9372 110.471 24.4357 110.307C26.6933 110.054 28.6079 111.536 29.5569 113.477C31.1387 116.721 30.1027 120.202 28.4719 123.198C26.9806 123.072 25.4908 123.097 24.0123 123.251C24.094 122.41 24.276 121.589 24.5882 120.796C24.9687 119.822 25.7308 119.004 26.0111 118.012C26.1561 117.5 25.6723 117.115 25.205 117.389C24.1311 118.02 23.5862 119.565 23.2573 120.709C22.9961 121.601 22.8749 122.502 22.8637 123.403C20.7866 123.713 18.7621 124.283 16.8301 125.112C16.6727 123.333 15.4335 121.375 13.5816 121.193C13.0912 121.148 12.7278 121.832 13.1808 122.137C13.815 122.561 14.5085 122.914 15.0044 123.509C15.4901 124.095 15.7468 124.782 15.874 125.511C14.5402 126.154 13.2575 126.907 12.066 127.788C11.9847 127.649 11.8734 127.52 11.7024 127.422C9.10849 126.007 5.86651 124.799 3.70647 122.76C1.79906 120.988 0.647652 117.78 3.91244 116.208Z" fill="#643205" fill-opacity="0.09"/>
<path d="M30.111 151.733C29.7047 153.137 30.5793 154.619 31.7761 155.307C33.3853 156.241 35.1702 155.714 36.6817 154.839C37.0108 157.816 40.5705 159.811 43.2957 157.264C46.5362 154.223 42.9977 148.257 40.1477 146.225C38.6069 145.13 36.816 145.047 35.277 146.182C34.0955 147.054 33.4191 148.451 32.3284 149.411C31.4957 150.159 30.4499 150.59 30.111 151.733ZM33.7049 150.068C35.3199 148.522 36.503 145.76 39.249 147.383C40.6169 148.19 41.7876 150.299 42.4215 151.723C42.9124 152.828 43.4255 154.173 42.8573 155.379C41.5156 158.282 37.9407 156.777 37.6556 154.209C37.7251 154.159 37.8046 154.108 37.8741 154.057C38.3408 153.713 38.145 153.125 37.7629 152.908C37.7489 152.498 37.1767 152.274 36.9912 152.736C36.9422 152.846 36.9233 152.956 36.8844 153.067C35.7821 153.858 34.212 154.883 32.786 154.277C30.3659 153.251 32.6052 151.129 33.7049 150.068Z" fill="#643205" fill-opacity="0.09"/>
<path d="M11.4405 158.926C12.4792 162.876 19.7724 165.225 23.3365 164.6C25.3931 164.24 25.4239 162.279 25.6065 160.497C25.8436 158.155 25.6198 155.717 24.0316 153.863C21.8668 151.344 17.4811 151.797 16.9132 155.082C14.1948 154.239 10.5054 155.345 11.4405 158.926ZM17.3307 156.868C18.1057 157.381 19.0047 156.252 18.2294 155.709C18.1287 155.64 18.0181 155.581 17.9075 155.523C18.3773 153.448 20.7266 153.365 22.2579 154.52C23.4568 155.418 23.869 156.664 24.0231 158.113C24.2652 160.371 24.324 163.31 21.4317 163.088C19.6503 162.956 17.8851 162.433 16.3068 161.588C15.5729 161.196 14.4368 160.577 13.86 159.892C11.1375 156.579 15.0458 155.361 17.3307 156.868Z" fill="#643205" fill-opacity="0.09"/>
<path d="M15.6605 139.474C15.6862 141.084 16.6823 142.724 18.2573 143.229C19.4712 143.617 20.6776 143.245 21.701 142.565C21.6414 143.635 21.9414 144.653 23.0188 145.402C24.4586 146.398 26.4771 146.238 27.8166 145.155C29.5727 143.728 30.029 141.303 29.6183 139.187C29.2706 137.371 28.2496 134.21 26.4011 133.348C24.6028 132.506 21.5025 133.516 19.7794 134.233C17.6579 135.104 15.6163 137.004 15.6605 139.474ZM24.3045 134.729C27.1855 134.821 28.568 139.158 28.0819 141.602C27.7576 143.216 26.4733 144.828 24.6298 144.476C22.9767 144.162 22.7243 142.895 22.8515 141.584C23.0693 141.361 23.2769 141.119 23.4547 140.888C23.8003 140.434 23.4047 139.868 22.9446 139.863C22.7635 139.744 22.4638 139.777 22.3561 140.018C22.3267 140.079 22.3074 140.149 22.2781 140.219C21.653 140.725 21.0489 141.331 20.322 141.648C17.5734 142.825 16.5095 139.375 17.8212 137.493C19.0837 135.7 22.1637 134.66 24.3045 134.729Z" fill="#643205" fill-opacity="0.09"/>
<path d="M283.319 25.6052C277.141 31.9359 271.176 39.6945 277.939 48.1288C284.682 56.5333 296.979 55.203 306.123 52.5235C306.382 52.4509 306.541 52.2894 306.619 52.0986C306.949 52.1154 307.298 51.992 307.545 51.6695C310.082 48.2946 309.331 44.1217 308.583 40.2088C307.486 34.3993 304.991 29.8535 301.336 25.239C299.23 22.5695 296.726 19.0938 292.945 19.0107C288.904 18.9102 285.834 23.0305 283.319 25.6052ZM298.281 24.7288C299.596 26.256 300.832 27.8741 301.978 29.5229C305.406 34.4796 309.83 45.0268 305.785 50.6567C305.686 50.7876 305.637 50.9182 305.608 51.0384C298.41 52.2989 290.407 53.9972 283.639 50.1832C279.798 48.0207 276.688 43.8709 276.923 39.2884C277.158 34.6759 280.793 31.1701 283.793 28.0707C286.407 25.375 288.576 22.2036 292.473 21.8655C295.541 21.6055 296.379 22.5173 298.281 24.7288Z" fill="#643205" fill-opacity="0.09"/>
<path d="M299.975 43.5832C300.307 43.7599 300.629 43.9368 300.97 44.0835C301.272 44.2205 301.344 44.4398 301.317 44.7701C301.273 45.3806 300.778 45.9355 300.159 45.9615C299.819 45.9749 299.824 46.4748 300.164 46.4815C301.044 46.5029 301.767 45.8158 301.959 44.9839C302.045 44.603 302.021 44.1532 301.828 43.805C301.553 43.3277 300.711 43.166 300.22 42.9908C299.868 42.8742 299.654 43.4163 299.975 43.5832Z" fill="#643205" fill-opacity="0.09"/>
<path d="M294.882 47.3232C295.202 48.3601 296.546 48.797 297.441 48.2082C297.769 47.995 297.474 47.5078 297.136 47.6911C296.628 47.9661 295.876 47.7235 295.66 47.1656C295.383 46.4482 296.168 45.8705 296.798 45.8644C297.188 45.8605 297.252 45.2899 296.881 45.1935C295.678 44.8653 294.51 46.1567 294.882 47.3232Z" fill="#643205" fill-opacity="0.09"/>
<path d="M302.593 46.4577C302.124 46.5223 301.757 46.8359 301.662 47.3168C301.5 48.1784 302.288 48.9708 303.137 48.8425C303.486 48.7891 303.391 48.2099 303.051 48.2333C302.691 48.2568 302.337 47.8903 302.414 47.5195C302.519 47.0085 303.152 47.3823 303.463 47.4093C303.673 47.4272 303.781 47.1961 303.749 47.0264C303.634 46.5375 303.023 46.3935 302.593 46.4577Z" fill="#643205" fill-opacity="0.09"/>
<path d="M282.733 37.2215C282.578 37.793 282.363 38.2951 281.967 38.729C281.367 38.6549 280.815 38.4302 280.311 38.0851C279.999 37.8682 279.624 38.3719 279.916 38.6091C280.269 38.8956 280.651 39.1419 281.083 39.3177C281.435 39.4542 281.987 39.6989 282.355 39.5253C283.092 39.178 283.481 38.0441 283.404 37.3049C283.35 36.9454 282.839 36.8404 282.733 37.2215Z" fill="#643205" fill-opacity="0.09"/>
<path d="M282.041 34.008C281.093 34.1573 280.451 34.9937 280.39 35.9243C280.373 36.2545 280.873 36.2496 280.9 35.9194C280.963 35.2187 281.517 34.5733 282.257 34.556C282.927 34.5495 283.391 35.0249 283.687 35.5721C283.839 35.8406 284.237 35.6467 284.175 35.3573C283.956 34.4394 282.96 33.8591 282.041 34.008Z" fill="#643205" fill-opacity="0.09"/>
<path d="M284.424 33.2547C284.811 33.961 285.793 34.1414 286.418 33.6553C286.636 33.4831 286.443 33.115 286.194 33.2774C285.797 33.5313 285.166 33.4475 284.941 32.9897C284.707 32.5119 285.062 32.0084 285.49 31.8042C285.769 31.6715 285.555 31.2836 285.285 31.3362C284.467 31.5142 284.017 32.5287 284.424 33.2547Z" fill="#643205" fill-opacity="0.09"/>
<path d="M289.02 25.7094C288.631 25.8132 288.737 26.3822 289.117 26.3985C289.967 26.4302 290.651 27.8235 289.846 28.3714C289.479 28.625 289.815 29.2019 290.202 28.9781C291.714 28.0932 290.796 25.242 289.02 25.7094Z" fill="#643205" fill-opacity="0.09"/>
<path d="M61.231 85.6021C51.329 87.489 43.7506 95.8835 43.1091 105.96C41.6136 105.405 39.9622 105.261 38.3915 105.196C38.0513 105.18 37.7739 105.452 37.6769 105.753C36.7651 108.642 36.1561 112.839 39.7194 114.184C41.0845 114.701 41.6379 114.025 42.8454 113.763C43.2707 113.279 43.7111 113.315 44.1864 113.86C44.2605 114.279 44.3446 114.699 44.4287 115.118C44.3687 115.118 44.3092 115.159 44.3098 115.229C43.9613 122.543 52.952 129.725 59.8334 129.838C61.6438 129.87 62.7097 129.45 63.2529 128.744C71.9891 129.339 81.1503 128.379 89.2671 124.94C96.348 121.93 104.681 116.049 105.62 107.729C106.604 98.9991 97.9016 94.684 91.1322 91.71C82.0328 87.7188 72.1969 86.1549 62.3134 86.8716C62.3227 86.8015 62.3421 86.7313 62.3515 86.6712C62.4347 85.9803 61.9397 85.4652 61.231 85.6021ZM85.2777 91.2772C93.073 93.8211 106.495 99.0602 103.617 109.489C101.434 117.381 92.4727 122.438 85.2458 124.829C78.248 127.138 70.9419 127.579 63.6341 127.841C64.2311 124.465 58.4048 117.711 55.7355 114.727C60.7438 113.508 65.0804 111.096 68.825 107.459C69.152 107.146 69.1265 106.586 68.8135 106.279C65.1783 102.694 60.9374 100.576 56.0097 99.8138C59.0287 96.6342 61.0323 92.9044 61.9706 88.635C69.8749 88.0077 77.7332 88.8109 85.2777 91.2772ZM53.5398 99.8379C52.9452 100.394 53.4736 101.249 54.1641 101.302C56.436 101.48 67.5289 103.771 66.5834 107.301C66.2265 108.644 61.9961 110.666 60.7221 111.288C58.5424 112.35 56.3284 112.971 53.9729 113.444C53.3141 113.571 53.2422 114.402 53.6264 114.828C55.8206 117.296 57.9058 119.866 59.7725 122.588C61.1523 124.605 62.3651 124.883 59.8821 126.637C57.6474 128.209 57.154 127.864 54.5915 126.599C50.3408 124.5 48.3089 121.25 46.0936 117.652C46.1958 115.831 46.0924 112.411 44.4164 111.808C43.5935 111.516 43.0783 112.011 42.3411 112.298C37.9877 114.021 38.3529 109.437 38.9767 106.751C40.7284 106.914 42.3233 107.408 44.0561 107.691C44.6571 107.785 45.0202 107.082 44.5764 106.696C44.6752 106.575 44.7538 106.424 44.7719 106.234C45.5942 97.2555 51.7524 89.8849 60.3808 87.6305C59.4275 92.41 57.1771 96.4722 53.5398 99.8379Z" fill="#643205" fill-opacity="0.09"/>
<path d="M67.274 116.564C66.8963 116.798 66.9622 117.408 67.4034 117.523C68.1052 117.706 68.8227 117.439 69.5148 117.653C70.2972 117.895 70.5051 118.703 69.79 119.21C69.5318 119.393 69.0528 119.497 68.7534 119.56C67.1666 119.896 65.5521 119.451 64.253 118.524C63.8099 118.208 63.267 118.934 63.6804 119.28C64.7995 120.209 66.0751 120.776 67.5361 120.872C68.757 120.95 70.5851 120.752 71.415 119.714C73.3517 117.325 69.1625 115.376 67.274 116.564Z" fill="#643205" fill-opacity="0.09"/>
<path d="M65.5031 96.0308C64.8462 96.3472 65.3375 97.5025 66.0147 97.2159C67.0705 96.7755 68.1171 96.4252 69.2558 96.2841C69.5854 96.2409 70.6931 96 70.9759 96.2873C71.6827 96.9804 70.726 97.3198 70.2088 97.6048C68.1897 98.7346 65.7696 98.7383 63.6514 97.909C63.2399 97.753 62.9764 98.4257 63.3584 98.6219C64.8959 99.3869 66.5192 99.7111 68.2369 99.4743C69.5852 99.2911 71.9193 98.6682 72.5657 97.2818C73.1143 96.1064 72.1954 95.2054 71.0928 94.9462C69.2888 94.5438 67.1156 95.255 65.5031 96.0308Z" fill="#643205" fill-opacity="0.09"/>
<path d="M78.8501 104.851C78.4227 105.125 78.5704 105.904 79.14 105.868C80.0594 105.799 80.9467 105.51 81.8869 105.531C82.6771 105.543 83.3069 105.517 83.7142 106.263C84.1774 106.589 84.2097 106.828 83.8013 106.992C83.5434 107.205 83.2447 107.348 82.9055 107.431C80.8619 108.091 78.3891 107.825 76.2973 107.656C75.867 107.62 75.7838 108.321 76.2048 108.417C78.2995 108.886 84.7003 109.954 85.55 106.845C86.4088 103.657 80.3706 103.876 78.8501 104.851Z" fill="#643205" fill-opacity="0.09"/>
<path d="M78.7191 92.4815C78.4532 92.9041 78.9071 93.2897 79.3066 93.2358C79.8757 93.1502 80.6384 92.3927 81.232 92.7569C81.564 92.9636 81.5187 93.4441 81.4018 93.7653C80.8855 95.1704 78.9603 94.6492 77.8684 94.4599C77.4176 94.3843 77.2734 94.9757 77.6851 95.1416C79.4922 95.864 82.3339 96.0163 82.6893 93.5027C83.0363 91.1492 79.7926 90.7909 78.7191 92.4815Z" fill="#643205" fill-opacity="0.09"/>
<path d="M80.9517 118.301C80.4942 118.555 80.721 119.253 81.2211 119.258C82.8413 119.272 84.1506 119.19 85.4586 119.997C83.5384 121.016 81.5803 121.225 79.3479 120.987C78.8873 120.931 78.8641 121.621 79.2554 121.758C81.8039 122.613 84.7084 122.034 86.9245 120.603C87.2525 120.389 87.3576 119.888 87.0447 119.601C85.5112 118.226 82.9012 117.212 80.9517 118.301Z" fill="#643205" fill-opacity="0.09"/>
<path d="M91.7286 108.725C91.2714 109.01 91.4977 109.657 91.9981 109.692C93.8695 109.824 95.4084 109.709 96.7322 111.116C94.9789 112.823 92.5636 113.327 90.1862 112.58C89.785 112.454 89.5212 113.087 89.9029 113.263C92.6858 114.566 95.9986 113.823 98.0871 111.613C98.2653 111.421 98.3617 111.05 98.1793 110.812C96.862 109.045 93.8855 107.374 91.7286 108.725Z" fill="#643205" fill-opacity="0.09"/>
<path d="M90.622 99.8754C91.1867 100.35 91.688 100.475 92.4286 100.538C92.8891 100.583 93.3587 100.549 93.8198 100.654C94.6716 100.836 95.7903 101.715 94.546 102.307C93.7397 102.685 92.0969 102.411 91.2169 102.41C90.0167 102.401 88.8264 102.373 87.6256 102.305C87.1854 102.279 87.0826 103.02 87.5233 103.086C89.5464 103.396 91.5684 103.586 93.6187 103.606C94.7088 103.616 96.1489 103.622 96.6069 102.387C97.7367 99.2959 92.7237 99.0048 91.0027 98.9117C90.5424 98.8862 90.2589 99.5589 90.622 99.8754Z" fill="#643205" fill-opacity="0.09"/>
<path d="M16.2514 17.6321C2.84802 25.5335 6.57779 45.948 21.5203 49.202C21.9513 49.2978 22.2177 48.9253 22.1845 48.5956C22.2245 48.6052 22.2647 48.6148 22.3048 48.6244C13.5382 62.3207 29.8778 79.5818 43.9527 71.8338C62.026 67.9869 65.441 43.9423 63.3192 28.4223C63.6077 28.2695 63.8048 27.9676 63.6508 27.5591C60.468 19.1098 51.2285 18.1801 43.4157 16.9164C34.7016 15.5116 24.3949 12.8322 16.2514 17.6321ZM39.7768 72.2746C34.9934 72.9714 30.0331 71.9399 26.3 68.5762C20.4885 63.3328 20.4908 55.3924 23.6266 48.8114C23.6364 48.7914 23.6363 48.7813 23.6362 48.7713C24.697 48.841 25.7966 48.8002 26.9255 48.6792C23.2424 52.4754 22.2191 58.2756 24.6486 63.3221C27.4761 69.1948 33.5262 72.2458 39.7768 72.2746ZM52.0827 65.654C46.4295 70.4695 37.4954 72.1369 31.1021 67.7392C24.1753 62.9867 23.3992 53.1638 30.2103 48.127C30.4099 48.0851 30.5487 47.9637 30.6272 47.8129C30.6768 47.7724 30.7264 47.732 30.7861 47.7014C31.6307 47.1431 30.8682 45.8705 29.9829 46.3492C29.7342 46.4816 29.5056 46.6339 29.2671 46.7862C26.2006 47.1562 23.0234 47.4573 20.1104 46.1457C17.097 44.7851 15.4205 41.0713 14.7409 38.0478C13.0265 30.4442 17.6656 24.1885 24.896 22.1477C36.2353 18.9567 50.6743 23.8958 61.1767 28.1833C61.3073 28.2421 61.4374 28.2508 61.5574 28.2496C61.5789 40.68 62.5263 56.7715 52.0827 65.654ZM42.1295 18.3291C48.6999 19.3649 57.2354 19.8814 61.0446 25.9244C53.133 22.7316 44.8902 20.4322 36.3909 19.5253C29.133 18.7562 20.8991 19.4167 15.7053 25.1877C11.5205 29.8389 11.3978 36.7204 13.9915 42.2053C14.6246 43.5392 15.3752 44.6119 16.2139 45.5038C12.2871 42.782 9.51591 38.5789 9.26664 33.5411C8.89312 26.0244 14.088 19.3433 21.2292 17.3834C28.0114 15.527 35.3688 17.2651 42.1295 18.3291Z" fill="#643205" fill-opacity="0.09"/>
<path d="M19.6822 37.1294C19.9848 37.3965 20.1398 37.905 19.8832 38.2576C19.6267 38.6101 19.0665 38.5956 18.7244 38.3789C18.3822 38.1522 18.0471 38.6555 18.3098 38.933C18.9363 39.5969 20.0562 39.5859 20.6389 38.8302C21.2216 38.0845 20.9607 36.9669 20.1264 36.535C19.7745 36.3385 19.3493 36.8327 19.6822 37.1294Z" fill="#643205" fill-opacity="0.09"/>
<path d="M17.6092 33.7595C16.7855 34.4076 16.6377 35.6591 17.2758 36.4829C17.5391 36.8203 18.1061 36.5148 17.8624 36.1372C17.5374 35.6203 17.5698 34.85 18.076 34.4551C18.5722 34.0702 19.2937 34.2131 19.7376 34.6087C20.0503 34.8857 20.6465 34.4999 20.3528 34.1228C19.7045 33.2691 18.4727 33.091 17.6092 33.7595Z" fill="#643205" fill-opacity="0.09"/>
<path d="M23.7422 37.1097C22.9798 37.8872 23.2135 39.285 24.1585 39.7958C24.4702 39.9627 24.6959 39.5306 24.424 39.3332C23.9103 38.9582 23.7415 38.0598 24.2773 37.6245C24.7932 37.1994 25.4658 37.4729 25.8995 37.8487C26.1315 38.0464 26.5996 37.8518 26.4563 37.5132C26.0359 36.4473 24.5047 36.3322 23.7422 37.1097Z" fill="#643205" fill-opacity="0.09"/>
<path d="M55.0088 35.584C55.9316 35.865 56.492 36.9295 56.1307 37.8231C55.7811 37.8665 55.4417 37.9198 55.0921 37.9632C54.7425 38.0067 54.7277 38.5469 55.0975 38.5232C55.6072 38.4883 56.4289 38.6502 56.7241 38.1573C56.9503 37.7751 57.0056 37.2945 56.9414 36.8651C56.8123 35.9263 56.144 35.0828 55.1824 34.9322C54.7618 34.8663 54.5875 35.4481 55.0088 35.584Z" fill="#643205" fill-opacity="0.09"/>
<path d="M52.9501 32.6539C52.1089 33.5622 52.3046 35.1704 53.3611 35.8301C53.6328 35.9974 53.929 35.6046 53.6967 35.3768C53.1314 34.8323 52.9316 33.8342 53.5358 33.2383C54.0904 32.6828 55.0918 32.823 55.6269 33.3378C55.9197 33.625 56.4559 33.2397 56.2124 32.8821C55.462 31.8194 53.8505 31.6751 52.9501 32.6539Z" fill="#643205" fill-opacity="0.09"/>
<path d="M53.4297 40.7997C52.6556 41.4073 53.218 42.6718 53.7833 43.2063C54.4293 43.82 55.4019 44.0806 56.187 43.5729C56.5646 43.3292 56.2191 42.7625 55.8311 42.9763C55.304 43.2715 54.7014 43.0073 54.3271 42.571C54.1551 42.3726 54.0227 42.1239 53.9902 41.8642C53.9473 41.5746 54.065 41.3335 54.0923 41.0532C54.1287 40.6928 53.6579 40.6174 53.4297 40.7997Z" fill="#643205" fill-opacity="0.09"/>
<path d="M43.3766 63.029C44.4198 63.3488 44.9457 64.9737 43.9323 65.6537C43.6442 65.8465 43.8985 66.284 44.2069 66.121C45.7487 65.2759 45.3109 62.44 43.46 62.3481C43.0598 62.332 43.0156 62.9225 43.3766 63.029Z" fill="#643205" fill-opacity="0.09"/>
<path d="M46.0967 63.0224C46.6249 63.8573 48.1372 64.0925 48.6073 63.0779C48.7933 62.666 48.2704 62.3711 48.0039 62.7337C47.7276 63.1065 47.0446 62.8031 46.9012 62.4545C46.6347 61.7971 47.5087 61.1785 47.9861 60.9138C48.3045 60.7407 48.169 60.182 47.7893 60.2157C46.5202 60.3181 45.3246 61.7899 46.0967 63.0224Z" fill="#643205" fill-opacity="0.09"/>
<path fill-rule="evenodd" clip-rule="evenodd" d="M209.715 163.951C214.004 157.699 214.224 149.507 212.144 142.317C211.872 141.089 211.49 139.893 210.989 138.748C227.551 134.816 232.898 114.052 223.908 100.74C222.55 97.9227 220.496 95.4327 217.667 93.5702C209.444 88.1404 199.018 89.6624 190.659 93.8443C179.712 99.3216 167.663 109.517 158.289 117.329C157.939 121.403 158.733 129.178 159.652 133.189C161.146 139.705 162.949 146.188 165.888 152.209C169.97 160.57 176.777 168.354 185.934 171.134C194.36 173.672 204.539 171.492 209.715 163.951ZM210.285 137.314C217.525 135.294 223.266 130.257 225.715 122.983C227.358 118.117 227.181 113.378 225.917 108.83C226.577 120.094 219.428 132.485 207.82 133.768C208.791 134.849 209.602 136.041 210.285 137.314ZM161.127 116.254C161.47 116.561 161.565 117.13 161.069 117.465C158.475 119.21 164.225 130.345 165.076 132.506C166.829 136.889 168.661 141.252 170.554 145.573C174.001 153.45 178.007 162.281 187.091 164.703C194.962 166.806 204.113 163.806 208.263 156.585C212.55 149.133 210.865 140.409 205.881 133.857C204.779 133.698 204.722 131.989 205.932 131.917C216.736 131.261 223.446 122.025 223.684 111.652C223.908 101.78 218.721 93.96 208.705 92.3378C199.37 90.829 190.735 95.4637 183.284 100.567C175.814 105.68 168.729 111.33 161.127 116.254ZM165.327 146.905C168.65 155.472 174.122 163.809 182.554 168.047C190.684 172.128 201.738 171.46 207.776 164.02C210.394 160.765 211.577 156.983 211.869 153.05C211.424 154.594 210.818 156.09 210.032 157.478C205.697 165.141 196.38 168.592 187.933 166.945C177.042 164.821 172.322 154.607 168.332 145.395C165.518 138.902 162.864 132.318 160.439 125.671C160.172 124.954 159.793 124.068 159.434 123.121C159.482 131.111 162.639 139.97 165.327 146.905Z" fill="#643205" fill-opacity="0.09"/>
</svg>
