<svg width="306" height="731" fill="none" xmlns="http://www.w3.org/2000/svg"><path d="M299 356c0-3 0-6-3-7-2-1-5 0-6 1 0-2-3-4-5-3-5 3-4 11-3 15-3-1-5-1-8 2-6 4-11 10-16 15l-18 21c-4 4-10 9-10 16-5 1-14 0-14 7-1 3 2 5 4 5v1c0 2 0 4 2 5h6c0 2 1 5 5 4 6 0 7-9 8-14 3 1 8 1 12-3l15-16 6-7 11-12 6-8 1-4-1-5c5 0 14-3 15-9 0-5-4-6-7-4zm-62 75c0 2-2 7-6 5-3-1-1-4-1-6h-1v1c-1 2-4 3-6 2l-2-4 2-3v-1l-2 1c-2 1-4-1-4-3 1-3 4-4 6-5l8-1 5 5c-2 1-4 5-2 7h1v-3l2-4 3 2-3 7zm16-12c-5-6-13-8-20-6v1c8-2 13 1 19 5l1 1-4 2c-3 2-6 2-8 1h-1l-8-7c0-4 3-9 7-13 4-1 8-2 13-1s7 3 11 6l-10 11zm11-12c-5-7-17-8-24-5l4-5a396 396 0 015-5c9-2 17 0 23 6l-8 9zm13-15l-4 5c-5-7-15-9-23-6l8-9 2-2c4-1 8-1 12 1l9 6h1c-5-6-14-10-21-8l8-9c8-1 15 2 21 7-3 6-9 11-13 15zm13-16c-4-6-12-8-20-7l3-3c4-3 8-3 12 0s6 6 5 10zm13-15c0 2-2 3-3 4-3 2-6 3-10 3l-2-2c2-1 4-2 6-1v-1c-2-1-5 0-6 2l-1-1c2-2 3-5 1-7 0 3 0 5-2 6h-1l-1-1c-1-4-2-7-1-10l2-4c3-2 5 1 4 4-1 0 0 1 0 0v1h2c-1-3 2-5 5-3 2 1 2 5 0 8v1h1l2-2c4 0 6 1 4 3z" fill="#E3D3C5"/><path d="M233 420c-1 2-3 3-5 1l-1 1c3 2 6 1 7-2h-1zM36 229c-1-2-4-3-7-2-2 1-3 3-2 5-3-1-6-1-6 3-2 5 5 9 10 11-3 1-4 4-5 7l3 23 4 26c2 6 2 14 7 18-2 4-9 11-3 16 1 2 5 1 6-1l1 1c1 2 3 2 5 2 2-1 3-3 3-5 2 2 5 2 7-1 3-5-3-11-6-15 3-2 5-6 5-12l-3-22-1-8-3-16-2-10v-1l-3-3-5-2c4-4 7-13 2-17-3-3-6 0-7 3zm20 95c1 2 4 6 1 8s-4-1-6-3l-1 1c1 2 1 6-2 6-1 1-2 0-3-1l-1-3h-1l-1 2c-1 2-3 3-5 0-2-2-1-5 0-7l4-7h1l7-1c0 2 1 6 4 7v-1l-2-3-1-4 2-1 4 7zm1-20c-8 0-14 6-18 12h1c4-6 10-9 17-11v4c-1 3-2 6-5 7v1l-10 2c-4-3-5-8-6-14 1-4 3-8 7-11 3-3 7-3 12-5l2 15zm-3-16c-8-1-17 8-19 16l-1-7a431 431 0 01-1-7c4-8 11-13 19-14l2 12zm-3-20l1 6c-8 0-16 7-19 15a400 400 0 01-2-14c1-4 4-7 8-9l11-4v-1c-8 0-17 5-20 12l-1-12c4-7 10-11 18-12 3 6 3 13 4 19zm-5-20c-7 0-14 5-17 11l-1-4c0-5 3-8 8-9 4-1 8-1 10 2zm-2-19v5l-3 9-3 1c-1-2 0-4 2-6h-1c-2 1-2 3-2 6h-1c0-3-2-6-5-6v1c2 1 4 3 4 5a38 38 0 00-2 1h-1c-3-2-6-3-8-6l-2-4c1-3 5-3 5 0h2c1 1 1 0 1-1-3-1-2-5 0-6 3-1 6 2 7 5l1 1 1-1-1-3c3-4 4-4 6-1z" fill="#E3D3C5"/><path d="M45 320c1 2 0 4-2 5v1c3 0 5-4 3-6h-1zM290 285c2-3 2-7-2-9s-7 1-9 4c-3-5-8-7-12-2-5 7 0 15 5 21-9-1-18 3-22 11-5 8-2 17 4 23-4 1-7 3-10 6-3 2-5 5-5 8 0 7 6 5 10 2-2 3-2 7 1 9s7-1 8-4l3 6c2 2 4 2 7 0 6-4 1-15-2-21 8 1 18-4 21-11 5-8 2-19-5-25l12-6c3-1 6-4 5-8 0-5-5-6-9-4zm-21 67l-1 4c-1 3-2 4-4 3-3-1-3-1-4-4l-1-3v-1h-1c-1 3-3 7-7 6s-2-7 0-9l1-2h-1l-6 4c-7 2-4-6-2-8 3-4 7-6 12-8l3 2-2 2-4 1v1c2 0 6-1 7-4l1 1c-1 2 0 5 1 7h1v-7l2 1 5 14zm-8-17h-1l-1-1-3-1-3-4c4-2 9-3 13-2 5 1 8 4 12 8-6 2-12 3-17 0zm18-1c-5-9-18-11-27-6l-2-6c6-4 13-6 20-4s11 6 15 11l-6 5zm8-17c-2-6-8-9-13-11-9-2-17 2-23 7 7-3 14-7 22-5 7 1 12 6 15 13a16 16 0 01-3 7c-6-13-25-16-36-8 0-3 1-7 3-10 5-9 16-12 25-7 5 3 9 8 10 14zm11-27c0 4-5 6-8 7l-10 5a20 20 0 00-3-1v-1c1-3 1-8-2-11l-1 1a17 17 0 012 10l-3-1c-3-4-6-8-6-13-1-2 0-6 2-8 5-4 7 1 8 4l1 1 1-1v-1c2-2 4-5 8-4 4 2 2 7 1 9-1 1 0 2 1 1 3-2 9-3 9 3z" fill="#E3D3C5"/><path d="M284 294c-2 0-3 2-4 3s-2 3-1 4l2-3 3-3v-1zM17 147c-3-2-6-4-9-1-4 3-3 7-1 10-5 0-9 4-6 10 5 8 15 6 22 4-5 7-5 17 1 24s16 9 23 5l1 12c2 3 3 7 6 8 7 2 7-4 6-9 2 3 6 5 9 3 3-3 1-7-1-10h7c2-1 3-3 3-6-2-8-14-7-21-7 4-7 4-18-1-23-6-8-17-9-26-5v-13c-1-4-2-8-6-9-5-1-8 3-7 7zm53 46l4 2c2 2 2 3 1 5-2 2-3 3-5 2l-4-1-1 1h1c1 3 5 6 2 9s-7-1-9-3v-2c-1 0-2 0-1 1l1 7c-1 7-6 1-8-1-2-5-3-9-3-14l3-2 1 2v5h1c1-2 1-6-1-8l1-1c2 2 5 3 8 2l-1-1-6-2 2-2 14 1zm-18 0l-1 1-1 1-2 2-5 2c0-5 1-9 3-13 3-4 7-6 12-8 0 6-2 12-6 15zm6-16c-11 1-17 12-16 22h-7c-1-7 0-15 5-20 4-6 9-8 15-9 2 2 2 4 3 7zm-13-15c-6 1-12 4-15 9-5 7-5 15-3 23h1c-1-8-2-15 3-22 4-6 11-9 18-9a16 16 0 016 5c-15 1-24 17-21 31-4-1-7-4-9-7-6-8-4-19 3-26 5-4 11-5 17-4zm-21-20c4 2 4 7 4 10l1 11a21 21 0 00-3 3v-1c-3-2-7-3-11-2v1a17 17 0 0111 2l-2 2c-5 2-10 3-15 2-3-1-6-3-7-6-1-6 3-6 7-6l1-1v-1H9c-2-2-3-6-1-8 3-4 7 0 9 2 1 1 2 0 1-1 1 0 1 0 0 0 0-3 1-9 6-7z" fill="#E3D3C5"/><path d="M23 157c-1 1 0 3 1 4l3 3s1 0 0 0l-2-3-1-5-1 1zM283 565c5-6 5-14 3-22l-1-3c16-4 22-25 13-38l-7-7c-8-6-18-4-27 0-11 5-21 14-30 22-12-7-26-12-39-17a813 813 0 00-43-13c-1 1-2 3 0 4v1l41 16 39 14c-1 4 0 8 1 12l7 19c4 9 10 17 20 19 8 3 18 1 23-7zm16-41c-2 7-8 12-15 14l-2-3c11-1 18-14 18-25 1 5 1 9-1 14zm-106-18l-40-15v-2-1l3-1 41 15 36 16h-1v3l-39-15zm42 13v-2l22-15c7-5 16-10 25-8 10 1 16 9 15 19 0 10-7 19-17 20-2 0-2 2 0 2 5 7 6 15 2 23-4 7-13 10-21 8-9-3-13-11-17-19l-5-13c-1-2-7-14-4-15zm21 50c-8-4-14-12-17-21-3-7-6-16-6-24l1 3 8 20c4 9 9 19 20 21 8 2 17-2 22-9l2-5c-1 4-2 8-5 11-6 8-17 8-25 4zM100 158l-1 1c-4 4-8 10-9 17-1 9 1 18 5 25 4 8 13 13 21 15a37 37 0 0047-31h77l1 1c3-2 3-6 1-9h-78c-1-11-7-22-17-28-16-10-37-5-47 9zm17-10l-1 3-12 5c3-4 8-7 13-8zm30 40c-3 3-7 0-9-2 3-3 4-7 3-11 3 1 7 1 9-2v2c1 5 0 9-3 13zm-1 3c-3 3-7 7-11 8-4-2-6-6-3-10h1l5-2 5 4h3zm-22-15a6 6 0 00-2 5c-5-3-12-1-15 3 0-6 2-11 6-15 5 0 10 3 11 7zm7-5l-1 4-5 1c-1-5-5-8-10-8l6-2c5-2 11 0 15 4-1-1-3 0-5 1zm6 13c-2 2-4 4-7 4-2 0-5-2-6-4-2-4 2-9 6-7h1c1 4-2 7-6 7v1c4 1 7-3 7-7l3 2 2 4zm-1-5l-4-2-2-2 3-3 3-1 1-1c2 3 3 5 3 9l-2 5-2-5zm-22 2c2-1 5 0 7 1l3 5c-4 2-7 7-7 11-5-2-8-7-9-12 1-2 3-4 6-5zm6 11l4-5c2 2 4 3 7 3-3 3-2 9 3 10a22 22 0 01-16-1l2-7zm21-18c-1-3-4-6-7-8 4-1 5-5 4-9 6 3 10 8 11 14-2 3-5 5-8 3zm-7-8a18 18 0 00-12-3c2-3 2-8-1-10 5 0 11 1 16 3v1c1 3-1 7-3 9zm-35-5c5-5 12-7 19-8 4 3 5 6 3 10v1c-5 1-9 3-11 6-2-5-11-6-15-2l4-7zm-7 18l2-9c3-2 5-4 9-3 3 0 4 2 6 4-2 3-3 7-3 11h-1c-3-1-6 1-9 3l-3 5-1-11zm2 15c1-3 1-6 3-8 3-2 5-3 8-3h1c0 4 1 8 3 11-4 4-5 10-3 16-6-4-10-10-12-16zm19 19a30 30 0 01-5-2c-2-6-2-11 2-16l1 1c4 4 8 6 12 6 1 5 4 12 9 13-6 1-13 1-19-2zm38-7c-4 4-10 7-16 8l-7-4c-2-2-3-5-3-7 5 0 12-2 17-5 2 4 7 7 11 6l-2 2zm3-4l-7-1-5-4a25 25 0 0010-16c3 2 7 4 10 2-1 7-4 13-8 19zm87-24c1 2 1 5-1 6l-38-1-20 1h-14-1a34 34 0 00-2 0h-1v-3-3h77zm-80-7l1 10-4 1-6-2c1-5 0-9-3-14 4 1 7-1 8-4 2 2 3 5 4 9zm-6-11c0 3-3 6-6 5-3-5-7-9-12-11 2-1 3-4 3-6 6 2 12 6 15 12zm-17-13v4l-3 2-7-2h-11l1-4a33 33 0 0120 0zM284 141c-2-2-5-1-6 1v1l-4 21-2 26-2-2c-2-1-4 0-5 2-4 3 0 8 4 11-7 2-11 8-12 15-2 9 4 19 13 21 9 1 17-6 19-14 2-9-2-17-10-21 4-2 7-6 6-10-1-1-2-3-4-2l-2 1v-1l3-24 3-23v-1-1h-1zm-24 71c2 1 3 3 3 5-1 2-3 3-4 2l1-7zm21 20l-6 3c-1-2-1-5 2-6l3 1 1 2zm7-11c-1 4-3 8-6 10 0-2-4-3-6-3-3 1-4 5-2 7h-3c-8-2-12-8-12-15 1 1 4 1 5-1 1-3-1-7-4-8 3-5 8-10 15-9l5 2-2 3 2 4c2 1 4 0 5-1 2 3 3 7 3 11zm-3-12c-1 1-3 2-4 1s-2-2-1-3l1-2 4 4zm-4-17c3-2 3 3 2 4l-6 5-1-1v-1l1-2-1-1-1 2v2h-2l-1-2-2-1v1l2 1v1l-2 1c-2-3-5-5-5-8 0-2 2-4 4-3 2 0 2 3 3 4l1 1v-1c0-2 1-4 3-4l2 2-1 2 1 1 1-2 2-1zm-1-26l-2 23h-2c-1-1-3 0-4 2 3-16 3-33 7-48v-1h4l-3 24z" fill="#E3D3C5"/><path d="M274 207c-2-2-5-2-7 0-1 2-1 5 1 6 2 2 4 2 6 0 1-2 2-4 0-6zm-2 5h-3c-2-1-2-3-1-4h5c1 1 0 3-1 4zM269 221h-3-2v2c-2 1-1 4 0 5 2 2 5 2 6 0 2-2 2-5-1-7zm0 6c-1 1-3 2-4 0l-1-3 1-1a6 6 0 000-1c3-1 7 3 4 5zM281 215c-2-1-5 0-6 2s-1 4 1 6 6 1 7-1c1-3 0-6-2-7zm1 6c-1 1-3 2-5 1s-2-3-2-4c2-2 3-3 5-2s2 3 2 5zM171 429c1 2 4 3 6 2l15-15 18-20v2c1 2 3 3 5 2 5-1 5-7 4-11 6 2 14 0 19-5 6-7 7-18 1-25-7-7-17-5-24 0-6 6-8 16-4 23-4-1-9 1-10 4-1 2 0 4 1 4l3 1v1l-17 17-16 18h-1v1 1zm62-44c-1-2-1-4 1-6 1-1 3 0 4 1l-5 5zm-6-29l7 2c0 2-3 4-5 3l-2-2v-3zm-12 6c3-3 7-5 11-6-1 3 1 6 3 7 3 0 6-2 6-5l2 2c6 6 5 14 1 19 0-1-3-2-5-1-3 1-3 5-1 8-6 3-12 3-18-1l-2-5 3-2 1-4c-1-2-3-2-5-2 0-3 1-7 4-10zm-4 11c1 0 3 0 4 2l-1 2-3 1v-5zm-7 16c-4 0-1-4 1-4l7-1 1 1-1 2h-2v1l2-1 1-1h1l1 1-1 2 2 2-1-2 1-2 2 1c0 3 1 7-1 10-1 1-4 2-5 0s0-4 1-6l-2-1v1c0 2-3 3-4 1l-1-2 2-2v-1l-2 1h-2zm-15 21l16-17 1 1c1 2 2 2 4 1-12 11-21 25-34 35l-4-2 17-18z" fill="#E3D3C5"/><path d="M218 381c1 3 3 4 6 4 2-1 3-3 3-5-1-3-3-4-5-4-2 1-4 3-4 5zm5-3l3 2-2 4h-1l-3-3c0-2 1-3 3-3zM230 372l3 3h1l1-1c3 0 4-2 4-5 0-2-3-3-6-3-2 1-4 3-3 6zm4-5c2 0 3 1 3 3 1 1 0 3-1 3h-1v1h-1c-3-1-4-6 0-7zM217 371c1 1 4 3 6 2s4-4 3-6c0-3-4-4-6-3-3 1-4 4-3 7zm3-6c2-1 4 0 5 2 1 1 0 3-2 4-1 1-3 1-4-1-1-1-1-4 1-5zM225 253h-1c-5 1-10 2-15 6s-7 11-7 18 2 15 7 20c4 5 11 7 17 7 16 1 30-12 30-28-1-16-16-27-31-23zm26 12c5 10 3 22-4 30-7 7-19 9-28 6-11-4-16-14-15-25 0-13 9-21 22-21 12 0 21 9 21 21 0 11-8 21-20 21-12 1-21-12-18-23 5-14 25-13 28 1 2 7-3 17-12 14-4-1-7-5-6-9 0-3 1-5 3-6 3-3 8-2 9 3v2l-2 2c-2 1-3-1-2-3l-1-1-1 4 4 2 3-2 1-4c-1-4-4-7-9-6-4 0-7 6-7 10 1 6 6 11 12 10s10-6 10-12c1-13-13-21-24-14-12 7-9 25 2 32 12 6 27-1 30-14 4-13-4-27-17-29 8-1 17 4 21 11zM103 531v1c-5 0-11 2-15 5-6 4-8 11-8 19 1 6 2 14 7 19s11 7 18 7c16 1 30-12 29-28s-16-27-31-23zm27 13c5 9 3 21-5 29-7 7-18 10-28 6-11-4-15-14-15-25 0-13 10-21 23-21 11 1 20 9 20 21 0 11-8 21-19 22-12 0-22-13-18-24 4-14 24-13 28 1 2 7-4 17-12 14-4-1-7-5-7-9 0-3 1-5 3-6 4-3 9-2 10 3v2l-2 2c-2 1-4-1-3-3v-1c-1 1-2 3-1 4l3 2 4-2v-4c0-4-4-7-8-6-5 1-8 6-7 10 0 6 6 11 12 10s9-6 10-12c0-13-14-21-25-14s-9 25 3 32 26-1 30-14-4-27-18-29c9 0 17 4 22 12zM248 206h-1c-9-3-19-5-28-4-4 1-11 3-15 7l-6-9c-1-2-4-3-6-3-3 0-4 4-2 7-4-1-7 0-8 3-2 4 2 7 5 7-2 2-5 6-1 8 5 2 13-4 17-7l3 9 7 9c8 5 18 7 26 8l1-1c5-3 7-8 7-13 2-7 2-14 2-20l-1-1zm-55 13l-4 1c-3-2-3-3-1-4l1-1v-2c-3 0-8-3-5-6 2-2 5-2 7-2l1-1h-1v-5c2-1 4 0 5 1l3 4 5 6-1 1-4-2-3-4h-1l3 5 3 2-7 2 1 1c2-2 5-2 8-2-3 3-7 5-10 6zm47 20l-1 1c-14-4-31-7-34-25-1-9 14-11 20-11l22 3c-1 11 1 24-7 32zM77 224v1c-3 9-5 18-3 28 0 3 2 11 6 14l-9 7c-2 1-3 3-3 6 1 3 5 4 7 2-1 3 0 7 4 8s6-2 6-6c2 3 6 5 8 1 2-5-3-12-7-16l9-3 9-8c5-7 7-17 8-26h-1v-1c-3-4-8-6-13-7-7-1-14-2-20-1l-1 1zm13 55c1 1 2 3 1 4-1 2-3 3-4 1l-1-2c-1 0-2 0-1 1-1 3-3 8-7 5-2-2-1-5-1-8h-2v1h-4v-5l4-3 6-5 1 1-1 4-5 3 1 1 5-4 1-2 2 7 1-1-2-8h1l5 10zm20-47h1c-4 15-7 32-25 35-9 1-11-14-11-20 0-8 2-15 3-22v-1c11 1 24 0 32 8zM72 373l-1 1c-7 6-14 13-18 21-2 4-4 11-3 16H39c-2 1-5 2-6 4-1 3 2 6 5 6-2 2-4 6-2 8 3 4 7 2 9-1 0 4 2 8 6 5 5-3 4-12 3-17l9 2c4 0 8 0 12-2 8-3 16-10 21-17v-1c-1-5-4-10-8-13-4-5-10-9-15-12h-1zm-20 53l-1 4c-3 1-4 1-4-1v-2h-2c-2 2-6 5-8 0-1-2 2-5 3-7l-1-1v1c-2 0-3-1-4-3 0-2 1-3 3-4h5l7-1 1 1-3 3h-6v1h6l2-1-1 7h1c0-3 1-6 3-8l-1 11zm43-28v1c-11 10-23 22-39 15-8-4-2-18 1-23 4-6 10-11 15-16v-1c9 7 20 13 23 24zM52 503h-1c-7 6-14 13-18 22-2 3-4 11-3 16H19c-2 0-4 1-5 3-2 3 1 6 4 6-2 3-3 6-1 9s6 1 8-1c1 3 3 7 6 5 5-3 4-13 4-18l9 2c4 1 7 0 11-1 8-3 16-11 21-17v-1-1c0-5-3-9-7-13-5-4-10-9-16-12l-1 1zm-19 53l-2 4c-3 1-4 0-4-2v-2h-1c-3 2-7 5-8 1-1-3 1-5 2-7 1-1 0-2-1-1-2 0-3 0-4-2 0-3 2-4 4-4l4-1h8v1l-3 2-5 1c-1-1-1 0 0 0h5l3-1-2 7h1c0-3 1-5 3-8v12zm42-28c-10 10-23 23-39 15-8-3-2-17 1-22 4-7 10-12 15-17h1c8 6 19 12 22 24zM185 2c-5 3-3 10-2 15l-6-1c-9 1-18 9-20 18-1 6 0 13 3 19-6 1-13 3-13 10 0 3 4 4 7 3 0 4 2 7 5 8 2 1 5 2 6 1l1-1c1 3 4 5 7 3 6-3 5-9 2-14 7 1 14 0 19-4 10-6 11-18 7-28l-2-3c5 0 10-3 10-8 1-3-2-8-6-7 1-3-1-6-3-8-2 0-6 0-8 2 0-4-3-7-7-5zm-21 22l8-5c1 1 2 1 2 3s-2 2-4 2l-1 1c2 2 0 5-2 4s-3-3-3-5zm11 49c-1 2-2 3-4 3-3 0-4-2-3-5h-2c0 4-6 2-8 1-2-2-2-6-1-8 1-1 0-1-1-1l-1 2h-4c-3-1-2-5-1-7 3-3 7-3 11-4l2 3-1 1-2 1v1l3-1 1-1 3 2c0 2 0 5 2 7l1-1c-1-2-2-3-1-5l5 2c1 3 3 7 1 10zm26-27h-1c0 3-4 5-6 3-3-3 0-4 2-6v-1h-1l-2-3c0-3 2-3 4-2l4 3v6zm-4-18l4 10c-2-1-5-5-8-2-2 2-1 5 2 7-3 1-5 4-2 7 2 2 6 1 7-1l-4 7v-1s0-1 0 0l-2 2h-1v1c-7 6-20 4-27-1a16 16 0 01-2-1c-7-8-7-23 0-31-1 3 1 6 4 5 3 0 4-2 3-5 2 1 4 0 5-2l-2-4a21 21 0 0123 9zm-8-25l3 5-1 1 1 1 2-2c2-1 3-2 4-1 3 1 4 4 4 6h-1v1l1 1 4 1c2 1 2 4 1 6-2 3-5 4-8 5l-3-3 2-1 3-1v-1h-4l-2 2-5-4c1-1 2-3 1-5h-1v3l-1 2-4-2-2-10c1-2 2-5 6-4z" fill="#E3D3C5"/><path d="M177 46l-2 4c1 1 2 3 4 3-2 2-2 6 2 7 4 0 7-6 7-9 0-2-1-4-3-4l-5-1h-3zm4 2c2 0 5-1 5 3l-1 5c-1 1-1 2-3 2-3 1-4-3-2-4l1-1v-1h-1l-3-2c-1-3 2-2 4-2zM160 36c-2 3 0 10 3 13 1 1 3 0 5-1l4-5c0-4-3-7-6-5-1-3-4-5-6-2zm5 3h2c2-1 3 1 3 3l-2 3c-1 2-3 4-5 1a13 13 0 01-2-8c1-4 4-1 4 1zM178 27l-2 4 3 3-1 3c0 1 1 3 3 3 2 1 4 0 6-2 1-2 3-4 2-6 0-2-3-4-5-5h-6zm9 4c2 2-1 6-3 7s-4 1-5-1l2-3h1v-1h-1l-2-1c-3-1-1-4 2-4 2-1 5 1 6 3zM252 611c-1 6 6 9 10 11l-3 4c-6 8-5 19 1 27 4 5 10 8 17 9-3 5-6 13 0 17 2 2 6-1 7-4 2 3 6 3 9 1 2 0 4-2 4-4v-1c3 1 6-1 7-4 1-6-5-9-10-10 5-5 9-11 8-17v-1c2-11-7-19-17-22l-3-1c2-4 3-9-1-12-2-3-7-3-9 0-2-3-5-4-8-2-2 1-4 4-3 6-4-1-8-1-9 3zm5 30l1-9h3c2 1 1 3-1 4-1 1 0 2 1 2 2-1 3 3 1 4s-4 0-5-1zm45 22v5c-2 2-5 2-6 0h-1l-1 1c4 3-1 6-4 7-3 0-6-2-7-5l-1 1 1 2-3 3c-2 2-5-1-5-4-1-4 1-7 3-11h4v2l-1 3h1l1-3v-2l4-1c1 2 4 3 6 3v-1l-5-2 5-4c3 2 8 3 9 6zm-5-37v1c1 2 0 6-3 6-3 1-3-3-3-5h-1l-4-1c-2-1-1-3 1-4l5-1 5 4zm-17-8c4 0 7 1 11 3-3 1-8 1-7 5 0 3 4 4 6 3-1 3 1 6 5 6 2-1 4-4 3-7 2 2 3 5 3 8v-1l-1 1 1 3v1c1 9-9 18-17 20a15 15 0 01-2 1c-11 1-23-8-25-19 2 3 5 3 7 0 2-2 0-5-2-6 1-1 2-3 1-5l-4-1a21 21 0 0121-12zm-24-9c1-1 3 0 5 1l1 1 1-1-1-3 2-3c3-2 6-1 7 1l1 1 1-1 3-2c3 0 4 1 5 3 2 4 1 7-1 10h-4v-2l2-3-1-1-2 4v2l-6 2c-1-2-2-4-4-4v1l2 1 1 2-4 3v-1l-8-4c-2-2-4-5 0-7z" fill="#E3D3C5"/><path d="M282 645c0 1 0 3 2 3h4c1 3 4 5 7 2s0-9-3-11h-5l-3 3-2 3zm4-2c1-2 2-4 5-3 1 1 3 3 3 5l1 3c-2 3-5 2-6-1h1v-1h-1c-1 1-3 2-4 1-3-1-1-3 1-4zM263 652c1 4 9 6 12 6 2-1 2-3 2-5 1-2 0-4-1-6-2-3-7-2-7 1-3-1-7 0-6 4zm6-2l1-1v-1c0-2 3-2 4-1l2 4c0 2 0 5-3 5a13 13 0 01-7-3c-3-3 1-5 3-3zM267 632c0 2 1 4 3 4 1 1 2 0 4-1-1 2 0 3 1 3h5c1-1 2-4 1-6 0-2-1-5-3-6s-5 0-6 1c-3 1-5 3-5 5zm9-4c3 0 4 4 4 7 0 1-2 3-4 2l-1-2v-1-1h-1l-2 2c-3 1-4-3-2-5l6-2zM115 72c-2 2-4 4-4 6v2a226 226 0 0134 32c3 3 5 7 9 9-3 6-3 13 1 18-1 1-1 4 1 5h3c7 7 19 6 25-1 5-6 8-19 0-23 2-2 2-5 0-6l-3-1-2 2c-5-4-14-3-19 1v-1l-43-42h-1l-1-1zm66 71c-6 5-14 5-20 1v-1c8-7 16-14 22-22 8 5 4 18-2 22zm2-28v5l-23 22-2 1c-2 0-3-2-2-4a260 260 0 0024-23v-1h3zm-5 1l-22 22c-11-14 10-30 22-22zm-19 0l-1 1-4 4-19-22a217 217 0 00-23-20l1-2 3-3c13 15 28 29 43 42zM231 650c2 0 5-1 7-3v-1-1a226 226 0 01-13-45l-3-12c5-3 9-9 8-16 2 0 2-3 1-5l-2-2c-3-9-14-14-23-11-7 3-16 13-11 20-2 1-4 3-3 5l3 2h2c2 6 10 9 17 9l16 59 1 1zm-22-95c8-1 15 4 18 10l-1 1c-10 1-20 4-30 7-4-7 6-17 13-18zm-15 24c-1-2 0-3 1-4h1l31-8h2c2 1 2 4 0 4l-1 1a261 261 0 00-31 7l-1 1h-1l-1-1zm4 1c10-1 20-4 30-7 3 17-23 20-30 7zm17 10h2l4-2 6 29a217 217 0 009 29l-1 1-4 1c-4-20-10-39-16-58zM147 518l-1-1-4-1c-2 1-3 3-3 5-2-1-6 0-6 4 1 5 7 6 11 6v11c6 25 14 51 23 75 3 8 6 20 15 21 0 3-2 5-3 8-1 2-2 4-1 6 2 3 5 3 7 1l4 2c3-1 3-4 2-6 3 2 7 1 8-2l-2-6-8-5c2-2 3-3 3-5v-2-1a1335 1335 0 01-25-76l-1-3c-2-7-4-19-13-21h-1l1-1c1-2 2-5 1-8 0-2 0-5-2-6-4-1-5 2-5 5zm49 124c1 2 2 4 0 6-2 1-4 0-5-1h-1l1 1-1 1c1 1 1 4-1 4-2 1-3-1-3-2l-1-1v2l-1 1c-3 0-5-1-5-4 0-2 2-4 3-5l2-6h1c0 3 0 5-2 7h1c2-1 3-5 2-7l1-1 2 4h1l-2-2v-2h1l7 5zm-17-7c-3-2-5-5-6-8 5 3 12 3 17 1 2 7-6 10-11 7zm11-8s-1 0 0 0c-7 2-12 1-18-1a101 101 0 01-3-9c5 3 12 5 19 3l2 7zm-3-8a28 28 0 01-19-4l-3-8c6 4 13 5 19 4l3 8zm-3-9c-7 0-14 0-20-5l-3-9c5 6 13 8 20 6l3 8zm-3-9c-7 1-13-1-19-5h-1l-3-9c5 5 14 6 20 6l3 8zm-3-9c-7 0-16-2-20-8h-1l-2-8c5 5 12 7 20 7l3 9zm-4-10a26 26 0 01-20-9l-1-6c4 5 12 7 19 6l2 9zm-3-10c-7 0-12-2-19-6l-2-9c4 5 12 8 19 6l2 9zm-3-10c-7 2-15-2-19-8v-1l-2-5c5 4 12 6 19 5l2 9zm-3-10c-7 0-13-2-19-7l-1-3v-1-5c4 5 11 7 17 6l1 1 2 9zm-10-22c4 3 6 7 7 11a22 22 0 01-17-7c2-5 6-5 10-4zm-2-11l-2 8 1 1h-3l-1-3v-3h-1v4l1 2h-1l-4-3-1 1 3 1 2 2-2 1-8-2-2-3 2-3 3 1h1v-1c-1-1 0-4 2-4h2l1 2h1l1-1c-1-1-1-4 2-4 2-1 3 2 3 4zM153 229c-29 6-36 42-44 65l-17 56v1c-1 4 3 8 7 9 3 1 7-1 9-5v-1l9-30 1-1 15-49c4-11 10-26 24-28 7 0 13 4 15 11v16c-1 4 0 9 5 11 3 1 6-1 7-4h1c2-12 4-25-1-36l-1-1-1-2c-6-10-18-14-29-12zm-47 125v1c-2 2-5 4-8 3-3-2-4-5-4-8h-1l5-14c1 6 5 11 9 15l-1 3zm5-16l-3 11c-3-2-5-4-6-8-2-3-2-6-2-9l3-11c0 6 3 13 8 17zm4-14l-3 13c-6-7-7-13-7-21h-1l3-9 3 10 5 7zm5-16l-4 14-2-3a29 29 0 01-5-17l1-4 3-11 3 15c1 2 2 5 4 6zm2-6l-1 5c-3-2-4-9-4-11l-2-13h-1l5-14c0 8 2 16 6 22l-3 11zm8-27l-4 14c-4-7-5-15-5-24 1-4 3-9 6-13-2 8 0 16 3 23zm1-2a42 42 0 01-2-24c4-6 9-11 14-14-6 7-8 16-6 25l-6 13zm52 7c-2 2-5 3-8 1-1-2-2-5-1-8h-1l2-10 5 4 4 7a117 117 0 01-1 6zm2-22l-1 13a19 19 0 00-9-9c0-4-1-7-3-10l7 2 6 4zm-3-13l2 10c-2-4-8-4-12-4a15 15 0 00-8-6c6-2 12-2 18 0zm-12-12c5 2 8 5 11 10-7-2-13-2-19 2-4-1-8-1-12 1 4-7 10-12 18-14l2 1zm-5-2c-8 1-14 8-16 16-5 3-8 7-11 11a32 32 0 019-25c6-2 12-3 18-2zM32 589c-24 17-16 53-13 77 3 20 4 39 8 58v1c1 4 6 6 10 5 4 0 6-4 6-8l1-1-5-31v-1l-6-51c-2-12-2-28 10-35 6-4 13-2 17 3 4 4 5 9 7 14v1c2 4 4 8 9 7 3 0 6-3 5-6l1-1c-3-11-7-24-16-31l-1-1-2-2c-10-6-22-5-31 2zm10 133c-1 3-3 6-6 6-4 1-6-2-7-4l-1-1-1-14c3 5 9 8 14 9l1 4zm-3-17l2 12c-3-1-6-2-9-5-3-2-4-5-6-8l-1-11c3 6 8 10 14 12zm-2-14l2 13a32 32 0 01-15-16l-1-9c1 3 4 5 7 7 1 2 5 4 7 5zm-2-17l2 15-4-2a29 29 0 01-11-13l-1-4-1-12c2 5 5 9 9 12 2 2 4 4 6 4zm-1-6l1 5c-3-1-7-6-8-8l-7-11h-1l-2-15c3 7 9 14 15 18l2 11zm-4-28l2 15c-7-5-11-12-14-20h-1v-14c2 8 7 14 13 19zm0-2a42 42 0 01-12-21c1-7 4-13 7-19-2 9 0 19 5 25v15zm50-16c-1 3-3 5-6 4s-4-3-5-6l-3-10 6 2 6 5a136 136 0 012 5zm-7-20l4 12-4-3-8-2-6-7 7-2 7 2zm-9-11l7 8c-4-2-10 0-13 2a15 15 0 00-10-2c5-5 10-7 16-8zm-16-6c6 0 10 2 14 4-6 2-12 5-16 10-4 1-7 3-10 7 0-9 4-15 10-20v-1h2zm-5 1c-6 4-9 13-8 21-3 4-4 9-5 14a32 32 0 01-2-26c4-5 9-8 15-9zM176 444c-5 2-8 8-10 13-4 10 4 22 12 27 7 4 14 6 21 8 5 1 11 3 17 2 12-3 19-18 15-29-1-6-6-9-11-12-7-4-15-7-22-8-7-2-15-4-22-1zm28 5c7 2 15 5 21 10 6 6 6 14 3 22s-9 11-17 11c-7 0-14-3-20-5-13-4-25-13-24-27h1c2-8 5-15 14-15 8-1 16 1 22 4z" fill="#E3D3C5"/><path d="M180 460c-6 8 11 15 16 17 4 2 21 8 23 0l1-1v-2-5c-2-5-9-7-14-9-6-3-24-11-26 0zm22 1l9 3 3 2 4 3v5h-1v1l-1 3c-4 3-14 0-18-2-4-1-19-8-18-14l1-1v-1c4-7 15-2 21 1zM214 488v1h-2c0 1 1 2 2 1l1-2h-1zM213 485l-1 2h1v-1h1l1-1h-2zM219 486v1l-1-1c0-1 0-1 0 0l1 1 1-1h-1zM180 450l1 1 1 1h-2 3c0-1-2-3-3-2zM176 451v2l1-1h1v-1h-2zM179 447l1 1h-2l2 1v-2h-1zM177 455l1 2-1 1 2-1-2-3v1zM171 457c-1 1 0 2 1 2s1 0 0 0v-2h1v-1l-2 1zM190 449l1 1h-1 2l-1-2-1 1zM195 450c-1 1 0 2 1 2v-1l-1-1h2v-1l-2 1zM192 479l1 1v1h-1 2c1-1-1-2-2-2zM188 483h3l-2-1 1-1v-1c-1 0-2 1-2 3zM225 466v1l1 1h-1l-1 1c1 1 2 1 3-1 1-1-1-2-2-2zM221 468h1v-1l1-1c-1-2-3 1-2 2zM224 462l-2-1v1l2 1h1v-2l-1 1zM211 119c-5 3-8 8-10 14-5 10 4 21 12 27l20 7c6 2 12 3 18 2 12-2 19-18 15-29-2-5-6-9-11-12l-22-8c-7-1-15-4-22-1zm28 5c7 3 15 5 21 11 6 5 6 14 3 22-3 7-9 11-17 10-7 0-14-2-20-4-13-4-25-13-24-27h1c2-8 5-15 14-16 7 0 15 2 22 4z" fill="#E3D3C5"/><path d="M215 136c-6 8 11 15 16 17 4 2 21 7 23 0l1-1v-3-4c-2-6-9-7-14-9-6-3-24-11-26 0zm22 0l9 4 3 1 4 3v5l-1 1v1l-1 2c-4 3-14 0-18-1-4-2-19-9-18-15l1-1c4-8 15-2 21 0zM249 164v1l-2-1v1l2 1 1-3-1 1zM248 161l-1 2h1v-2h2-2zM254 161v1l-1-1c-1 1 0 2 1 2l1-2h-1zM215 126h1l1 1h-1l-1 1c1 1 2 1 3-1 0-1-2-2-3-1zM211 127v2l1-1 1-1c0 1 0 0 0 0h-2zM214 123l1 1h-2 2v-2l-1 1zM212 130l1 2h-1v1h2v-1l-2-2s-1 0 0 0zM206 132c-1 1 0 3 1 3v-1-1l1-1c0 1 1 0 0 0h-2zM225 124l1 2-1-1v1h2v-1l-1-1h-1zM230 125c-1 1 0 2 1 2l-1-1 1-1h1-2zM227 155l1 1v1h-1c1 1 2 0 2-1l-2-2v1zM223 158c1 1 2 2 3 1v-1h-2l1-2-2 2zM260 142l1 2h-2 3c0-1-1-3-2-2zM256 144l1-1v-1h1v-1c-1-1-3 2-2 3zM259 137v1l-2-1s-1 0 0 0l2 2 1-1-1-1c0-1 0 0 0 0zM69 663c-5 3-8 8-9 14-5 10 3 22 12 27 6 4 13 6 20 7 6 2 12 3 18 2 12-2 18-18 15-28-2-6-7-10-12-12-7-4-14-7-22-9-7-1-15-3-22-1zm29 5c7 3 15 6 20 11 7 6 6 14 3 22-3 7-9 11-17 11l-20-5c-13-4-25-13-23-27 3-8 5-15 15-16 7 0 15 2 22 4z" fill="#E3D3C5"/><path d="M73 680c-6 8 11 15 16 17s21 7 24 0v-1l1-2v-5c-2-6-10-7-14-9-7-3-24-11-27 0zm23 0l8 4 4 1 3 4v4l-1 1 1 1-2 2c-4 4-13 0-17-1-5-2-20-8-18-14v-2c5-8 16-2 22 0zM108 708l-1 1h-1-1l2 1c1 0 2-1 1-2 0-1-1-1 0 0zM106 705l-1 2h1v-2h0zM113 706h-1l-1-1 1 2 2-2-1 1zM74 670v1h0l-1 1h3c1-2-1-3-2-2zM69 671v2l1-1h1v-1h-2zM73 667v1h-1-1l3 1-1-3v1zM70 674l2 2-1 1c-1 0-1 0 0 0h1v-1l-2-2zM64 677l1 2 1-1-1-1h1l1-1c-1-1-2 0-3 1zM84 668l1 2h-2 3v-1l-2-1s-1 0 0 0zM88 670l1 2v-1-1h1v-1l-2 1zM85 699l2 1-1 1h-1 2c1-2 0-2-1-3l-1 1zM82 702c0 1 1 2 2 1 1 0 0-1 0 0l-2-1 1-1v-1c-1 0-2 1-1 2zM119 686c-1 0-1 0 0 0v2h-1l-1 1 3-1c1-1 0-2-1-2zM115 688v-1-1h1v-1c-1-1-3 2-1 3zM117 681v1l-1-1h-1l2 2 1-1v-1h-1zM197 317c-6 6-12 14-5 22 7 9 19 8 28 5l1-1h1c2-3 1-8 1-11-1-6-4-11-8-15-2-3-4-7-8-7s-7 4-10 7zm15-1l4 5c4 5 8 15 4 21-7 2-15 3-22 0-4-3-7-7-7-11 0-5 4-9 7-12 3-2 5-5 9-6 3 0 3 1 5 3z" fill="#E3D3C5"/><path d="M214 335h1v1l-1 1v1l2-2v-1l-2-1v1zM209 339l3 1-1-1-1-1 1-1c-1-1-2 0-2 2zM217 338l-1 1 1 1c1 0 1 0 0 0v-1h1v-1h-1zM197 329l-1 1-2-1v1l1 1h1l2-2h-1zM196 325l-1 2c-1 1 0 1 0 0l1-1 2 1-2-2zM199 325h1l-1-1 1-1h-1v2zM203 317v1c1 0 2 1 1 2 0 0 0 1 0 0 2-1 1-3-1-3zM179 520c-6 6-12 14-5 23 6 8 19 7 28 4l1-1c3-3 2-7 1-11-1-6-3-11-7-15-2-3-5-6-8-6-4-1-8 4-10 6zm15-1l4 5c3 5 7 16 3 21v1c-7 1-15 2-22-1-4-2-7-7-6-11 0-5 3-8 6-11s5-6 9-7c3 0 4 1 6 3z" fill="#E3D3C5"/><path d="M196 538l1 1-1 1v1l2-2-1-1-1-1v1zM191 542l2 1v-1h-2l1-2h1c-2-1-3 1-2 2zM198 541l-1 1 2 1-1-1h1l-1-1zM178 532v1h-2c0-1-1 0 0 0l1 1h1l1-2h-1zM178 528l-2 2h1l1-1 1 1h1l-2-2zM180 528h2l-1-1v-1l-1 2zM185 520v3h1l-1-3zM104 482c-9-1-19-2-22 9-2 10 6 19 13 25h1l1 1c4 0 7-3 10-6 4-4 6-9 8-14 1-4 2-8 0-11s-7-3-11-4zm9 12l-1 6c-3 5-9 15-15 15h-1c-5-5-11-11-12-18 0-5 1-10 5-12 4-3 9-2 13-1s8 0 10 3 2 4 1 7z" fill="#E3D3C5"/><path d="M99 506v2h-2c0-1 0 0 0 0l2 1 1-1v-2h-1zM93 504c-1 1 0 2 1 3v-2h2c-1-2-2-2-3-1zM98 510h-1l-1 2 1-1v-1l1 1v-1zM94 488l-2 1v-2h-1v1l1 1h2v-1zM96 486h-2 2v2c0 1 0 1 0 0v-2zM98 487l1 2s1 0 0 0v-1h1v-1h-2zM107 487s-1 0 0 0l-2 2v1c2 0 4-2 2-3zM268 86c-6 6-12 14-6 22 7 8 19 7 29 4h1c2-4 2-8 1-12-1-6-4-10-7-15-2-2-5-6-9-6s-7 4-9 7zm15-1l3 4c4 5 8 16 4 22-7 1-15 3-22-1-4-2-7-6-7-11 1-4 4-8 7-11s5-6 9-6c3 0 4 0 6 3z" fill="#E3D3C5"/><path d="M284 104h1l1 1-1 1c-1 0-1 0 0 0l1-1v-1l-1-1-1 1zM279 107c1 1 2 2 3 1 0 0 0-1 0 0l-2-1 1-1v-1l-2 2zM287 106l-1 1 2 2-1-1v-1h1l-1-1zM267 97l-1 2-1-1-1 1h3l1-2h-1zM266 94l-1 2 2-1 1 1 1-1-3-1zM269 93l2 1v-1h-2l1-1v-1c-1 0-2 1-1 2zM273 86h1v2l1 1c1-1 0-4-2-3zM104 415c-14 7-10 28 5 31l1-1c-9 14 7 31 21 24 18-4 22-28 20-44v-1c-3-8-12-9-20-10-9-2-19-4-27 1zm23 54c-5 1-10 0-13-4-6-5-6-13-3-19h3c-3 3-4 9-2 14 3 6 9 9 15 9zm12-6c-5 4-14 6-20 2-7-5-8-15-1-20 1-1 0-2-1-2v1l-9-1c-3-1-5-5-6-8-2-8 3-14 10-16 12-3 26 2 37 6 0 13 1 29-10 38zm-9-48c6 1 15 2 18 8-7-3-16-6-24-7-7 0-16 0-21 6-4 5-4 12-2 17l3 3c-4-2-7-7-7-12-1-7 5-14 12-16 6-2 14 0 21 1z" fill="#E3D3C5"/><path d="M107 434v1h-1v1h2v-3l-1 1zM105 431v2c0 1 1 0 0 0v-2h3-3zM111 434c-1 1 0 2 1 3v-3l1 1 1-1h-3zM142 432l2 3h-1c-1 0-1 0 0 0h1v-1l-1-2h-1z" fill="#E3D3C5"/><path d="M140 430l1 3v-1-2h3-4zM141 438v2h2l-1-1h-1l1-1h-1zM131 460v3h1c1-1 1-4-1-4v1zM134 460h1l-1-1 1-1v-1c-1 0-2 2-1 3zM104 597c-14 7-10 28 5 31l1-1v1c-9 13 7 30 21 23 18-4 22-28 20-44v-1c-3-8-12-9-20-10-9-2-19-4-27 1zm23 54c-5 1-10 0-13-4-6-5-6-13-3-19h3c-3 3-4 9-2 14 3 6 9 9 15 9zm13-6c-6 4-15 6-21 2-7-5-8-15-1-20 1-1 0-2-1-2v1l-9-1c-3-1-5-5-6-8-2-8 3-14 10-16 12-3 26 2 37 6 0 13 1 29-9 38zm-10-48c6 1 15 2 18 8-7-3-16-6-24-7-7 0-16 0-21 6-4 5-4 12-2 17l3 3c-4-2-7-7-7-12-1-7 5-14 12-16 6-2 14 0 21 1z" fill="#E3D3C5"/><path d="M107 616v1h-1v1h2v-3l-1 1zM105 613v2c0 1 1 0 0 0v-2h3-3zM111 616c-1 1 0 2 1 3v-2h1l1-1h-3zM142 614l2 3h-1c-1 0-1 0 0 0h1v-1l-1-2h-1z" fill="#E3D3C5"/><path d="M140 612l1 3v-1-2h3-4zM141 620v2h2l-1-1h-1l1-1h-1zM131 642v3h1c1-1 1-4-1-4v1zM134 642h1l-1-1 1-1v-1c-1 0-2 2-1 3zM263 255c-1 4 0 8 4 9 5 2 11-1 14-5l1-1v-1l1-1-6-7-7-4c-4-1-7 7-7 10zm10-6l8 8c-3 3-7 5-11 6-6 0-7-6-5-11l3-4c2-2 3-1 5 1z" fill="#E3D3C5"/><path d="M277 256v2h1c1-1-1-3-1-2zM273 259h1v-1h1v-1c-1 0-3 1-2 2zM273 253l2 2h-1v1l2-1v-1l-2-1h-1zM57 347c-4 1-8 3-8 8s4 9 9 11h1v1h2l5-8c1-2 3-5 2-7 0-5-8-5-11-5zm9 9l-6 9v1c-4-2-7-5-9-9-2-6 4-9 9-8l5 1c2 2 1 4 1 6z" fill="#E3D3C5"/><path d="M59 361v1h-1v1c1 1 2-1 1-2zM56 358v1l2 1-2-2zM61 357v2l-1-1h-1l2 2 1-3h-1zM24 370c-1 4 1 8 5 10 5 1 10-2 13-5l1-1v-1h1v-1l-6-7-6-5c-5-1-7 7-8 10zm11-6l7 8 1 1c-3 3-7 5-11 5-7 0-7-6-5-10l2-5c2-2 4 0 6 1z" fill="#E3D3C5"/><path d="M38 372h1v1s0 1 0 0c1 0 0-2-1-1zM34 374l2 1c0-1 0-1 0 0l-1-1 2-1v-1l-3 2zM35 369l1 1-1 1c0-1 0 0 0 0 1 1 2 0 2-1l-2-2v1zM138 299l-1 1a644 644 0 01-2 69l-2 21 1 5h1c2 3 6 5 9 6 5 2 11 2 16 2 4 0 13-2 14-7v-1c2-15 2-31 3-47l2-48-1-1c1-9-14-11-21-12-8 0-20 1-19 12zm31 100c-4 3-12 2-17 2l-8-2a186 186 0 01-8-5c-5-9 13-9 17-8l9 2c3 0 15 5 7 11zm-13-110c7 1 20 2 21 11l-2 48-2 44c-2-4-7-5-10-6-5-2-11-3-16-2-3 0-9 1-12 4l2-18a584 584 0 002-70c0-10 10-11 17-11z" fill="#E3D3C5"/><path d="M138 390v1c-3 6 12 8 14 8 5 1 18 2 19-5l-1-1c0-3-9-4-11-4-7-2-15-3-21 1zm17-1c2 0 14 2 14 5-4 9-32 3-31-3 5-3 11-3 17-2zM247 6a638 638 0 01-34 61c-3 5-8 11-11 18-1 0-2 2-2 5 1 4 4 7 7 10l12 8c4 2 13 5 16 1v-1l25-40 23-42v-1c5-8-7-17-13-20-7-5-19-9-23 1zm-17 103c-5 1-12-3-16-6l-7-5a194 194 0 01-5-8c0-10 16-2 19 0l8 6c2 2 10 11 1 13zM268 6c6 3 17 11 14 19l-24 42-22 38v-1c0-3-4-7-6-9-4-4-8-7-14-10-2-1-8-2-12-1l10-15a582 582 0 0035-62c3-9 13-5 19-1z" fill="#E3D3C5"/><path d="M206 87l-1 1c-5 3 7 12 9 14 4 3 15 9 19 4v-1c1-3-6-8-8-9-5-5-12-10-19-9zm15 7c2 1 13 8 11 11-8 6-31-12-26-17 6 0 11 3 15 6zM250 666h-1a639 639 0 01-67 15c-7 1-15 1-21 4-2-1-3 0-5 2-3 3-3 8-3 11-1 5 0 10 1 15 2 4 6 13 11 12l47-8 47-10v-1c10-2 8-17 7-23-2-8-6-20-16-17zm-89 55c-4-3-6-11-6-15v-9l2-9c7-7 12 11 13 15v9c0 3-1 15-9 9zm103-39c1 7 3 20-5 23h-1l-46 10-43 8c2-3 3-7 3-11 0-5 0-11-2-16-1-3-4-8-7-10 6 0 12-2 17-3a600 600 0 0070-15c9-3 12 7 14 14z" fill="#E3D3C5"/><path d="M162 689h-1c-7-2-5 14-5 16 1 5 2 17 10 17v-1c3-1 2-10 2-12 0-7-1-15-6-20zm5 16c0 2 2 15-2 16-9-3-11-31-4-31 4 4 5 9 6 15zM126 16l-1-1a643 643 0 01-68-6L36 6h-6v1c-3 2-5 6-6 9l-3 15c0 4 1 14 6 15h1c15 3 31 4 47 6l47 5 1-1c9 1 12-13 13-20 1-8 1-21-10-20zM24 41c-2-4-1-12-1-17l3-8 5-8c9-4 8 14 8 18l-3 9c-1 2-6 14-12 6zm111-6c-1 6-4 20-12 20h-1l-47-5-44-5c4-2 5-6 7-10 2-5 3-10 3-16 0-3-1-8-4-12l18 3a583 583 0 0070 7c10 0 10 11 10 18z" fill="#E3D3C5"/><path d="M35 10h-1c-5-3-9 11-9 14-1 5-3 17 4 19l1-1c3 0 5-8 5-10 2-7 4-15 0-22zm0 17c0 2-3 15-6 14-8-4-1-32 5-30 3 5 2 10 1 16zM243 445c-6 8-6 20 1 28l-4 2v1c1 3 3 6 7 5l2-2 1-1h1v1c5 5 16 4 21 0 2-1 2-3 2-3 7-6 13-13 16-21 4-7 6-17 1-24-6-7-15-4-22-2-9 4-17 9-24 17v-1h-2zm22-12c7-3 20-9 25 1 4 7 1 17-3 24-3 6-8 11-13 17-2-3-11-4-15-5 3-4 4-9 5-14l-1-1c-5 0-10 2-14 4l-3-12c5-6 11-11 19-14zm-18 28l2 1c1-2 11-8 13-4l-2 7-3 6v1l10 1c3 1 4 0 3 3s-1 3-4 4c-4 1-8 0-12-1-1-1-4-4-5-3l-2 2c-2 4-4 0-6-2l5-3-1-1c-5-7-6-17-1-25 2 5 4 9 3 14z" fill="#E3D3C5"/><path d="M269 464v1l2-2 1 1v1l-4 2v1l4-1 2-4c0-3-5-1-5 1zM253 450l2 1 1-3 2-1v1l-5 5h1l4-2c1-1 2-3 1-5l-2-1-4 5zM269 447l1 1 2-2 2-1v2l-5 4 1 1c1-1 7-5 5-8-1-3-5 2-6 3zM261 438l1 1 1-2v1c1 1-1 2-2 3h1c1-1 4-2 2-4-1-2-4 0-3 1zM280 456h1l3-2c0 2-2 4-4 5l1 1 5-7h-1c-2 0-5 1-5 3zM281 442h1l4-2c0 2-1 4-3 5v1c3-1 5-4 5-7h-1c-2-1-5 0-6 3zM274 436l2-1 1-1 2 1-3 2-2 3c-1 0 0 1 0 0l5-4c1 0 2-1 1-2-1-3-5 0-6 1v1zM46 442c-10 2-17 10-18 20h-5c-1 3-2 7 2 9l3-1h1a55 55 0 000 2c0 7 9 14 16 14l3-1c9 1 18 0 26-4 7-3 16-9 17-17 0-9-8-13-15-16-9-4-19-6-29-5l-1-1zm24 6c8 2 21 7 19 18-3 8-12 13-19 15l-21 3c0-3-6-10-8-13 5-1 9-4 13-7v-1c-4-4-8-6-13-7 3-3 5-7 6-11 8-1 16 0 23 3zm-32 8l1 2c2 0 13 2 12 6l-5 4-7 2v1l6 8c1 2 2 2 0 4s-3 1-6 0c-4-2-6-5-8-9 0-2 0-5-2-6l-2 1c-4 1-4-3-3-6l5 1v-1h1c0-9 7-17 15-19-1 5-3 9-7 12z" fill="#E3D3C5"/><path d="M52 473v1h2l1 2h-1l-5-1v1l3 1 4-1c2-2-2-4-4-3zM50 452l1 2 3-1h2l-1 1h-6l-1 1 5 1 4-2c1-2 0-2-1-3l-6 1zM64 461v1h3l2 1-1 1h-7v1c2 0 9 1 9-2 1-3-5-3-6-2zM64 449v1l2-1v1c0 2-2 1-3 1s-1 0 0 0c1 1 4 1 5-1 0-3-3-3-4-1zM66 475v1h4c-2 1-4 2-6 1v1c3 1 6 0 8-1v-1c-2-1-4-2-6-1zM77 465v1l5 1c-2 2-5 3-7 2v1c3 1 6 0 8-2v-1c-1-2-4-3-6-2zM76 456l1 1h2c1 0 2 1 0 2h-7l7 1 2-1c2-3-3-4-5-4v1zM64 108c-10 2-18 10-19 20l-4-1-1 1c-1 3-2 7 2 8h5v1c-1 8 8 15 15 15l4-1c8 0 17-1 26-4 7-3 15-9 16-17 1-9-8-13-15-16-9-4-18-6-28-5l-1-1zm24 5c7 3 21 8 18 19-2 7-11 13-18 15s-15 3-22 3c1-3-5-10-8-13 5-1 9-4 13-7v-2c-3-3-8-5-13-6 3-3 5-7 6-11 8-1 16 0 24 2zm-32 9l1 1c2 1 13 3 12 6 0 2-5 4-6 4l-7 3v1l6 8c1 2 3 2 0 4h-5c-4-2-6-6-9-9 1-2 0-6-1-6h-2c-5 2-4-2-4-5l5 1 1-1v-1c1-9 7-16 16-18-1 4-3 9-7 12z" fill="#E3D3C5"/><path d="M70 139v1h2v1l-1 1-4-1h-1l4 2 4-1c2-3-2-5-4-3zM68 118v1l4-1h1v2h-7v1l5 1 4-3c0-1 0-2-2-2l-5 1zM81 127v1h5v1h-1l-6 1c-1 0-1 0 0 0 2 1 8 2 9-1s-5-3-7-2zM81 115h3v1l-4 1c0-1 0 0 0 0 2 1 5 1 5-1 0-3-3-3-4-1zM83 140l1 1 4 1-6 1v1c2 1 5 0 7-1v-1c-1-2-4-3-6-2zM94 131v1l5 1c-2 2-4 2-6 2h-1c3 2 6 1 8-1l1-1c-2-2-5-4-7-2zM93 122l2 1h1l1 1h-7v1l6 1c1 0 2 0 3-2 1-3-4-3-6-3v1zM13 58c-13 7-9 28 5 31h1c-9 13 8 31 22 23 18-4 21-28 19-44l1-1c-4-8-13-9-21-10-8-2-19-4-27 1zm24 54c-5 1-10 0-14-3-6-6-6-14-2-20h3c-4 3-5 9-2 14 2 6 8 9 15 9zm12-6c-6 4-15 6-21 2-7-5-8-15-1-20h1c1-1 0-2-1-2l-1 1-9-1c-3-1-5-5-5-8-2-8 3-14 10-16 11-3 26 2 36 6h1c0 13 0 29-10 38zM39 58c7 1 15 2 19 8-8-3-16-6-25-7-7 0-15 0-20 6-5 5-5 12-2 17l2 3c-4-2-7-6-7-12 0-7 5-14 12-16s14 0 21 1z" fill="#E3D3C5"/><path d="M17 77v1h-1l-1 1h3l-1-3v1zM15 74l-1 2h1v-2l2 1v-1h-2zM21 77v1h2v-1h-2zM52 76l1 2h-1 2v-1l-2-2v1zM50 73v3l1-1-1-2h3c0 1 0 0 0 0h-3zM50 81l1 2h2c1 0 0 0 0 0l-2-1v-1h-1zM40 103c1 0 2 2 1 3 2-1 1-4-1-4v1zM43 103h2l-1-1 1-1v-1c-2 0-3 2-2 3z" fill="#E3D3C5"/></svg>