
<svg width="48" height="48" viewBox="0 0 48 48" fill="none" xmlns="http://www.w3.org/2000/svg">
<g filter="url(#filter0_d)">
<path fill-rule="evenodd" clip-rule="evenodd" d="M24 40C12.9412 40 4 31.0588 4 20C4 8.94118 12.9412 0 24 0C35.0588 0 44 8.94118 44 20C44 31.0588 34.9412 40 24 40ZM24 2.35294C14.2353 2.35294 6.35294 10.2353 6.35294 20C6.35294 24.8623 8.30738 29.2579 11.4754 32.4459C13.4754 31.5047 19.294 28.3529 19.294 27.0588V25.2941C18.5882 24.7059 17.4117 23.4118 17.1764 21.5294C16.5882 20.9412 15.647 19.8824 15.647 18.4706C15.647 17.6471 15.9999 16.9412 16.2352 16.4706C15.9999 15.5294 15.7646 13.7647 15.7646 12.3529C15.7646 7.7647 18.9411 4.70588 23.9999 4.70588C25.4117 4.70588 27.1764 5.05882 28.1176 6.11765C30.3529 6.58823 32.2352 9.17647 32.2352 12.3529C32.2352 14.3529 31.8823 16 31.647 16.8235C31.8823 17.1765 32.1176 17.7647 32.1176 18.4706C32.1176 20 31.294 21.0588 30.5882 21.5294C30.3529 23.4118 29.294 24.5882 28.5882 25.1765V27.0588C28.5882 28.1176 30.7058 28.9412 32.5882 29.6471C34.2093 30.2443 35.8924 30.9035 37.009 31.9387C39.8907 28.7993 41.6471 24.6094 41.6471 20C41.6471 10.2353 33.6471 2.35294 24 2.35294ZM24 37.6471C19.9384 37.6471 16.2025 36.2833 13.224 33.9876C16.0475 32.8112 21.647 30 21.647 27.1765V24.1176L21.0587 23.7647C21.0587 23.7406 20.9943 23.6817 20.892 23.5882C20.4954 23.2261 19.5293 22.3437 19.5293 20.9412V20.3529L19.0587 20C18.7058 19.7647 17.9999 19.0588 17.9999 18.4706C17.9999 18 18.2352 17.6471 18.3529 17.6471L18.8234 17.0588L18.7058 16.4706C18.7058 16.4706 18.1176 13.8824 18.1176 12.3529C18.1176 9.05882 20.3529 7.05882 23.9999 7.05882C25.4117 7.05882 26.2352 7.52941 26.2352 8L26.5881 8.58823H27.294C28.3529 8.58823 29.647 10.2353 29.647 12.4706C29.647 14.8235 29.0587 16.7059 29.0587 16.7059L28.8234 17.2941L29.294 17.7647C29.4117 17.8824 29.647 18.2353 29.647 18.4706C29.647 19.4118 29.0587 19.7647 28.9411 19.7647L28.2352 20.1176V20.9412C28.2352 22.8235 26.8234 23.7647 26.8234 23.7647L26.2352 24.1176V27.1765C26.2352 29.8717 29.1534 30.9328 31.7342 31.8713L31.7646 31.8824C33.1467 32.343 34.601 32.8759 35.3361 33.5374C32.2724 36.104 28.3205 37.6471 24 37.6471Z" fill="#E4BFA0"/>
</g>
<defs>
<filter id="filter0_d" x="0" y="0" width="48" height="48" filterUnits="userSpaceOnUse" color-interpolation-filters="sRGB">
<feFlood flood-opacity="0" result="BackgroundImageFix"/>
<feColorMatrix in="SourceAlpha" type="matrix" values="0 0 0 0 0 0 0 0 0 0 0 0 0 0 0 0 0 0 127 0"/>
<feOffset dy="4"/>
<feGaussianBlur stdDeviation="2"/>
<feColorMatrix type="matrix" values="0 0 0 0 0 0 0 0 0 0 0 0 0 0 0 0 0 0 0.05 0"/>
<feBlend mode="normal" in2="BackgroundImageFix" result="effect1_dropShadow"/>
<feBlend mode="normal" in="SourceGraphic" in2="effect1_dropShadow" result="shape"/>
</filter>
</defs>
</svg>
