
<svg width="40" height="40" viewBox="0 0 40 40" fill="none" xmlns="http://www.w3.org/2000/svg">
<path fill-rule="evenodd" clip-rule="evenodd" d="M20 40C8.94118 40 0 31.0588 0 20C0 8.94118 8.94118 0 20 0C31.0588 0 40 8.94118 40 20C40 31.0588 30.9412 40 20 40ZM20 2.35294C10.2353 2.35294 2.35294 10.2353 2.35294 20C2.35294 24.8623 4.30738 29.2579 7.47545 32.4459C9.47545 31.5047 15.294 28.3529 15.294 27.0588V25.2941C14.5882 24.7059 13.4117 23.4118 13.1764 21.5294C12.5882 20.9412 11.647 19.8824 11.647 18.4706C11.647 17.6471 11.9999 16.9412 12.2352 16.4706C11.9999 15.5294 11.7646 13.7647 11.7646 12.3529C11.7646 7.7647 14.9411 4.70588 19.9999 4.70588C21.4117 4.70588 23.1764 5.05882 24.1176 6.11765C26.3529 6.58823 28.2352 9.17647 28.2352 12.3529C28.2352 14.3529 27.8823 16 27.647 16.8235C27.8823 17.1765 28.1176 17.7647 28.1176 18.4706C28.1176 20 27.294 21.0588 26.5882 21.5294C26.3529 23.4118 25.294 24.5882 24.5882 25.1765V27.0588C24.5882 28.1176 26.7058 28.9412 28.5882 29.6471C30.2093 30.2443 31.8924 30.9035 33.009 31.9387C35.8907 28.7993 37.6471 24.6094 37.6471 20C37.6471 10.2353 29.6471 2.35294 20 2.35294ZM20 37.6471C15.9384 37.6471 12.2025 36.2833 9.22402 33.9876C12.0475 32.8112 17.647 30 17.647 27.1765V24.1176L17.0587 23.7647C17.0587 23.7406 16.9943 23.6817 16.892 23.5882C16.4954 23.2261 15.5293 22.3437 15.5293 20.9412V20.3529L15.0587 20C14.7058 19.7647 13.9999 19.0588 13.9999 18.4706C13.9999 18 14.2352 17.6471 14.3529 17.6471L14.8234 17.0588L14.7058 16.4706C14.7058 16.4706 14.1176 13.8824 14.1176 12.3529C14.1176 9.05882 16.3529 7.05882 19.9999 7.05882C21.4117 7.05882 22.2352 7.52941 22.2352 8L22.5882 8.58823H23.294C24.3529 8.58823 25.647 10.2353 25.647 12.4706C25.647 14.8235 25.0587 16.7059 25.0587 16.7059L24.8234 17.2941L25.294 17.7647C25.4117 17.8824 25.647 18.2353 25.647 18.4706C25.647 19.4118 25.0587 19.7647 24.9411 19.7647L24.2352 20.1176V20.9412C24.2352 22.8235 22.8234 23.7647 22.8234 23.7647L22.2352 24.1176V27.1765C22.2352 29.8717 25.1534 30.9328 27.7342 31.8713L27.7646 31.8824C29.1467 32.343 30.601 32.8759 31.3361 33.5374C28.2724 36.104 24.3205 37.6471 20 37.6471Z" fill="#E4BFA0"/>
</svg>
