<svg fill="none" xmlns="http://www.w3.org/2000/svg">
<path d="M0 37.8939C2.74149 36.6083 10.7173 32.3028 10.7173 30.535V28.1243C9.74971 27.3208 8.13706 25.5529 7.81454 22.9816C7.00821 22.178 5.7181 20.7316 5.7181 18.8031C5.7181 17.6781 6.20189 16.7139 6.52442 16.071C6.20189 14.7854 5.87937 12.3747 5.87937 10.4462C5.87937 4.17847 10.2335 0 17.1679 0C19.103 0 21.522 0.482131 22.8121 1.92852C25.8761 2.57137 28.4564 6.10699 28.4564 10.4462C28.4564 13.1782 27.9726 15.4282 27.65 16.5532C27.9726 17.0353 28.2951 17.8389 28.2951 18.8031C28.2951 20.8923 27.1662 22.3387 26.1987 22.9816C25.8761 25.5529 24.4248 27.1601 23.4572 27.9636V30.535C23.4572 31.9814 26.3599 33.1063 28.9402 34.0706C31.1624 34.8865 33.4694 35.7869 35 37.2011L32.707 39.385C31.6992 38.4813 29.7058 37.7534 27.8113 37.1241L27.7696 37.109C24.2319 35.827 20.2319 34.3775 20.2319 30.6957V26.5172L21.0382 26.0351C21.0382 26.0351 22.9734 24.7494 22.9734 22.178V21.0531L23.941 20.5709C24.1022 20.5709 24.9085 20.0888 24.9085 18.8031C24.9085 18.4817 24.586 17.9996 24.4248 17.8389L23.7797 17.196L24.1022 16.3925C24.1022 16.3925 24.9085 13.8211 24.9085 10.6069C24.9085 7.55339 23.1346 5.30344 21.6833 5.30344H20.7157L20.2319 4.49989C20.2319 3.85705 19.103 3.21421 17.1679 3.21421C12.1687 3.21421 9.10465 5.94628 9.10465 10.4462C9.10465 12.5354 9.91097 16.071 9.91097 16.071L10.0722 16.8746L9.42718 17.6781C9.26591 17.6781 8.94338 18.1603 8.94338 18.8031C8.94338 19.6067 9.91097 20.5709 10.3948 20.8923L11.0398 21.3745V22.178C11.0398 24.094 12.3641 25.2993 12.9076 25.794C13.048 25.9217 13.1363 26.0021 13.1363 26.0351L13.9426 26.5172V30.6957C13.9426 34.5527 6.26718 38.3929 2.39684 40L0 37.8939Z" fill="#E4BFA0"/>
</svg>
