<svg viewBox="0 0 50 48" fill="none" xmlns="http://www.w3.org/2000/svg"><path d="M50 38l-4-28H4L0 38v1c0 3 9 9 25 9 14 0 25-6 25-9v-1z" fill="#A06439"/><path d="M46 10c0 3-9 7-21 7-13 0-21-4-21-7 0-4 9-7 21-7s21 3 21 7z" fill="#FAE4D8"/><path d="M42 10c0 2-8 4-17 4-11 0-17-2-17-4 0-3 7-5 17-5 9 0 17 2 17 5z" fill="#A06439"/><path opacity=".3" d="M25 6c9 0 16 2 17 4 0-3-8-5-17-5C15 5 8 7 8 10c1-2 8-4 17-4z" fill="#000"/><path opacity=".3" d="M35 10c1 2-8 2-12 2s-10 0-10-2l11-1 11 1z" fill="#000"/><path d="M26 10s-3-4 11-6c0 0-2 7-11 6zM22 10s4-3-10-6c0 0 1 7 10 6z" fill="#ACC441"/><path d="M29 4c1 3-1 7-4 7-3 1-6-1-7-4 0-3 1-6 4-7 3 0 7 1 7 4z" fill="#E36C59"/><path opacity=".2" d="M27 1l1 2c1 3-2 7-5 7h-3c1 1 3 2 5 1 3 0 5-4 4-7 0-2-1-3-2-3z" fill="#231F20"/></svg>