<svg viewBox="0 0 441 106" preserveAspectRatio="xMidYMid meet" fill="none" xmlns="http://www.w3.org/2000/svg">
<path fill-rule="evenodd" clip-rule="evenodd" d="M98.0004 45.7594C99.7597 45.7594 100.653 47.1081 101.895 49.1191C103.137 51.0243 103.997 60.7594 102.569 65.8027C103.951 62.1725 105.704 58.8626 107.83 55.873C110.062 52.8834 112.559 50.481 115.323 48.6659C118.192 46.7441 121.062 45.7831 123.931 45.7831C126.801 45.7831 129.086 46.6373 130.786 48.3456C132.593 49.9472 133.497 51.7623 133.497 53.7909C133.497 59.8769 125.472 64.041 109.424 66.2831L109.105 69.4863V72.8495C109.105 75.6256 109.743 77.761 111.018 79.2558C112.294 80.7506 114.313 81.498 117.076 81.498C119.096 81.498 121.168 80.9107 123.294 79.7363C125.344 78.6036 127.349 76.8871 128.998 75.4746L129.18 75.3194C129.274 72.2388 129.961 69.0665 131.241 65.8027C132.622 62.1725 134.376 58.8626 136.502 55.873C138.734 52.8834 141.231 50.481 143.994 48.6659C146.864 46.7441 149.734 45.7831 152.603 45.7831C155.473 45.7831 157.758 46.6373 159.458 48.3456C160.483 49.254 161.217 50.231 161.661 51.2767C162.363 50.7777 163.161 50.376 164.054 50.0716C164.986 49.6482 168.349 49.2777 169.177 49.2777C170.522 46.2083 171.919 43.2446 173.368 40.3869C174.817 37.5291 176.266 34.9359 177.715 32.6073C178.336 31.8664 179.164 31.2314 180.199 30.7022C181.337 30.0671 182.424 29.5908 183.459 29.2732C184.494 28.9557 185.322 28.797 185.942 28.797C186.667 28.6911 186.977 28.8499 186.874 29.2732C185.115 32.0252 183.355 35.0947 181.596 38.4817C179.94 41.8687 178.336 45.4144 176.784 49.119C178.75 49.0131 180.716 48.9602 182.682 48.9602H188.426C188.944 49.1719 189.151 49.4894 189.047 49.9128C188.944 50.2303 188.478 50.4949 187.65 50.7066C186.098 50.7066 184.287 50.7595 182.217 50.8654C180.25 50.9712 178.129 51.13 175.852 51.3417C173.782 56.528 172.075 61.6086 170.729 66.5833C170.171 68.6473 163.324 89.3662 194.5 81.26C195.5 81 198.064 75.9565 198.92 74.08C202.227 66.8267 205.693 57.5467 209.32 46.24C211.453 39.6267 213.747 33.76 216.2 28.64C218.76 23.52 221.693 19.0933 225 15.36C220.733 13.2267 216.2 11.6267 211.4 10.56C206.707 9.38667 201.8 8.8 196.68 8.8C191.987 8.8 187.88 9.49333 184.36 10.88C180.947 12.2667 178.067 14.1333 175.72 16.48C173.373 18.8267 171.507 21.5467 170.12 24.64C168.733 27.7333 167.773 30.9867 167.24 34.4C167.027 34.6133 166.76 34.6667 166.44 34.56C166.12 34.4533 165.96 34.1867 165.96 33.76C166.387 29.3867 167.56 25.3333 169.48 21.6C171.4 17.76 173.96 14.4533 177.16 11.68C180.467 8.90667 184.36 6.72 188.84 5.12C193.32 3.52 198.387 2.71999 204.04 2.71999C208.947 2.71999 213.693 3.30666 218.28 4.48C222.867 5.54667 227.293 7.09333 231.56 9.12C234.333 6.88 237.32 5.01333 240.52 3.51999C243.827 2.02666 247.507 0.853329 251.56 0C251.88 0 252.04 0.213334 252.04 0.640001C252.04 0.959997 251.88 1.22666 251.56 1.44C245.267 3.14666 239.72 6.24 234.92 10.72C254.5 23.26 260.5 39.76 261.266 53.8858C265.5 49.26 265 46.26 269.612 45.76C270.955 45.6144 272.057 46.5177 272.678 47.3645C273.298 48.1054 273.609 49.2168 273.609 50.6986C273.609 52.2862 273.454 54.0856 273.143 56.0966C272.833 58.1076 272.419 60.1716 271.901 62.2885C273.971 57.208 276.248 53.2388 278.732 50.381C281.216 47.5233 283.714 45.76 286.612 45.76C288.164 45.76 289.547 46.4648 290.375 47.2057C291.202 47.9466 291.616 48.8992 291.616 50.0635C291.616 50.8336 291.508 52.7139 291.108 54.3696C296.108 46.76 303.173 45.76 306.042 45.76C308.912 45.76 311.197 46.6142 312.898 48.3225C314.704 49.9241 315.608 51.7392 315.608 53.7678C315.608 59.8538 307.584 64.0178 291.535 66.26L291.216 69.4631V72.8264C291.216 75.6025 291.854 77.7379 293.129 79.2327C294.405 80.7275 296.424 81.4749 299.187 81.4749C301.207 81.4749 307.045 81.8715 311.035 76.76C311 73 311.698 68.1842 313.095 64.7541C314.6 61.2168 316.588 58.0547 319.059 55.2678C321.531 52.3737 324.378 50.0691 327.602 48.3541C330.826 46.6391 334.211 45.7815 337.757 45.7815C339.691 45.7815 341.356 45.9959 342.753 46.4247C344.15 46.8534 345.44 47.4966 346.622 48.3541C347.266 47.8181 348.126 47.3358 349.201 46.907C350.383 46.3711 351.457 46.1031 352.424 46.1031C352.962 46.1031 353.123 46.3711 352.908 46.907C350.436 49.9083 348.287 53.2312 346.461 56.8757C344.741 60.5201 343.398 64.0574 342.431 67.4874C341.464 70.9175 340.819 73.9724 340.497 76.6521C340.282 79.2247 340.497 80.9933 341.141 81.958C341.679 82.7083 342.646 82.7619 344.043 82.1188C345.294 81.4466 348.477 79.1981 350.749 76.6562C354.612 65.4141 357.379 54.4545 357.626 52.9428C357.936 51.0376 356.608 49.2815 350.33 55.9594C350.019 56.171 349.709 56.171 349.398 55.9594C349.088 55.6418 349.036 55.3243 349.243 55.0068C350.795 52.5724 352.658 50.5084 354.832 48.8149C357.005 47.0156 359.333 46.1159 361.817 46.1159C363.473 46.1159 364.56 46.6451 365.077 47.7036C365.698 48.762 365.853 50.0321 365.543 51.5139C365.129 53.8425 364.715 55.8006 364.301 57.3883C363.887 58.9759 363.318 60.7753 362.593 62.7863C365.284 57.9175 368.234 53.9483 371.442 50.8789C374.754 47.7035 378.386 45.7815 382.112 45.7815C383.975 45.7815 385.258 46.6451 386.189 47.7036C387.224 48.762 387.742 50.0321 387.742 51.5139C387.742 55.6418 387.017 59.8227 385.568 64.0565C388.88 58.2351 392.088 53.7896 395.193 50.7201C398.401 47.6506 402.162 45.7815 406.612 45.7815C408.682 45.7815 410.112 46.7815 411.112 47.7815C412.11 48.7798 412.424 50.0321 412.424 51.1964C412.424 52.9957 412.01 55.0068 411.182 57.2295C410.458 59.3464 409.578 61.6221 408.543 64.0565C407.612 66.385 396.5 91.2815 409.608 81.2815C409.5 77.76 411.5 74.76 412.547 74.4933C414.874 73.9005 411.657 78.2284 412.547 80.3236C413.781 83.2284 417.266 84.8548 419.233 84.8548C421.923 84.8548 423.993 84.1139 425.442 82.6321C426.995 81.0445 427.771 79.1392 427.771 76.9165C427.771 74.9055 427.305 73.0532 426.374 71.3597C425.546 69.5604 424.614 67.8669 423.579 66.2793C422.544 64.5858 421.561 62.8922 420.63 61.1987C419.802 59.5052 419.388 57.7058 419.388 55.8006C419.388 53.0487 420.526 50.773 422.803 48.9737C425.08 47.0685 428.443 45.7815 432.893 45.7815C435.17 45.7815 436.981 46.4334 438.327 47.0685C439.776 47.7036 440.5 48.4974 440.5 49.45C440.5 50.6143 440.19 51.9373 439.569 53.4191C439.051 54.9009 438.534 56.1182 438.016 57.0708C437.809 57.2824 437.551 57.3353 437.24 57.2295C436.93 57.0178 436.774 56.7003 436.774 56.2769C437.085 55.536 437.24 54.4775 437.24 53.1016C437.24 51.6198 436.826 50.4026 435.998 49.45C435.274 48.4974 434.239 48.0211 432.893 48.0211C431.134 48.0211 429.685 48.6032 428.547 49.7675C427.512 50.8259 426.994 52.3607 426.994 54.3717C426.994 56.0652 427.408 57.7058 428.236 59.2935C429.168 60.7753 430.151 62.31 431.186 63.8977C432.324 65.3795 433.359 67.0201 434.291 68.8195C435.222 70.513 435.688 72.4711 435.688 74.6938C435.688 78.5042 434.187 81.4678 431.186 83.5847C428.185 85.7016 424.252 86.76 419.388 86.76C415.869 86.76 411.655 85.509 410.108 82.7815C407.935 84.3692 404.248 86.76 402.179 86.76C398.763 86.76 397.056 84.749 397.056 80.7269C397.056 78.1866 397.418 75.6464 398.143 73.1062C398.867 70.4601 399.643 67.9727 400.471 65.6442C401.402 63.2098 402.23 60.934 402.955 58.8172C403.679 56.7003 404.042 54.9009 404.042 53.4191C404.042 51.1964 403.265 50.085 401.713 50.085C398.608 50.085 394.934 53.0487 390.691 58.9759C386.448 64.7973 382.515 73.159 378.893 84.061C378.686 84.696 377.807 85.3311 376.254 85.9662C374.805 86.4954 373.408 86.76 372.063 86.76C370.821 86.76 370.355 86.2837 370.666 85.3311C371.287 83.4259 372.115 81.0444 373.149 78.1867C374.288 75.3289 375.323 72.4182 376.254 69.4545C377.289 66.3851 378.169 63.5272 378.893 60.8811C379.618 58.1292 379.98 56.0123 379.98 54.5305C379.98 51.6727 379.1 50.2438 377.341 50.2438C374.65 50.2438 371.235 53.1016 367.095 58.8172C363.059 64.4269 359.127 72.8415 355.297 84.061C355.09 84.696 354.262 85.3311 352.814 85.9662C351.365 86.4954 350.071 86.76 348.933 86.76C348.415 86.76 348.001 86.6541 347.691 86.4424C347.38 86.2308 347.372 85.7376 347.536 85.3311C348.478 82.9916 349.385 80.5528 350.245 78.1088C348.084 81.0311 346.053 83.0867 343.882 84.5306C341.732 86.0312 340.504 86.76 339 86.76C338.033 86.76 336.5 86.5 335.984 85.3345C335.446 84.3698 335.07 83.0835 334.855 81.4757C334.748 79.7606 334.785 79.0366 335 77C335.215 74.9634 335.855 73.251 336.5 71C333.599 75.502 332.281 76.7287 328.5 80.5C326.51 82.4852 321 86.26 318 86.76C312.24 86.76 311.5 82.26 311.206 78.76C307.054 82.8589 296.849 86.76 293.129 86.76C289.41 86.76 286.699 85.8525 284.999 84.0374C283.405 82.1155 282.608 79.4462 282.608 76.0295C282.608 72.7197 285 62.5 288.5 57C288.5 56.0966 288.45 55.8304 287.112 54.76C286.534 54.2976 285.25 53.7151 284.112 53.7151C280.49 53.7151 277.231 56.8905 274.23 61.971C271.332 66.9456 269.719 74.1431 267.236 83.5632C267.132 84.0924 266.77 84.5687 266.149 84.992C264.608 85.76 260.095 86.7385 259.474 86.7385C258.336 86.7385 258.025 86.1034 258.543 84.8333C259.474 82.6105 260.354 80.2291 261.181 77.6888C262.113 75.0427 262.941 72.3966 263.665 69.7505C264.39 67.1044 265.011 64.5642 265.528 62.1298C266.046 59.5895 266.46 57.2609 266.77 55.144C266.977 53.5563 267.029 52.3392 266.925 51.4924C266.108 48.76 265.002 52.5887 261.331 55.1869C261.993 61.178 261.266 84.0824 235 97.44C220.574 103.747 202.926 102.88 185.32 97.44C185.32 97.44 181.533 101.28 171.72 103.84C166.813 105.12 161.32 105.76 155.24 105.76C151.827 105.76 149.373 105.387 147.88 104.64C146.493 103.787 145.8 102.667 145.8 101.28C145.8 99.8933 146.28 98.4 147.24 96.8C148.307 95.0933 149.747 93.5467 151.56 92.16C153.48 90.7733 155.667 89.6533 158.12 88.8C160.68 87.84 163.507 87.36 166.6 87.36C170.76 87.36 174.547 87.7333 177.96 88.48C181.48 89.2267 184.947 90.1867 188.36 91.36C189.852 89.6548 192.576 85.1823 194 83C187 86.5 173.198 86.7518 172 86.7467C158.88 86.691 161 74.2426 162.502 68.6473C163.951 63.2492 165.814 57.7452 168.09 52.1355C165.976 52.385 163.989 52.6999 162.13 53.0801C162.13 59.6772 154.144 64.041 138.096 66.2831L137.777 69.4863V72.8495C137.777 75.6256 138.415 77.761 139.69 79.2558C140.965 80.7506 142.985 81.498 145.748 81.498C147.767 81.498 149.84 80.9107 151.965 79.7363C154.091 78.5618 155.792 77.067 157.067 75.2519C157.492 75.0383 157.811 75.1451 158.023 75.5722C158.236 75.8925 158.289 76.2662 158.183 76.6933C156.057 79.4693 153.347 81.8717 150.052 83.9003C146.864 85.8222 143.41 86.7831 139.69 86.7831C135.97 86.7831 133.26 85.8756 131.56 84.0605C130.132 82.3393 129.344 80.0187 129.194 77.0987C127.119 79.7039 124.514 81.9711 121.381 83.9003C118.192 85.8222 114.738 86.7831 111.018 86.7831C107.299 86.7831 104.588 85.8756 102.888 84.0605C101.294 82.1386 98.4966 76.2594 101.805 67.9622C100.045 71.5609 96.6169 84.3652 80.5583 86.7467C78.0746 86.7467 76.2118 85.9529 74.9699 84.3652C73.8315 82.7776 73.2623 80.6078 73.2623 77.8558C73.2623 75.3156 73.4692 72.4049 73.8832 69.1237C74.2972 65.8426 74.7629 63.1435 75.2803 61.0266C73.2105 63.7786 71.0372 67.0598 68.7604 70.8701C66.4836 74.6805 64.2068 78.5967 61.93 82.6188C61.309 83.7831 60.3258 84.7886 58.9805 85.6353C57.6351 86.3763 56.3415 86.7467 55.0996 86.7467C54.2717 86.7467 53.9612 86.1646 54.1682 85.0003C54.8926 82.46 55.4618 79.3377 55.8757 75.6331C56.3932 71.8228 56.6519 68.1182 56.6519 64.5195C56.6519 60.9208 56.3932 57.7983 55.8757 55.1522C55.4618 52.5061 54.6339 50.9185 53.392 50.3893C50 49.7594 48 51.2594 47.498 52.2594C59.5 72.7594 45.3077 86.0118 42.6923 88.0035C40.0769 89.9186 37.0385 91.4507 33.5769 92.5998C30.1154 93.6722 26.3846 94.2085 22.3846 94.2085C15.0769 94.2085 9.5 92.7913 5.65385 89.9569C1.88462 87.1225 0 83.5221 0 79.1557C0 75.8617 0.846154 73.0656 2.53846 70.7675C4.30769 68.4693 6.69231 66.7074 9.69231 65.4818C10.0769 65.3285 10.3462 65.4435 10.5 65.8265C10.6538 66.2095 10.6154 66.5542 10.3846 66.8606C9 67.6267 7.66609 68.436 6.5 69.9994C5.02329 71.9792 4.41293 73.6685 4.5 75.9994C4.63867 79.7117 6.56419 82.4153 9.69231 85.0003C13.3982 88.0627 16.7717 88.0611 21.5769 88.2105C27.9156 88.4076 34.1154 86.5874 37.1923 83.753C40.3462 80.9186 50.5 66.7594 36.2287 48.0358C34.1518 45.1248 32.2287 42.2139 30.4595 39.3029C28.6903 36.3919 27.8056 33.0979 27.8056 29.4209C27.8056 27.276 28.2672 25.2077 29.1903 23.2159C30.1903 21.2242 31.5364 19.4623 33.2287 17.9302C34.998 16.3215 37.0749 15.0576 39.4595 14.1383C41.8441 13.219 44.4595 12.7594 47.3056 12.7594C51.2287 12.7594 54.3057 13.6021 56.5364 15.2874C58.8441 16.8961 59.998 18.8495 59.998 21.1476C59.998 22.4499 59.421 24.0586 58.2672 25.9737C57.1903 27.8122 56.0749 29.4209 54.921 30.7998C54.6133 30.953 54.3441 30.9147 54.1133 30.6849C53.8826 30.4551 53.8056 30.187 53.8826 29.8805C54.2672 29.2677 54.5749 28.54 54.8056 27.6973C55.1133 26.7781 55.2672 25.7822 55.2672 24.7097C55.2672 23.4841 54.998 22.335 54.4595 21.2625C53.921 20.1135 53.1518 19.1559 52.1518 18.3899C51.1518 17.5472 49.998 16.8961 48.6903 16.4364C47.3826 15.9002 45.998 15.6321 44.5364 15.6321C40.6903 15.6321 37.998 17.4209 36.2287 19.2594C34.4595 21.0979 33.4595 22.6031 33.4595 25.5141C33.4595 27.8122 33.8826 29.9954 34.7287 32.0638C35.6518 34.0555 36.7672 36.0855 38.0749 38.1538C39.3826 40.1455 40.7672 42.1756 42.2287 44.2439C43.7672 46.2356 45.1903 48.3422 46.498 50.5638C48.4643 48.9761 55.3282 45.7594 57.5015 45.7594C59.9853 45.7594 61.6713 47.4257 62.7062 50.0718C63.8446 52.7178 64.4138 57.0575 64.4138 63.0906C64.4138 65.8425 64.3103 68.3828 64.1033 70.7114C63.8963 72.9341 63.6376 74.8922 63.3271 76.5857C65.397 72.8812 67.3633 69.7059 69.2261 67.0598C71.089 64.4137 72.8483 61.9792 74.5042 59.7564C75.1251 58.9097 75.6426 57.9571 76.0565 56.8987C76.574 55.7344 77.7928 51.4458 78.3102 49.4347C78.4137 48.7997 78.8794 48.2175 79.7073 47.6883C80.6388 47.0532 81.5702 46.5769 82.5016 46.2594C83.5365 45.9419 84.4162 45.7831 85.1406 45.7831C85.865 45.6773 86.2272 45.889 86.2272 46.4182C84.5714 49.911 82.6282 56.687 81.8003 61.3441C80.9723 65.8954 80.5583 70.1292 80.5583 74.0455C80.5583 76.6916 83.4998 88.7594 96.6169 68.6474C105 51.7594 92.322 51.4477 90.5627 52.9295C89.4998 53.2594 89.3375 52.0542 89.476 51.8182C89.7865 51.289 90.7759 50.3945 91.5004 49.7594C92.2248 49.0185 92.9492 48.3834 93.6737 47.8542C94.5016 47.2191 95.2778 46.7429 96.0022 46.4253C96.8301 46.0019 97.5864 45.7594 98.0004 45.7594ZM113.25 53.4706C115.057 51.1217 117.183 49.9472 119.627 49.9472C121.115 49.9472 122.337 50.5344 123.294 51.7089C124.25 52.7766 124.729 54.1112 124.729 55.7128C124.729 57.8482 123.506 59.6633 121.062 61.1581C118.617 62.5461 114.844 63.5071 109.743 64.0409C110.381 59.2362 111.55 55.7128 113.25 53.4706ZM141.922 53.4706C143.729 51.1217 145.854 49.9472 148.299 49.9472C149.787 49.9472 151.009 50.5344 151.965 51.7089C152.922 52.7766 153.4 54.1112 153.4 55.7128C153.4 57.8482 152.178 59.6633 149.734 61.1581C147.289 62.5461 143.516 63.5071 138.415 64.0409C139.052 59.2362 140.222 55.7128 141.922 53.4706ZM295.361 53.4475C297.168 51.0986 299.294 49.9241 301.738 49.9241C303.226 49.9241 304.448 50.5113 305.405 51.6858C306.361 52.7535 306.84 54.0881 306.84 55.6897C306.84 57.8251 305.617 59.6402 303.173 61.135C300.728 62.523 296.956 63.484 291.854 64.0178C292.492 59.2131 293.661 55.6897 295.361 53.4475ZM172.68 101.6C169.16 102.453 165.16 102.88 160.68 102.88C157.907 102.88 155.827 102.4 154.44 101.44C153.16 100.48 152.52 99.2 152.52 97.6C152.52 96.1067 153.053 94.9333 154.12 94.08C155.293 93.2267 157.107 92.8 159.56 92.8C164.04 92.8 168.147 93.1733 171.88 93.92C175.613 94.6667 179.24 95.5733 182.76 96.64C179.667 98.9867 176.307 100.64 172.68 101.6ZM245 81.26C233.957 99.0239 202 97.44 191.4 92.48C191.4 92.48 201.053 80.8 205 72.8C209.053 64.6933 212.947 54.72 216.68 42.88C220.093 32.4267 224.2 23.9467 229 17.44C235.5 21.6 268 44.26 245 81.26ZM322 77.6888C329.5 74.5 346 53.5 342.753 51.1964C320 40 313.119 83.5233 322 77.6888Z" fill="url(#paint0_linear)"/>
<defs>
<linearGradient id="paint0_linear" x1="1.9455e-08" y1="61.3408" x2="440.499" y2="62.5726" gradientUnits="userSpaceOnUse">
<stop stop-color="#441800"/>
<stop offset="0.484375" stop-color="#8B390D"/>
<stop offset="1" stop-color="#441800"/>
</linearGradient>
</defs>
</svg>
