<svg viewBox="0 0 302 74" preserveAspectRatio="xMidYMid meet" fill="none" xmlns="http://www.w3.org/2000/svg">
<g filter="url(#filter0_d)">
<path fill-rule="evenodd" clip-rule="evenodd" d="M0 48.5023C0 45.4665 0.733049 42.8895 2.19915 40.7715C3.73189 38.6535 5.79776 37.0297 8.39676 35.9001C8.72996 35.7589 8.96321 35.8648 9.09649 36.2178C9.22977 36.5708 9.19645 36.8885 8.99652 37.1709C7.79699 37.8769 6.83069 38.9712 6.09764 40.4538C5.43124 41.9364 5.09803 43.7367 5.09803 45.8547C5.09803 50.1613 6.59745 53.5502 9.59629 56.0212C12.5951 58.4922 16.4936 59.7277 21.2918 59.7277C27.556 59.7277 32.021 58.4216 34.6866 55.8094C37.4189 53.1972 38.785 49.773 38.785 45.537C38.785 41.5834 38.785 39.0771 36.48 35.1647C33.7033 30.0167 31.3879 25.416 31.3879 22.0272C31.3879 20.0504 31.7877 18.1442 32.5874 16.3086C33.4537 14.473 34.62 12.8492 36.0861 11.4372C37.6188 9.95455 39.4181 8.78965 41.484 7.94244C43.5498 7.09524 45.8156 6.67164 48.2814 6.67164C51.68 6.67164 54.3457 7.44824 56.2783 9.00145C58.2775 10.484 59.2771 12.2843 59.2771 14.4023C59.2771 15.6026 58.7773 17.0852 57.7777 18.8502C56.8447 20.5446 55.8784 22.0272 54.8788 23.298C54.6122 23.4392 54.379 23.4039 54.1791 23.1921C53.9792 22.9803 53.9125 22.7332 53.9791 22.4508C54.3124 21.886 54.5789 21.2153 54.7788 20.4387C55.0454 19.5915 55.1787 18.6737 55.1787 17.6853C55.1787 16.5557 54.9454 15.4966 54.479 14.5082C54.0125 13.4492 53.3461 12.5667 52.4797 11.8607C51.6134 11.0841 50.6138 10.484 49.4809 10.0604C48.348 9.56625 47.1485 9.31915 45.8823 9.31915C42.5502 9.31915 40.1178 10.1663 38.5851 11.8607C37.0524 13.5552 34.42 17.3172 34.6866 21.1917C34.9045 24.3589 37.3785 30.6293 39.2041 33.7308C39.2618 33.8287 39.3188 33.9234 39.375 34.0148C39.7082 33.1676 42.0837 31.4878 43.2832 30.4994C44.5494 29.4404 45.8822 28.9108 47.2817 28.9108C48.8811 28.9108 50.014 29.7934 50.6804 31.5584C51.4134 33.3234 51.7799 36.218 51.7799 40.2422C51.7799 42.0778 51.7133 43.7722 51.58 45.3254C51.4467 46.808 51.2801 48.1141 51.0802 49.2437C52.413 46.7727 53.6792 44.6547 54.8787 42.8897C56.0783 41.1247 57.2112 39.5009 58.2774 38.0183C58.6773 37.4535 59.0105 36.8181 59.277 36.1121C59.6103 35.3355 59.9435 34.2765 60.2767 32.9351C60.3433 32.5115 60.6432 32.1232 61.1763 31.7702C61.7761 31.3466 62.3759 31.0289 62.9756 30.8171C63.642 30.6052 64.2085 30.4994 64.675 30.4994C65.1415 30.4288 65.3747 30.5699 65.3747 30.9229C64.3084 33.2528 63.5087 35.9709 62.9756 39.0773C62.4425 42.1131 62.1759 44.9371 62.1759 47.5493C62.1759 49.3143 62.5758 50.6204 63.3755 51.4676C64.1752 52.2442 65.1415 52.6325 66.2744 52.6325C67.4739 52.6325 68.6068 52.2442 69.673 51.4676C70.8059 50.691 71.8055 49.6673 72.6719 48.3965C73.5382 47.1257 74.2379 45.6431 74.7711 43.9487C75.3042 42.1837 75.5708 40.3481 75.5708 38.4419C75.5708 35.6885 75.0709 33.9235 74.0713 33.1469C73.0717 32.3703 72.0055 32.4762 70.8726 33.4646C70.606 33.5352 70.4061 33.4998 70.2728 33.3586C70.1395 33.1468 70.1062 32.9351 70.1728 32.7233C70.3728 32.3703 70.706 31.982 71.1725 31.5584C71.6389 31.0642 72.1054 30.6405 72.5719 30.2875C73.105 29.8639 73.6048 29.5462 74.0713 29.3344C74.6045 29.052 75.0043 28.9108 75.2709 28.9108C76.4038 28.9108 77.3701 29.5815 78.1698 30.9229C78.9694 32.1937 79.3693 33.8529 79.3693 35.9003C80.7687 33.9235 82.514 32.1231 84.2467 30.9229C87.1514 28.9108 90.1709 28.9108 91.9702 28.9108C93.7695 28.9108 95.2023 29.4757 96.2685 30.6053C97.4014 31.6643 97.9679 32.8644 97.9679 34.2058C97.9679 38.23 92.9364 40.9835 82.8736 42.4661L82.6737 44.5841V46.808C82.6737 48.6436 83.0735 50.0556 83.8732 51.044C84.6729 52.0324 85.9391 52.5266 87.6718 52.5266C88.9379 52.5266 90.2375 52.1383 91.5703 51.3617C92.9032 50.5851 93.9694 49.5967 94.7691 48.3965C94.9991 48.2747 95.1795 48.3106 95.3103 48.5041C95.3623 46.4474 95.7936 44.3288 96.6044 42.1484C97.4708 39.748 98.5703 37.5594 99.9031 35.5826C101.303 33.6057 102.869 32.0173 104.601 30.8171C106.401 29.5462 108.2 28.9108 109.999 28.9108C111.799 28.9108 113.231 29.4757 114.298 30.6053C115.097 31.3528 115.615 32.1706 115.85 33.0588C116.039 32.841 116.288 32.6232 116.597 32.4054C117.063 32.0524 117.596 31.77 118.196 31.5582C118.796 31.2758 120.962 31.0287 121.495 31.0287C122.361 28.9813 123.261 27.0045 124.194 25.0983C125.127 23.1921 126.06 21.4624 126.993 19.9092C127.392 19.415 127.926 18.9914 128.592 18.6384C129.325 18.2148 130.025 17.8971 130.691 17.6853C131.358 17.4735 131.891 17.3676 132.291 17.3676C132.757 17.297 132.957 17.4029 132.89 17.6853C131.757 19.5209 130.625 21.5683 129.492 23.8275C128.425 26.0867 127.392 28.4518 126.393 30.9228C127.659 30.8522 128.925 30.8169 130.191 30.8169H133.89C134.223 30.9581 134.356 31.1699 134.29 31.4523C134.223 31.6641 133.923 31.8406 133.39 31.9818C132.391 31.9818 131.224 32.0171 129.892 32.0877C128.625 32.1583 127.259 32.2642 125.793 32.4054C124.46 35.8648 123.361 39.2537 122.494 42.5719C121.628 45.8195 121.195 48.467 121.195 50.5144C121.195 52.9148 122.625 54.0556 123.375 54.4444C124.125 54.8333 129.542 55.9829 131.865 53.5022C134.625 50.5556 138.207 38.0888 140.473 30.6051C141.805 26.2279 143.238 22.3449 144.771 18.9561C146.37 15.5673 148.203 12.6374 150.269 10.1664C147.603 8.75441 144.771 7.69541 141.772 6.98941C138.84 6.21281 135.775 5.82451 132.576 5.82451C129.644 5.82451 127.078 6.28341 124.879 7.2012C122.746 8.11901 120.947 9.35451 119.481 10.9077C118.015 12.4609 116.848 14.2612 115.982 16.3086C115.116 18.356 114.516 20.5093 114.183 22.7685C114.05 22.9097 113.883 22.945 113.683 22.8744C113.483 22.8038 113.383 22.6273 113.383 22.3449C113.65 19.4503 114.383 16.7675 115.582 14.2965C116.782 11.7549 118.381 9.56632 120.38 7.73072C122.446 5.89511 124.879 4.44781 127.678 3.38881C130.477 2.3298 133.642 1.8003 137.174 1.8003C140.239 1.8003 143.205 2.1886 146.07 2.9652C148.936 3.6712 151.702 4.69491 154.367 6.03631C156.1 4.55371 157.966 3.31821 159.965 2.3298C162.031 1.3414 164.33 0.564798 166.862 0C167.062 0 167.162 0.141203 167.162 0.423603C167.162 0.635401 167.062 0.811903 166.862 0.953105C162.931 2.0827 159.465 4.1301 156.466 7.09531C159.732 9.00151 162.731 11.296 165.463 13.9788C168.262 16.591 170.661 19.4856 172.66 22.6626C174.659 25.8396 176.682 30.756 177.748 34.2154C178.149 33.6527 178.893 33.0681 179.424 32.5056C180.024 31.8702 180.657 31.3054 181.323 30.8112C182.056 30.2464 182.789 29.7875 183.522 29.4345C184.322 29.0815 184.428 28.905 185.227 28.905C186.294 28.905 187.027 29.1874 187.426 29.7522C187.826 30.2464 188.026 30.9877 188.026 31.9761C188.026 33.0351 187.926 34.2353 187.726 35.5767C187.526 36.9181 187.26 38.2948 186.927 39.7068C188.259 36.318 189.726 33.6705 191.325 31.7643C192.924 29.8581 194.657 28.905 196.523 28.905C197.523 28.905 198.289 29.1521 198.822 29.6463C199.355 30.1405 199.622 30.7759 199.622 31.5525C199.622 32.2585 199.441 34.4471 198.908 35.5767C200.307 33.5999 201.873 32.0114 203.606 30.8112C205.405 29.5404 207.205 28.905 209.004 28.905C210.803 28.905 212.236 29.4698 213.302 30.5994C214.435 31.6584 215.002 32.8586 215.002 34.2C215.002 38.2242 209.97 40.9776 199.907 42.4602L199.708 44.5782V46.8021C199.708 48.6377 200.107 50.0497 200.907 51.0381C201.707 52.0265 202.973 52.5207 204.706 52.5207C205.972 52.5207 207.271 52.1324 208.604 51.3558C209.937 50.5792 212.333 49.4849 213.133 48.2847C213.133 45.9549 213.666 43.6604 214.732 41.4012C215.798 39.0714 217.198 36.9887 218.931 35.1531C220.73 33.3175 222.696 31.8349 224.828 30.7053C227.028 29.5051 229.227 28.905 231.426 28.905C233.758 28.905 235.591 29.5051 236.924 30.7053C237.59 30.2111 238.423 29.7875 239.423 29.4345C240.489 29.0815 241.422 28.905 242.222 28.905C242.488 28.905 242.621 29.0815 242.621 29.4345C241.089 31.4113 239.756 33.5999 238.623 36.0003C237.557 38.3301 236.724 40.5893 236.124 42.7779C235.524 44.8959 235.158 46.8021 235.024 48.4965C234.891 50.1909 235.024 51.3558 235.424 51.9912C235.757 52.4148 236.324 52.556 237.124 52.4148C237.923 52.203 241.053 50.8816 242.25 48.6652C243.75 45.8889 244.769 40.4834 245.235 38.6478C245.768 36.8122 246.235 35.0825 246.635 33.4587C246.835 32.1879 246.635 31.5525 246.035 31.5525C245.502 31.5525 244.869 31.9408 244.136 32.7174C243.403 33.494 242.67 34.4118 241.937 35.4708C241.737 35.612 241.537 35.612 241.337 35.4708C241.137 35.259 241.104 35.0472 241.237 34.8354C242.236 33.2116 243.436 31.8349 244.835 30.7053C246.235 29.5051 247.734 28.905 249.334 28.905C250.4 28.905 251.1 29.258 251.433 29.964C251.833 30.67 251.933 31.5172 251.733 32.5056C251.466 34.0588 251.2 35.3649 250.933 36.4239C250.667 37.4829 250.3 38.6831 249.834 40.0245C251.566 36.7769 253.465 34.1294 255.531 32.082C257.664 29.964 259.93 28.905 262.329 28.905C263.528 28.905 264.428 29.258 265.028 29.964C265.694 30.67 266.027 31.5172 266.027 32.5056C266.027 35.259 265.561 38.0477 264.628 40.8717C266.76 36.9887 268.826 34.0235 270.825 31.9761C272.891 29.9287 275.357 28.905 278.223 28.905C279.555 28.905 280.488 29.2933 281.021 30.0699C281.621 30.7759 281.921 31.5172 281.921 32.2938C281.921 33.494 281.655 34.8354 281.121 36.318C280.655 37.73 280.088 39.2479 279.422 40.8717C278.822 42.4249 278.256 44.0134 277.723 45.6372C277.256 47.1904 277.023 48.7083 277.023 50.1909C277.023 51.9559 278.042 52.3089 279.108 52.3089C279.108 52.0265 279.208 51.6382 279.408 51.144C279.608 50.6498 279.874 50.1203 280.208 49.5555C280.541 48.9907 281.173 47.6189 282 47.8333C283.5 48.2222 281.427 50.3247 282 51.7222C282.795 53.6598 285.039 54.7446 286.305 54.7446C288.038 54.7446 289.371 54.2505 290.304 53.2621C291.303 52.2031 291.803 50.9322 291.803 49.4496C291.803 48.1082 291.503 46.8727 290.904 45.7431C290.37 44.5429 289.771 43.4134 289.104 42.3544C288.438 41.2247 287.805 40.0951 287.205 38.9655C286.672 37.8359 286.405 36.6357 286.405 35.3649C286.405 33.5293 287.138 32.0114 288.604 30.8112C290.07 29.5404 292.236 28.905 295.102 28.905C296.568 28.905 297.734 29.1168 298.601 29.5404C299.534 29.964 300 30.4935 300 31.1289C300 31.9055 299.8 32.788 299.4 33.7764C299.067 34.7648 298.734 35.5767 298.401 36.2121C298.267 36.3533 298.101 36.3886 297.901 36.318C297.701 36.1768 297.601 35.965 297.601 35.6826C297.801 35.1884 297.901 34.4824 297.901 33.5646C297.901 32.5762 297.634 31.7643 297.101 31.1289C296.635 30.4935 295.968 30.1758 295.102 30.1758C293.969 30.1758 293.036 30.5641 292.303 31.3407C291.637 32.0467 291.303 33.0704 291.303 34.4118C291.303 35.5414 291.57 36.6357 292.103 37.6947C292.703 38.6831 293.336 39.7068 294.002 40.7658C294.735 41.7542 295.402 42.8485 296.002 44.0487C296.601 45.1783 296.901 46.4844 296.901 47.967C296.901 50.5086 295.935 52.4855 294.002 53.8975C292.07 55.3095 289.537 56.0155 286.405 56.0155C284.139 56.0155 281.121 55.486 280.125 53.6667C278.726 54.7257 276.656 56.0155 275.324 56.0155C273.125 56.0155 272.025 54.674 272.025 51.9912C272.025 50.2968 272.258 48.6024 272.725 46.908C273.191 45.143 273.691 43.4839 274.224 41.9307C274.824 40.3069 275.357 38.789 275.823 37.377C276.29 35.965 276.523 34.7648 276.523 33.7764C276.523 32.2938 276.023 31.5525 275.024 31.5525C273.025 31.5525 270.659 33.5293 267.927 37.4829C265.194 41.3659 262.662 46.9433 260.329 54.2151C260.196 54.6387 259.63 55.0624 258.63 55.486C257.697 55.839 256.798 56.0155 255.931 56.0155C255.131 56.0155 254.832 55.6977 255.031 55.0623C255.431 53.7915 255.964 52.2031 256.631 50.2968C257.364 48.3906 258.03 46.4491 258.63 44.4723C259.297 42.4249 259.863 40.5187 260.329 38.7537C260.796 36.9181 261.029 35.5061 261.029 34.5177C261.029 32.6115 260.463 31.6584 259.33 31.6584C257.597 31.6584 255.398 33.5646 252.732 37.377C250.133 41.1188 247.601 46.7315 245.135 54.2151C245.002 54.6387 244.469 55.0624 243.536 55.486C242.603 55.839 241.77 56.0155 241.037 56.0155C240.704 56.0155 240.437 55.9448 240.237 55.8036C240.037 55.6624 240.004 55.4153 240.137 55.0623C240.67 53.5091 241.237 51.8148 241.837 49.9791C240.637 51.8148 238.59 53.2974 237.124 54.427C235.657 55.486 234.258 56.0155 232.925 56.0155C231.392 56.0155 230.393 54.8859 229.926 52.6267C229.527 50.2969 229.76 47.5434 230.626 44.3664C228.827 47.4022 226.861 50.0144 224.728 52.203C222.662 54.321 221.033 56.5594 218.131 56.0155C213.415 55.1317 213.237 49.9607 213.237 49.9607C213.237 49.9607 209.47 52.7679 207.405 54.1093C205.405 55.3801 203.24 56.0155 200.907 56.0155C198.575 56.0155 196.875 55.4153 195.809 54.2151C194.809 52.9443 194.523 51.0639 194.31 48.9201C193.853 44.3223 196.796 39.9363 197.663 37.6065C197.663 37.1123 196.823 35.2943 196.423 34.9413C196.09 34.5883 195.557 34.4118 194.824 34.4118C192.491 34.4118 190.359 36.1062 188.426 39.495C186.56 42.8132 185.522 47.614 183.922 53.8975C183.856 54.2505 183.622 54.5681 183.223 54.8505C182.823 55.0623 182.356 55.2742 181.823 55.486C181.357 55.6272 180.857 55.7684 180.324 55.9096C179.791 55.9802 179.324 56.0155 178.924 56.0155C178.191 56.0155 177.991 55.5918 178.324 54.7446C178.924 53.262 179.491 51.6736 180.024 49.9791C180.624 48.2141 181.157 46.4491 181.623 44.6841C182.09 42.9191 182.489 41.2247 182.823 39.6009C183.156 37.9065 183.422 36.3533 183.622 34.9413C183.756 33.8823 183.789 33.0704 183.722 32.5056C183.722 31.9408 183.456 31.6584 182.923 31.6584C182.256 31.6584 181.556 31.9761 180.823 32.6115C180.157 33.1763 178.534 34.0235 177.934 34.9413C177.934 34.9413 178.958 39.1125 178.958 42.9955C178.958 46.8785 178.258 50.4791 176.859 53.7973C175.459 57.1155 173.493 59.9748 170.961 62.3752C168.429 64.7756 165.363 66.6465 161.764 67.9879C158.232 69.3293 154.301 70 149.969 70C147.437 70 145.071 69.8588 142.872 69.5764C140.673 69.2234 138.573 68.7998 136.574 68.3056C134.642 67.7408 132.742 67.1407 130.876 66.5053C129.077 65.7993 127.278 65.1286 125.478 64.4932C122.946 66.3994 120.114 67.8114 116.982 68.7292C113.916 69.5764 110.484 70 106.686 70C104.553 70 103.02 69.7529 102.087 69.2587C101.221 68.6939 100.788 67.9526 100.788 67.0348C100.788 66.117 101.088 65.1286 101.688 64.0696C102.354 62.94 103.254 61.9163 104.387 60.9985C105.586 60.0807 106.952 59.3394 108.485 58.7746C110.084 58.1392 111.85 57.8215 113.783 57.8215C116.382 57.8215 118.748 58.0686 120.88 58.5628C123.079 59.057 125.245 59.6924 127.378 60.469L130.479 56C130.479 56 121.075 60.2241 117.75 56.3889C116.628 55.095 115.797 53.9738 115.797 52.4206C115.797 50.3732 116.263 47.5492 117.196 43.9486C118.129 40.348 119.329 36.6767 120.795 32.9349C119.062 33.1467 117.463 33.4291 115.997 33.7821L115.977 33.7778C115.99 33.9188 115.997 34.0615 115.997 34.2058C115.997 38.23 110.966 40.9835 100.903 42.4661L100.703 44.5841V46.808C100.703 48.6436 101.103 50.0556 101.902 51.044C102.702 52.0324 103.968 52.5266 105.701 52.5266C106.967 52.5266 108.267 52.1383 109.599 51.3617C110.932 50.5851 111.998 49.5967 112.798 48.3965C113.065 48.2553 113.265 48.3259 113.398 48.6083C113.531 48.8201 113.565 49.0672 113.498 49.3496C112.165 51.1852 110.466 52.7737 108.4 54.1151C106.401 55.3859 104.235 56.0213 101.902 56.0213C99.5699 56.0213 97.8706 55.4212 96.8043 54.221C95.8993 53.0704 95.4039 51.5147 95.3183 49.5538C94.0089 51.3033 92.3597 52.8237 90.3708 54.1151C88.3716 55.3859 86.2056 56.0213 83.8732 56.0213C81.5408 56.0213 79.8414 55.4212 78.7752 54.221C77.7756 52.9502 76.1788 46.7022 77.57 43.7369C76.4371 46.1373 75.0043 48.2553 73.2716 50.0909C71.539 51.9265 69.673 53.3738 67.6738 54.4328C65.6746 55.4918 63.8419 56.0213 62.1759 56.0213C60.5765 56.0213 59.377 55.4918 58.5773 54.4328C57.8443 53.3738 57.4777 51.9265 57.4777 50.0909C57.4777 48.3965 57.611 46.455 57.8776 44.2664C58.1441 42.0778 58.444 40.2775 58.7772 38.8655C57.4444 40.7011 56.045 42.8897 54.5789 45.4313C53.1128 47.9729 51.6467 50.5851 50.1806 53.2679C49.7807 54.0445 49.1476 54.7152 48.2813 55.28C47.415 55.7742 46.582 56.0213 45.7823 56.0213C45.2491 56.0213 45.0492 55.633 45.1825 54.8564C45.649 53.162 46.0155 51.0793 46.2821 48.6083C46.6153 46.0667 46.7819 43.5957 46.7819 41.1953C46.7819 38.7949 46.6153 36.7122 46.2821 34.9472C46.0155 33.1822 45.4824 32.1232 44.6827 31.7702C44.2162 31.629 43.6831 31.7702 43.0833 32.1938C42.4835 32.6174 40.4582 34.2234 40.125 35C41.827 36.6798 43.7689 40.6421 43.7689 43.2543C43.7689 46.0077 43.6165 47.9022 42.2837 50.3026C41.0175 52.703 39.2515 54.821 36.9857 56.6566C34.7199 58.4216 32.0876 59.8336 29.0888 60.8926C26.0899 61.881 22.8578 62.3752 19.3925 62.3752C13.0616 62.3752 8.23015 61.0691 4.89811 58.4569C1.6327 55.8447 0 52.5265 0 48.5023ZM85.2727 33.994C86.4056 32.4408 87.7384 31.6643 89.2712 31.6643C90.2041 31.6643 90.9706 32.0526 91.5703 32.8292C92.1701 33.5352 92.47 34.4177 92.47 35.4767C92.47 36.8887 91.7036 38.0889 90.1709 39.0773C88.6381 39.9951 86.2723 40.6305 83.0735 40.9835C83.4733 37.8065 84.2064 35.4767 85.2727 33.994ZM103.302 33.994C104.435 32.4408 105.768 31.6643 107.3 31.6643C108.233 31.6643 109 32.0526 109.599 32.8292C110.199 33.5352 110.499 34.4177 110.499 35.4767C110.499 36.8887 109.733 38.0889 108.2 39.0773C106.667 39.9951 104.301 40.6305 101.103 40.9835C101.503 37.8065 102.236 35.4767 103.302 33.994ZM117.582 67.2466C115.382 67.8114 112.883 68.0938 110.084 68.0938C108.352 68.0938 107.052 67.7761 106.186 67.1407C105.386 66.5053 104.986 65.6581 104.986 64.5991C104.986 63.6107 105.32 62.8341 105.986 62.2693C106.719 61.7045 107.852 61.4221 109.385 61.4221C112.184 61.4221 114.749 61.6692 117.082 62.1634C119.414 62.6576 121.68 63.2577 123.879 63.9637C121.946 65.5169 119.847 66.6112 117.582 67.2466ZM168.962 61.2103C165.963 64.7403 161.265 66.5053 154.867 66.5053C151.935 66.5053 149.269 66.3641 146.87 66.0817C144.471 65.7287 142.239 65.3051 140.173 64.8109C138.107 64.2461 136.174 63.6813 134.375 63.1165C132.642 62.4811 130.943 61.8457 129.277 61.2103C132.476 57.8215 135.308 53.4796 137.774 48.1846C140.306 42.819 142.738 36.2179 145.071 28.3812C147.203 21.4624 149.769 15.8497 152.768 11.5431C155.9 13.4493 158.732 15.7085 161.265 18.3207C163.797 20.9329 165.963 23.7569 167.762 26.7927C169.561 29.8285 170.961 33.0056 171.96 36.3238C172.96 39.642 173.46 42.9602 173.46 46.2784C173.46 52.6324 171.961 57.6097 168.962 61.2103ZM202.307 33.9882C203.439 32.435 204.772 31.6584 206.305 31.6584C207.238 31.6584 208.004 32.0467 208.604 32.8233C209.204 33.5293 209.504 34.4118 209.504 35.4708C209.504 36.8828 208.737 38.083 207.205 39.0714C205.672 39.9892 203.306 40.6246 200.107 40.9776C200.507 37.8006 201.24 35.4708 202.307 33.9882ZM224.129 50.5086C222.996 51.5676 222.029 52.0972 221.23 52.0972C220.563 52.0972 219.964 51.6382 219.43 50.7204C218.964 49.8026 218.731 48.5671 218.731 47.0139C218.731 44.6135 218.997 42.4249 219.53 40.4481C220.13 38.4007 220.897 36.671 221.829 35.259C222.829 33.7764 223.995 32.6468 225.328 31.8702C226.661 31.023 228.094 30.5994 229.626 30.5994C230.893 30.5994 231.992 30.8818 232.925 31.4466C233.925 32.0114 234.558 32.7527 234.824 33.6705C233.891 35.9297 232.792 38.1536 231.526 40.3422C230.326 42.5308 229.093 44.5076 227.827 46.2726C226.561 48.0376 225.328 49.4496 224.129 50.5086Z" fill="url(#paint0_linear)"/>
</g>
<defs>
<filter id="filter0_d" x="0" y="0" width="302" height="74" filterUnits="userSpaceOnUse" color-interpolation-filters="sRGB">
<feFlood flood-opacity="0" result="BackgroundImageFix"/>
<feColorMatrix in="SourceAlpha" type="matrix" values="0 0 0 0 0 0 0 0 0 0 0 0 0 0 0 0 0 0 127 0"/>
<feOffset dx="1" dy="3"/>
<feGaussianBlur stdDeviation="0.5"/>
<feColorMatrix type="matrix" values="0 0 0 0 0 0 0 0 0 0 0 0 0 0 0 0 0 0 0.12 0"/>
<feBlend mode="normal" in2="BackgroundImageFix" result="effect1_dropShadow"/>
<feBlend mode="normal" in="SourceGraphic" in2="effect1_dropShadow" result="shape"/>
</filter>
<linearGradient id="paint0_linear" x1="1.32497e-08" y1="40.6" x2="299.999" y2="41.4632" gradientUnits="userSpaceOnUse">
<stop stop-color="#441800"/>
<stop offset="0.484375" stop-color="#8B390D"/>
<stop offset="1" stop-color="#441800"/>
</linearGradient>
</defs>
</svg>
