<svg viewBox="0 0 443 107" preserveAspectRatio="xMidYMid meet" fill="none" xmlns="http://www.w3.org/2000/svg">
<path fill-rule="evenodd" clip-rule="evenodd" d="M97.491 45.7594C99.2503 45.7594 100.144 47.1081 101.386 49.1191C102.627 51.0243 103.487 60.7594 102.06 65.8027C103.441 62.1725 105.195 58.8626 107.321 55.873C109.552 52.8834 112.05 50.481 114.813 48.6659C117.683 46.7441 120.552 45.7831 123.422 45.7831C126.292 45.7831 128.577 46.6373 130.277 48.3456C132.084 49.9472 132.987 51.7623 132.987 53.7909C132.987 59.8769 124.963 64.041 108.915 66.2831L108.596 69.4863V72.8495C108.596 75.6256 109.234 77.761 110.509 79.2558C111.784 80.7506 113.804 81.498 116.567 81.498C118.586 81.498 120.659 80.9107 122.784 79.7363C124.834 78.6036 126.839 76.8871 128.489 75.4746L128.67 75.3194C128.765 72.2388 129.452 69.0665 130.731 65.8027C132.113 62.1725 133.867 58.8626 135.992 55.873C138.224 52.8834 140.722 50.481 143.485 48.6659C146.355 46.7441 149.224 45.7831 152.094 45.7831C154.963 45.7831 157.248 46.6373 158.949 48.3456C159.974 49.254 160.708 50.231 161.151 51.2767C161.854 50.7777 162.652 50.376 163.545 50.0716C164.476 49.6482 167.84 49.2777 168.668 49.2777C170.013 46.2083 171.41 43.2446 172.859 40.3869C174.308 37.5291 175.757 34.9359 177.206 32.6073C177.827 31.8664 178.654 31.2314 179.689 30.7022C180.828 30.0671 181.914 29.5908 182.949 29.2732C183.984 28.9557 184.812 28.797 185.433 28.797C186.158 28.6911 186.468 28.8499 186.365 29.2732C184.605 32.0252 182.846 35.0947 181.086 38.4817C179.431 41.8687 177.827 45.4144 176.274 49.119C178.24 49.0131 180.207 48.9602 182.173 48.9602H187.917C188.434 49.1719 188.641 49.4894 188.538 49.9128C188.434 50.2303 187.969 50.4949 187.141 50.7066C185.588 50.7066 183.777 50.7595 181.707 50.8654C179.741 50.9712 177.62 51.13 175.343 51.3417C173.273 56.528 171.507 62.6985 170.22 66.5833C163.545 86.7385 192.866 89.6131 202.991 65C213.115 40.3869 214.537 33.917 216.991 28.797C219.551 23.677 221.184 19.0933 224.491 15.36C220.224 13.2267 215.691 11.6267 210.891 10.56C206.197 9.38667 201.291 8.8 196.171 8.8C191.477 8.8 187.371 9.49333 183.851 10.88C180.437 12.2667 177.557 14.1333 175.211 16.48C172.864 18.8267 170.997 21.5467 169.611 24.64C168.224 27.7333 167.264 30.9867 166.731 34.4C166.517 34.6133 166.251 34.6667 165.931 34.56C165.611 34.4533 165.451 34.1867 165.451 33.76C165.877 29.3867 167.051 25.3333 168.971 21.6C170.891 17.76 173.451 14.4533 176.651 11.68C179.957 8.90667 183.851 6.72 188.331 5.12C192.811 3.52 197.877 2.71999 203.531 2.71999C208.437 2.71999 213.184 3.30666 217.771 4.48C222.357 5.54667 226.784 7.09333 231.051 9.12C233.824 6.88 236.811 5.01333 240.011 3.51999C243.317 2.02666 246.997 0.853329 251.051 0C251.371 0 251.531 0.213334 251.531 0.640001C251.531 0.959997 251.371 1.22666 251.051 1.44C244.757 3.14666 239.211 6.24 234.411 10.72C252.491 23 261.491 38 262.491 59.5C264.151 53.1548 268.036 46.2009 272.102 45.76C273.446 45.6144 274.547 46.5177 275.168 47.3645C275.789 48.1054 276.1 49.2168 276.1 50.6986C276.1 52.2862 275.944 54.0856 275.634 56.0966C275.323 58.1076 274.909 60.1716 274.392 62.2885C276.462 57.208 278.739 53.2388 281.222 50.381C283.706 47.5233 286.205 45.76 289.102 45.76C290.655 45.76 292.037 46.4648 292.865 47.2057C293.693 47.9466 294.107 48.8992 294.107 50.0635C294.107 50.8336 293.998 52.7139 293.598 54.3696C298.598 46.76 305.664 45.76 308.533 45.76C311.403 45.76 313.688 46.6142 315.388 48.3225C317.195 49.9241 318.098 51.7392 318.098 53.7678C318.098 59.8538 310.074 64.0178 294.026 66.26L293.707 69.4631V72.8264C293.707 75.6025 294.345 77.7379 295.62 79.2327C296.895 80.7275 298.915 81.4749 301.678 81.4749C303.697 81.4749 309.535 81.8715 313.526 76.76C313.491 73 314.189 68.1842 315.586 64.7541C317.09 61.2168 319.078 58.0547 321.55 55.2678C324.021 52.3737 326.869 50.0691 330.093 48.3541C333.316 46.6391 336.701 45.7815 340.247 45.7815C342.181 45.7815 343.847 45.9959 345.244 46.4247C346.641 46.8534 347.93 47.4966 349.112 48.3541C349.757 47.8181 350.617 47.3358 351.691 46.907C352.873 46.3711 353.948 46.1031 354.915 46.1031C355.452 46.1031 355.613 46.3711 355.399 46.907C352.927 49.9083 350.778 53.2312 348.951 56.8757C347.232 60.5201 345.889 64.0574 344.922 67.4874C343.954 70.9175 343.31 73.9724 342.987 76.6521C342.772 79.2247 342.987 80.9933 343.632 81.958C344.169 82.7083 345.136 82.7619 346.533 82.1188C347.785 81.4466 350.968 79.1981 353.24 76.6562C357.102 65.4141 359.87 54.4545 360.116 52.9428C360.427 51.0376 359.099 49.2815 352.82 55.9594C352.51 56.171 352.199 56.171 351.889 55.9594C351.579 55.6418 351.527 55.3243 351.734 55.0068C353.286 52.5724 355.149 50.5084 357.322 48.8149C359.496 47.0156 361.824 46.1159 364.308 46.1159C365.964 46.1159 367.05 46.6451 367.568 47.7036C368.189 48.762 368.344 50.0321 368.034 51.5139C367.62 53.8425 367.206 55.8006 366.792 57.3883C366.378 58.9759 365.809 60.7753 365.084 62.7863C367.775 57.9175 370.724 53.9483 373.933 50.8789C377.244 47.7035 380.877 45.7815 384.603 45.7815C386.465 45.7815 387.749 46.6451 388.68 47.7036C389.715 48.762 390.232 50.0321 390.232 51.5139C390.232 55.6418 389.508 59.8227 388.059 64.0565C391.371 58.2351 394.579 53.7896 397.684 50.7201C400.892 47.6506 404.652 45.7815 409.103 45.7815C411.172 45.7815 412.603 46.7815 413.603 47.7815C414.601 48.7798 414.915 50.0321 414.915 51.1964C414.915 52.9957 414.501 55.0068 413.673 57.2295C412.949 59.3464 412.069 61.6221 411.034 64.0565C410.102 66.385 398.991 91.2815 412.098 81.2815C411.991 77.76 413.991 74.76 415.037 74.4933C417.364 73.9005 414.147 78.2284 415.037 80.3236C416.271 83.2284 419.757 84.8548 421.723 84.8548C424.414 84.8548 426.484 84.1139 427.933 82.6321C429.485 81.0445 430.261 79.1392 430.261 76.9165C430.261 74.9055 429.796 73.0532 428.864 71.3597C428.036 69.5604 427.105 67.8669 426.07 66.2793C425.035 64.5858 424.052 62.8922 423.12 61.1987C422.293 59.5052 421.879 57.7058 421.879 55.8006C421.879 53.0487 423.017 50.773 425.294 48.9737C427.571 47.0685 430.934 45.7815 435.384 45.7815C437.661 45.7815 439.472 46.4334 440.817 47.0685C442.266 47.7036 442.991 48.4974 442.991 49.45C442.991 50.6143 442.68 51.9373 442.059 53.4191C441.542 54.9009 441.024 56.1182 440.507 57.0708C440.3 57.2824 440.041 57.3353 439.731 57.2295C439.42 57.0178 439.265 56.7003 439.265 56.2769C439.575 55.536 439.731 54.4775 439.731 53.1016C439.731 51.6198 439.317 50.4026 438.489 49.45C437.764 48.4974 436.729 48.0211 435.384 48.0211C433.625 48.0211 432.176 48.6032 431.037 49.7675C430.003 50.8259 429.485 52.3607 429.485 54.3717C429.485 56.0652 429.899 57.7058 430.727 59.2935C431.658 60.7753 432.642 62.31 433.676 63.8977C434.815 65.3795 435.85 67.0201 436.781 68.8195C437.713 70.513 438.178 72.4711 438.178 74.6938C438.178 78.5042 436.678 81.4678 433.676 83.5847C430.675 85.7016 426.743 86.76 421.879 86.76C418.36 86.76 414.146 85.509 412.598 82.7815C410.425 84.3692 406.739 86.76 404.669 86.76C401.254 86.76 399.547 84.749 399.547 80.7269C399.547 78.1866 399.909 75.6464 400.633 73.1062C401.358 70.4601 402.134 67.9727 402.962 65.6442C403.893 63.2098 404.721 60.934 405.445 58.8172C406.17 56.7003 406.532 54.9009 406.532 53.4191C406.532 51.1964 405.756 50.085 404.204 50.085C401.099 50.085 397.425 53.0487 393.182 58.9759C388.939 64.7973 385.006 73.159 381.384 84.061C381.177 84.696 380.297 85.3311 378.745 85.9662C377.296 86.4954 375.899 86.76 374.553 86.76C373.312 86.76 372.846 86.2837 373.156 85.3311C373.777 83.4259 374.605 81.0444 375.64 78.1867C376.779 75.3289 377.813 72.4182 378.745 69.4545C379.78 66.3851 380.659 63.5272 381.384 60.8811C382.108 58.1292 382.47 56.0123 382.47 54.5305C382.47 51.6727 381.591 50.2438 379.832 50.2438C377.141 50.2438 373.726 53.1016 369.586 58.8172C365.55 64.4269 361.617 72.8415 357.788 84.061C357.581 84.696 356.753 85.3311 355.304 85.9662C353.855 86.4954 352.562 86.76 351.423 86.76C350.906 86.76 350.492 86.6541 350.181 86.4424C349.871 86.2308 349.863 85.7376 350.026 85.3311C350.968 82.9916 351.876 80.5528 352.735 78.1088C350.575 81.0311 348.543 83.0867 346.372 84.5306C344.223 86.0312 342.995 86.76 341.491 86.76C340.524 86.76 338.991 86.5 338.474 85.3345C337.937 84.3698 337.561 83.0835 337.346 81.4757C337.238 79.7606 337.276 79.0366 337.491 77C337.706 74.9634 338.346 73.251 338.991 71C336.089 75.502 334.771 76.7287 330.991 80.5C329.001 82.4852 323.491 86.26 320.491 86.76C314.731 86.76 313.991 82.26 313.696 78.76C309.544 82.8589 299.34 86.76 295.62 86.76C291.9 86.76 289.19 85.8525 287.49 84.0374C285.895 82.1155 285.098 79.4462 285.098 76.0295C285.098 72.7197 287.491 62.5 290.991 57C290.991 56.0966 290.94 55.8304 289.602 54.76C289.024 54.2976 287.741 53.7151 286.602 53.7151C282.98 53.7151 279.722 56.8905 276.721 61.971C273.823 66.9456 272.21 74.1431 269.726 83.5632C269.623 84.0924 269.261 84.5687 268.64 84.992C267.098 85.76 262.586 86.7385 261.965 86.7385C260.826 86.7385 260.516 86.1034 261.033 84.8333C261.965 82.6105 262.844 80.2291 263.672 77.6888C264.604 75.0427 265.431 72.3966 266.156 69.7505C266.88 67.1044 267.501 64.5642 268.019 62.1298C268.536 59.5895 268.95 57.2609 269.261 55.144C269.468 53.5563 269.519 52.3392 269.416 51.4924C268.598 48.76 263.491 55 262.182 63.1484C260.991 93.5 237.991 120 184.811 97.44C184.811 97.44 181.024 101.28 171.211 103.84C166.304 105.12 160.811 105.76 154.731 105.76C151.317 105.76 148.864 105.387 147.371 104.64C145.984 103.787 145.291 102.667 145.291 101.28C145.291 99.8933 145.771 98.4 146.731 96.8C147.797 95.0933 149.237 93.5467 151.051 92.16C152.971 90.7733 155.157 89.6533 157.611 88.8C160.171 87.84 162.997 87.36 166.091 87.36C170.251 87.36 174.037 87.7333 177.451 88.48C180.971 89.2267 184.437 90.1867 187.851 91.36C189.343 89.6548 197.067 76.6823 198.491 74.5C188.491 85.5 172.689 86.7518 171.491 86.7467C158.371 86.691 160.491 74.2426 161.992 68.6473C163.441 63.2492 165.304 57.7452 167.581 52.1355C165.467 52.385 163.48 52.6999 161.621 53.0801C161.621 59.6772 153.635 64.041 137.587 66.2831L137.268 69.4863V72.8495C137.268 75.6256 137.905 77.761 139.181 79.2558C140.456 80.7506 142.475 81.498 145.239 81.498C147.258 81.498 149.331 80.9107 151.456 79.7363C153.582 78.5618 155.282 77.067 156.558 75.2519C156.983 75.0383 157.302 75.1451 157.514 75.5722C157.727 75.8925 157.78 76.2662 157.674 76.6933C155.548 79.4693 152.838 81.8717 149.543 83.9003C146.355 85.8222 142.901 86.7831 139.181 86.7831C135.461 86.7831 132.751 85.8756 131.05 84.0605C129.623 82.3393 128.834 80.0187 128.685 77.0987C126.609 79.7039 124.005 81.9711 120.871 83.9003C117.683 85.8222 114.229 86.7831 110.509 86.7831C106.789 86.7831 104.079 85.8756 102.379 84.0605C100.784 82.1386 97.9872 76.2594 101.295 67.9622C99.5358 71.5609 96.1075 84.3652 80.049 86.7467C77.5652 86.7467 75.7024 85.9529 74.4605 84.3652C73.3221 82.7776 72.7529 80.6078 72.7529 77.8558C72.7529 75.3156 72.9599 72.4049 73.3738 69.1237C73.7878 65.8426 74.2535 63.1435 74.771 61.0266C72.7011 63.7786 70.5278 67.0598 68.251 70.8701C65.9742 74.6805 63.6974 78.5967 61.4206 82.6188C60.7997 83.7831 59.8165 84.7886 58.4711 85.6353C57.1257 86.3763 55.8321 86.7467 54.5902 86.7467C53.7623 86.7467 53.4518 86.1646 53.6588 85.0003C54.3833 82.46 54.9524 79.3377 55.3664 75.6331C55.8839 71.8228 56.1426 68.1182 56.1426 64.5195C56.1426 60.9208 55.8839 57.7983 55.3664 55.1522C54.9524 52.5061 54.1245 50.9185 52.8826 50.3893C49.4907 49.7594 47.4907 51.2594 46.9886 52.2594C58.9907 72.7594 44.7983 86.0118 42.183 88.0035C39.5676 89.9186 36.5291 91.4507 33.0675 92.5998C29.606 93.6722 25.8752 94.2085 21.8752 94.2085C14.5675 94.2085 8.99063 92.7913 5.14448 89.9569C1.37525 87.1225 -6.00903 77 9.18314 65.4818C9.56776 65.3285 9.83679 65.4435 9.99063 65.8265C10.1445 66.2095 10.106 66.5542 9.87525 66.8606C-19.5094 98.5 65.8259 103.252 37.5655 53.4706C35.8002 50.3608 30.3347 43.0451 28.5655 40.1341C26.7963 37.2231 24.9291 34.5338 25.0655 30.6525C25.1503 28.2387 25.6064 26.8691 26.5655 24.6525C27.4976 22.4982 28.4867 21.2221 30.0655 19.6525C32.255 17.4757 36.606 14.9193 38.9907 14C41.3753 13.0807 43.9501 12.7594 46.7963 12.7594C50.7194 12.7594 53.7963 13.6021 56.0271 15.2874C58.3348 16.8961 59.4886 18.8495 59.4886 21.1476C59.4886 22.4499 58.9117 24.0586 57.7578 25.9737C56.6809 27.8122 55.5655 29.4209 54.4117 30.7998C54.104 30.953 53.8348 30.9147 53.604 30.6849C53.3732 30.4551 53.2963 30.187 53.3732 29.8805C53.7578 29.2677 54.0655 28.54 54.2963 27.6973C54.604 26.7781 54.7578 25.7822 54.7578 24.7097C54.7578 23.4841 54.4886 22.335 53.9501 21.2625C53.4117 20.1135 52.6425 19.1559 51.6425 18.3899C50.6425 17.5472 49.4886 16.8961 48.1809 16.4364C46.8732 15.9002 45.4886 15.6321 44.0271 15.6321C40.1809 15.6321 37.4886 17.4209 35.7194 19.2594C33.9501 21.0979 32.9501 22.6031 32.9501 25.5141C32.9501 27.8122 33.3732 29.9954 34.2194 32.0638C35.1424 34.0555 36.2578 36.0855 37.5655 38.1538C38.8732 40.1455 40.2578 42.1756 41.7194 44.2439C43.2578 46.2356 44.6809 48.3422 45.9886 50.5638C47.9549 48.9761 54.8189 45.7594 56.9922 45.7594C59.476 45.7594 61.1619 47.4257 62.1968 50.0718C63.3352 52.7178 63.9045 57.0575 63.9045 63.0906C63.9045 65.8425 63.801 68.3828 63.594 70.7114C63.387 72.9341 63.1283 74.8922 62.8178 76.5857C64.8876 72.8812 66.8539 69.7059 68.7168 67.0598C70.5796 64.4137 72.3389 61.9792 73.9948 59.7564C74.6157 58.9097 75.1332 57.9571 75.5471 56.8987C76.0646 55.7344 77.2834 51.4458 77.8009 49.4347C77.9044 48.7997 78.37 48.2175 79.198 47.6883C80.1294 47.0532 81.0608 46.5769 81.9922 46.2594C83.0271 45.9419 83.9068 45.7831 84.6312 45.7831C85.3557 45.6773 85.7179 45.889 85.7179 46.4182C84.062 49.911 82.1188 56.687 81.2909 61.3441C80.463 65.8954 80.049 70.1292 80.049 74.0455C80.049 76.6916 82.9904 88.7594 96.1075 68.6474C104.49 51.7594 91.8126 51.4477 90.0533 52.9295C88.9904 53.2594 88.8282 52.0542 88.9666 51.8182C89.2771 51.289 90.2666 50.3945 90.991 49.7594C91.7154 49.0185 92.4399 48.3834 93.1643 47.8542C93.9922 47.2191 94.7684 46.7429 95.4928 46.4253C96.3208 46.0019 97.077 45.7594 97.491 45.7594ZM112.741 53.4706C114.548 51.1217 116.673 49.9472 119.118 49.9472C120.606 49.9472 121.828 50.5344 122.784 51.7089C123.741 52.7766 124.219 54.1112 124.219 55.7128C124.219 57.8482 122.997 59.6633 120.552 61.1581C118.108 62.5461 114.335 63.5071 109.234 64.0409C109.871 59.2362 111.04 55.7128 112.741 53.4706ZM141.413 53.4706C143.219 51.1217 145.345 49.9472 147.789 49.9472C149.277 49.9472 150.5 50.5344 151.456 51.7089C152.413 52.7766 152.891 54.1112 152.891 55.7128C152.891 57.8482 151.669 59.6633 149.224 61.1581C146.78 62.5461 143.007 63.5071 137.905 64.0409C138.543 59.2362 139.712 55.7128 141.413 53.4706ZM297.852 53.4475C299.659 51.0986 301.784 49.9241 304.229 49.9241C305.717 49.9241 306.939 50.5113 307.895 51.6858C308.852 52.7535 309.33 54.0881 309.33 55.6897C309.33 57.8251 308.108 59.6402 305.664 61.135C303.219 62.523 299.446 63.484 294.345 64.0178C294.982 59.2131 296.151 55.6897 297.852 53.4475ZM172.171 101.6C168.651 102.453 164.651 102.88 160.171 102.88C157.397 102.88 155.317 102.4 153.931 101.44C152.651 100.48 152.011 99.2 152.011 97.6C152.011 96.1067 152.544 94.9333 153.611 94.08C154.784 93.2267 156.597 92.8 159.051 92.8C163.531 92.8 167.637 93.1733 171.371 93.92C175.104 94.6667 178.73 95.5733 182.251 96.64C179.157 98.9867 175.797 100.64 172.171 101.6ZM216.171 42.88C219.584 32.4267 223.691 23.9467 228.491 17.44C279.991 44.5 246.491 128.5 190.891 92.48C190.891 92.48 200.544 80.8 204.491 72.8C208.544 64.6933 212.437 54.72 216.171 42.88ZM323.991 80C331.491 76.8112 350.803 54.334 339.5 51.6858C319.5 47 316.991 85 323.991 80Z" fill="url(#paint0_linear)"/>
<defs>
<linearGradient id="paint0_linear" x1="1.9565e-08" y1="61.4117" x2="442.99" y2="62.656" gradientUnits="userSpaceOnUse">
<stop stop-color="#441800"/>
<stop offset="0.484375" stop-color="#8B390D"/>
<stop offset="1" stop-color="#441800"/>
</linearGradient>
</defs>
</svg>