<svg width="35" height="35" viewBox="0 0 35 35" fill="none" xmlns="http://www.w3.org/2000/svg">
<g clip-path="url(#clip0)">
<path d="M6.8605 0.00158691C3.08824 0.00158691 0.00158691 3.08824 0.00158691 6.8605V28.1471C0.00158691 31.9193 3.08824 35.006 6.8605 35.006H28.1471C31.9193 35.006 35.006 31.9193 35.006 28.1471V6.8605C35.006 3.08824 31.9193 0.00158691 28.1471 0.00158691H6.8605V0.00158691ZM10.7871 7.89955H17.6919C19.1259 7.89955 20.2152 7.95201 20.9546 8.06471C21.694 8.17178 22.3885 8.40127 23.0338 8.7505C23.7321 9.12672 24.2567 9.63334 24.6022 10.261C24.9477 10.8923 25.1229 11.6179 25.1229 12.443C25.1229 13.3965 24.8849 14.2441 24.4054 14.9882C23.9304 15.7322 23.2714 16.2793 22.4333 16.6332V16.7349C23.6392 16.991 24.6064 17.5061 25.3318 18.2902C26.0583 19.0752 26.4212 20.1318 26.4212 21.4588C26.4212 22.43 26.2378 23.2867 25.8699 24.0215C25.5022 24.7562 25.0097 25.3616 24.3868 25.8458C23.6521 26.4232 22.8456 26.8306 21.962 27.0774C21.0838 27.3233 19.9684 27.446 18.6107 27.446H10.7871V7.89958L10.7871 7.89955ZM15.6707 11.4827V15.6193H16.2886C17.1267 15.6193 17.7189 15.6106 18.055 15.593C18.3912 15.5754 18.7411 15.4853 19.0996 15.3195C19.4888 15.1361 19.7629 14.8814 19.91 14.5583C20.0581 14.2314 20.1343 13.854 20.1343 13.4285C20.1343 13.1109 20.0535 12.7876 19.8914 12.4561C19.7303 12.1246 19.48 11.8823 19.1345 11.7343C18.8123 11.5909 18.4314 11.5153 17.9872 11.5013C17.544 11.4873 16.8853 11.4827 16.0119 11.4827H15.6706L15.6707 11.4827ZM15.6707 18.9672V23.8607H15.9354C17.213 23.8607 18.0954 23.851 18.5833 23.8333C19.0713 23.8157 19.5739 23.6998 20.0796 23.48C20.5284 23.2873 20.8507 23.0048 21.0574 22.6324C21.2632 22.2608 21.3659 21.8393 21.3659 21.3691C21.3659 20.7638 21.2462 20.2935 20.9995 19.9527C20.7536 19.6081 20.3858 19.3523 19.897 19.1772C19.6008 19.0608 19.1883 18.9977 18.6687 18.9847C18.1491 18.9717 17.4507 18.9672 16.5763 18.9672H15.6707H15.6707Z" fill="#E4BFA0"/>
</g>
<defs>
<clipPath id="clip0">
<rect width="35" height="35" fill="white"/>
</clipPath>
</defs>
</svg>
